<svg xmlns="http://www.w3.org/2000/svg" viewBox="1688.2 405.4 323.6 323.6"><path fill="#F6C215" d="M1849.863,405.387v323.562c-89.292-0.052-161.677-72.468-161.677-161.781
				C1688.187,477.855,1760.571,405.439,1849.863,405.387z"/><path fill="#D2A32A" d="M2011.749,567.168c0,89.345-72.426,161.781-161.781,161.781h-0.104V405.387h0.104
				C1939.323,405.387,2011.749,477.823,2011.749,567.168z"/><path fill-rule="evenodd" clip-rule="evenodd" fill="#FFFFFF" d="M1909.134,590.705c0.547,1.167,0.771,2.377,0.507,3.708
				c-0.483,2.282,0.523,4.227,1.222,6.239c0.217,0.615,0.731,0.981,1.168,1.405c0.742,0.721,0.943,1.696,0.537,2.621
				c-0.591,1.312-0.537,2.606-0.438,3.99c0.126,1.919,0.019,3.847,0.415,5.762c0.257,1.195-0.139,2.425-0.71,3.456
				c-0.608,1.083-1.325,2.122-2.119,3.044c-0.741,0.85-1.634,1.51-2.726,1.876c-2.042,0.676-3.852,1.813-5.119,3.829
				c-0.913,1.474-2.415,2.267-3.469,3.596c-0.23,0.307-0.555,0.517-0.813,0.802c-0.556,0.633-0.676,1.394-0.396,2.228
				c0.105,0.297,0.282,0.565,0.378,0.871c0.909,2.615,1.919,5.215,1.145,8.14c-0.094,0.372-0.106,0.808-0.063,1.195
				c0.234,1.753-0.687,2.708-1.896,3.411c-0.572,0.331-1.215,0.504-1.835,0.724c-0.979,0.349-1.86,0.904-2.651,1.609
				c-0.58,0.514-0.643,0.799-0.259,1.826c0.246,0.639,0.246,1.267,0.116,1.882c-0.353,1.727-0.759,3.436-1.155,5.152
				c-0.183,0.813-0.585,1.486-1.245,1.895c-1.139,0.703-1.774,1.855-2.36,3.071c-0.268,0.571-0.496,1.165-0.792,1.72
				c-0.529,0.961-0.988,1.988-1.646,2.829c-1.55,2.012-3.186,3.939-4.802,5.881c-0.84,1.016-1.879,1.754-2.912,2.501
				c-0.492,0.342-0.997,0.658-1.591,0.709c-0.94,0.087-1.897,0.096-2.594,0.972c-1.382,0.22-2.691,1.207-4.177,0.441
				c-0.598-0.309-1.252-0.294-1.916-0.138c-0.414,0.096-0.873,0.126-1.278,0.019c-0.845-0.217-1.564-0.009-2.243,0.555
				c-0.226,0.192-0.489,0.409-0.759,0.439c-1.583,0.192-3.123,0.519-4.624,1.171c-0.349,0.159-0.855-0.003-1.255-0.153
				c-1.03-0.346-1.696-1.522-2.864-1.573c-0.108-0.005-0.271-0.387-0.273-0.585c-0.019-0.931-0.341-1.709-0.761-2.475
				c-0.482-0.876-0.614-1.729-0.029-2.699c0.621-1.033,0.449-2.201-0.129-3.198c-1.261-2.191-2.103-4.573-2.897-6.992
				c-0.492-1.531-1.246-2.876-2.327-4.018c-1.45-1.534-2.394-3.348-2.651-5.645c-0.204-1.738-0.825-3.42-0.825-5.213
				c0-0.234-0.063-0.482-0.157-0.699c-0.656-1.501-0.713-3.111-0.656-4.726c0.061-1.666-0.313-3.129-1.174-4.533
				c-1.009-1.667-1.844-3.447-2.519-5.327c-0.61-1.72-1.48-3.321-2.522-4.774c-0.752-1.063-1.103-2.221-1.127-3.563
				c-0.023-2.339-0.096-4.654,0.826-6.87c0.324-0.777,0.382-1.708,0.58-2.561c0.504-2.21,1.095-4.354,2.84-5.81
				c0.528-0.45,0.807-1.131,0.934-1.855c0.118-0.714,0.229-1.432,0.334-2.146c0.122-0.832-0.008-1.58-0.461-2.282
				c-0.908-1.441-1.384-2.99-0.899-4.777c0.108-0.37,0.135-0.846,0.009-1.186c-0.513-1.414-0.622-3.005-1.417-4.29
				c-0.631-1.018-1.027-2.117-1.223-3.321c-0.276-1.801-1.126-3.207-2.198-4.597c-1.507-1.955-3.355-3.533-4.76-5.581
				c-0.625-0.91-1.085-1.877-1.49-2.913c-0.339-0.894-0.37-1.672,0.18-2.495c0.673-1.006,0.842-2.27,0.886-3.435
				c0.078-1.708,0.495-3.314,0.813-4.948c0.076-0.396,0.145-0.786,0.189-1.186c0.139-1.129-0.249-2.065-0.939-2.84
				c-1.304-1.451-2.689-2.577-4.75-2.009c-0.756,0.195-1.549,0.318-2.32,0.523c-1.712,0.447-2.808-0.126-3.429-1.973
				c-0.343-0.991-0.716-1.922-1.363-2.711c-0.515-0.622-1.123-1.057-1.877-1.084c-2.737-0.075-5.493-0.174-8.01,1.399
				c-0.124,0.078-0.253,0.177-0.395,0.195c-2.401,0.363-4.408,1.913-6.674,2.714c-0.64,0.222-1.24,0.378-1.892,0.126
				c-0.342-0.126-0.693-0.234-1.036-0.345c-3.479-1.172-6.891-0.745-10.14,0.867c-1.521,0.757-2.828,0.79-4.343,0.102
				c-1.631-0.735-3.15-1.58-4.36-3.032c-0.586-0.715-1.261-1.33-2.065-1.739c-0.321-0.168-0.637-0.402-0.886-0.678
				c-1.084-1.237-2.334-2.147-3.837-2.627c-0.255-0.086-0.597-0.246-0.709-0.489c-0.499-1.144-1.489-2.029-1.553-3.393
				c-0.087-1.499-0.834-2.627-1.798-3.453c-0.882-0.753-1.375-1.873-2.203-2.603c-0.822-0.718-1.471-1.502-1.913-2.552
				c-0.171-0.384-0.608-0.387-0.955-0.475l-0.087-0.096c-0.239-0.184-0.48-0.354-0.708-0.556c-1.706-1.423-1.729-1.477-1.744-3.771
				c0-0.868,0.372-1.723-0.025-2.606c-0.362-0.816-1.017-1.345-1.414-2.011c-0.083-0.345,0.01-0.559,0.181-0.724
				c1.213-1.137,1.922-2.54,2.114-4.327c0.083-0.864,0.462-1.693,0.708-2.527c0.612-2.06,0.805-4.089-0.204-6.068
				c-0.228-0.453-0.267-0.916-0.083-1.387c0.482-1.249,0.312-2.372-0.564-3.315c-1.336-1.449-1.124-3.08-0.318-4.636
				c0.645-1.257,1.264-2.516,1.792-3.843c0.378-0.955,0.813-1.927,1.429-2.69c1.138-1.432,1.885-3.015,2.275-4.855
				c0.244-1.219,0.814-2.236,1.829-2.867c0.874-0.546,1.312-1.459,1.653-2.456c0.467-1.288,1.246-2.129,2.52-2.363
				c1.246-0.225,2.304-0.892,3.198-1.9c0.345-0.387,0.811-0.658,1.222-0.982c0.9-0.723,1.537-1.675,2.054-2.765
				c0.345-0.745,0.511-1.483,0.31-2.315c-0.421-1.834-0.043-3.501,0.891-5.053c0.313-0.528,0.553-1.125,0.781-1.708
				c0.654-1.711,1.708-2.958,3.233-3.729c0.192-0.093,0.388-0.21,0.589-0.297c2.071-0.856,3.209-2.625,3.885-4.868
				c0.229-0.765,0.49-1.519,0.781-2.252c0.384-0.979,1.494-1.537,2.234-0.423c0.807,1.225,1.929,1.558,3.247,1.483
				c1.292-0.067,2.58-0.003,3.865,0.357c1.106,0.303,2.158,0.018,2.951-1.009c0.429-0.562,0.892-1.078,1.558-1.264
				c1.201-0.336,2.259-0.991,3.291-1.753c1.035-0.763,2.207-1.18,3.477-1.18c0.945,0,1.84-0.268,2.753-0.546
				c1.174-0.366,2.402-0.525,3.608-0.729c0.667-0.111,1.311,0.096,1.901,0.381c0.724,0.357,1.459,0.349,2.089-0.063
				c1.559-1.012,3.229-0.672,4.84-0.562c1.334,0.087,2.58,0.123,3.76-0.669c0.244-0.168,0.525-0.267,0.803-0.378
				c0.815-0.315,1.588-0.234,2.179,0.517c0.46,0.609,0.895,0.922,1.673,0.636c0.535-0.192,0.897,0.532,0.588,1.102
				c-0.174,0.336-0.414,0.646-0.642,0.952c-0.73,1.045-0.73,1.135-0.033,2.303c1.129,1.874,1.011,3.086-0.467,4.632
				c-0.42,0.441-0.885,0.823-1.29,1.286c-0.262,0.288-0.379,0.696-0.129,1.093c0.18,0.276,0.483,0.477,0.747,0.345
				c0.763-0.379,1.226-0.204,1.495,0.703c0.195,0.654,0.705,0.976,1.255,1.252c1.306,0.679,2.552,1.36,4.129,1.011
				c0.957-0.215,1.984,0.273,2.93,0.711c0.532,0.244,1.039,0.564,1.576,0.784c0.806,0.331,1.33,0.906,1.612,1.813
				c0.483,1.556,1.486,2.232,2.958,2.336c1.85,0.12,3.489,0.952,4.953,2.21c0.111,0.102,0.217,0.212,0.334,0.306
				c0.615,0.511,1.27,0.79,2.015,0.364c0.883-0.511,1.531-1.24,1.539-2.423c0.01-0.639-0.105-1.276-0.148-1.916
				c-0.075-1.135,0.342-2.012,1.125-2.726c2.318-2.117,5.236-2.131,7.479,0.093c0.923,0.916,2.048,1.15,3.15,1.477
				c0.829,0.246,1.702,0.309,2.375,1.036c0.327,0.351,0.789,0.33,1.23,0.348c1.738,0.063,3.426,0.441,5.067,1.126
				c1.085,0.456,2.217,0.723,3.315,1.107c0.525,0.177,1.003,0.117,1.462-0.171c0.322-0.189,0.637-0.385,0.932-0.625
				c1.501-1.216,3.216-1.318,4.978-1.135c0.412,0.039,0.893,0.141,1.213,0.405c1.279,1.033,2.66,1.093,4.141,0.871
				c1.213-0.192,1.371-0.063,1.798,1.114c0.187,0.522,0.295,1.081,0.499,1.591c1.051,2.504,0.867,4.984-0.013,7.497
				c-0.312,0.877-0.653,1.363-1.576,1.156c-0.459-0.114-0.717,0.268-0.57,0.676c1.31,3.744,2.566,7.524,4.786,10.754
				c0.388,0.555,0.567,1.072,0.421,1.772c-0.28,1.333,0.146,2.338,1.188,3.071c2.167,1.519,2.864,3.912,3.047,6.575
				c0.088,1.363-0.03,2.732,0.301,4.077c0.195,0.808,0.45,1.501,1.18,1.909c1.9,1.063,2.798,2.907,3.242,5.141
				c0.246,1.246,0.353,2.555,1.084,3.626c0.331,0.478,0.61,0.484,1.009-0.012c0.085-0.117,0.127-0.294,0.226-0.408
				c0.226-0.252,0.556-0.138,0.685,0.189c0.141,0.387,0.267,0.753,0.118,1.165c-0.271,0.774,0.107,1.216,0.657,1.573
				c0.362,0.252,0.717,0.534,1.113,0.727c0.751,0.363,1.309,0.943,1.858,1.606c1.08,1.294,2.243,2.501,3.365,3.753
				c0.301,0.336,0.625,0.664,0.892,1.039c0.409,0.598,0.667,1.292,0.333,2.021c-0.333,0.723-0.099,1.207,0.355,1.708
				c0.296,0.34,0.567,0.729,0.811,1.12c0.896,1.363,2.107,1.723,3.459,1.216c1.18-0.453,2.305-0.885,3.575-0.541
				c0.427,0.124,0.832-0.174,1.21-0.417c0.634-0.414,1.298-0.657,2.03-0.769c1.776-0.294,3.549-0.688,5.328-1.023
				c0.655-0.126,1.247-0.409,1.814-0.775c0.237-0.159,0.514-0.273,0.796-0.333c0.567-0.117,1.188,0.405,1.24,1.036
				c0.056,0.64,0.047,1.285,0.086,1.922c0.055,0.964,0.25,1.939-0.534,2.696c-0.15,0.138-0.214,0.439-0.237,0.667
				c-0.158,1.847-1.168,3.246-1.942,4.789c-0.954,1.885-1.76,3.864-2.605,5.819c-0.226,0.501-0.291,1.14-0.61,1.525
				c-2.041,2.492-3.329,5.663-5.785,7.761c-0.396,0.336-0.685,0.813-1.009,1.255c-0.589,0.844-1.321,1.545-2.194,1.912
				c-2.321,0.97-3.9,2.991-5.648,4.765c-1.01,1.021-1.835,2.261-2.743,3.405c-1.346,1.675-2.697,3.342-4.229,4.824
				c-0.508,0.486-0.838,1.072-1.095,1.757c-0.592,1.561-1.223,3.087-2.061,4.51c-0.646,1.09-0.902,2.363-1.204,3.603
				c-0.18,0.715,0.099,1.255,0.721,1.543L1909.134,590.705z M1889.414,577.154c-0.096,1,0.075,1.192,1.138,1.402
				c0.346,0.07,0.676,0.213,1.009,0.336c0.421,0.147,0.847,0.186,1.276,0.084c0.292-0.072,0.666-0.223,0.605-0.541
				c-0.187-1.051,0.486-1.606,0.929-2.3c0.41-0.669,0.708-1.399,0.87-2.176c0.31-1.475-0.559-2.588-1.867-2.391
				c-0.708,0.115-1.408,0.28-2.102,0.478c-0.912,0.271-1.492,0.919-1.588,2.015C1889.598,575.091,1889.507,576.118,1889.414,577.154
				z M1895.38,607.949c0.537,1.525,0.622,3.399,1.483,5.005c0.029,0.054,0.146,0.115,0.18,0.087
				c0.096-0.069,0.268-0.204,0.256-0.279c-0.331-1.79-0.738-3.597-0.289-5.416c0.249-0.988,0.249-1.837-0.171-2.756
				c-0.213-0.48-0.234-1.078-0.313-1.627c-0.096-0.639-0.2-1.267-0.556-1.792c-0.107-0.165-0.343-0.327-0.513-0.312
				c-0.256,0.027-0.282,0.33-0.193,0.54c0.694,1.672,0.536,3.426,0.395,5.176C1895.628,606.959,1895.503,607.347,1895.38,607.949z
				 M1882.67,583.36c0.328,1.345-0.444,2.651,0.052,3.979c0.276,0.75,0.342,1.546,0.446,2.336c0.091,0.622,0.28,1.237,0.49,1.819
				c0.256,0.703,0.744,1.168,1.37,1.442c0.11,0.057,0.296,0.045,0.396-0.027c0.195-0.168,0.162-0.432,0.055-0.63
				c-0.154-0.271-0.313-0.556-0.526-0.753c-0.79-0.697-1.18-1.522-1.033-2.702c0.079-0.607-0.029-1.277-0.177-1.883
				C1883.439,585.748,1883.406,584.459,1882.67,583.36z M1841.66,532.085c0.03,0.802,0.085,1.667,0.787,2.063
				c0.631,0.351,1.219-0.168,1.769-0.517c0.252-0.165,0.45-0.441,0.342-0.771c-0.063-0.189-0.27-0.394-0.441-0.439
				c-0.684-0.189-1.378-0.309-1.951-0.846C1841.949,531.383,1841.649,531.704,1841.66,532.085z M1891.473,482.516
				c0.593,2.057,0.593,2.057,1.364,2.624C1892.695,484.224,1892.465,483.413,1891.473,482.516z"/><path fill-rule="evenodd" clip-rule="evenodd" fill="#FFFFFF" d="M1919.06,638.49c-0.066-1.095,0.271-2.036,0.76-2.957
				c0.634-1.178,1.183-2.405,1.783-3.591c0.45-0.883,0.601-1.811,0.255-2.778c-0.501-1.438-0.544-2.984-0.801-4.476
				c-0.15-0.844-0.055-1.588,0.288-2.327c0.226-0.504,0.453-1.009,0.624-1.534c0.225-0.646,0.576-1.075,1.168-1.312
				c0.75-0.297,1.447-0.868,2.21-0.97c1.939-0.288,3.038-1.883,4.377-3.135c0.784-0.729,1.093-1.672,1.417-2.648
				c0.16-0.481,0.344-0.823,0.803-1.036c0.934-0.441,1.461-1.273,1.528-2.426c0-0.154,0.029-0.321,0.06-0.475
				c0.282-1.068,1.084-1.363,1.816-0.657c0.781,0.76,1.275,1.708,1.501,2.853c0.363,1.888,0.526,3.816,1.139,5.645
				c0.147,0.459,0.096,0.958-0.042,1.419c-0.13,0.403-0.325,0.814-0.742,0.73c-0.708-0.141-0.916,0.129-0.829,0.886
				c0.055,0.475,0.087,0.985-0.021,1.436c-0.974,3.771-1.63,7.632-2.743,11.376c-1.076,3.579-2.198,7.152-2.847,10.875
				c-0.117,0.702-0.408,1.369-0.642,2.044c-0.46,1.357-1.214,2.306-2.616,2.54c-0.689,0.121-1.354,0.55-2.009,0.883
				c-0.783,0.399-1.504,0.288-2.264-0.175c-1.984-1.204-3.23-2.924-3.239-5.542c0-0.904-0.162-1.753-0.559-2.546
				C1919.102,639.94,1919.048,639.223,1919.06,638.49z"/></svg>