<svg xmlns="http://www.w3.org/2000/svg" viewBox="1688.2 954.3 323.6 323.6"><path fill="#8E84B7" d="M1849.863,954.322v323.563c-89.292-0.053-161.677-72.469-161.677-161.782
				C1688.187,1026.78,1760.571,954.376,1849.863,954.322z"/><path fill="#736C9E" d="M2011.749,1116.104c0,89.346-72.426,161.782-161.781,161.782h-0.104V954.322h0.104
				C1939.323,954.322,2011.749,1026.749,2011.749,1116.104z"/><path fill-rule="evenodd" clip-rule="evenodd" fill="#FFFFFF" d="M1807.44,1073.992c-0.123-0.259-0.313-0.453-0.535-0.614
				c-0.399-0.304-0.829-0.421-1.238-0.079c-0.585,0.484-1.203,0.219-1.819,0.153c-0.242-0.02-0.397-0.26-0.39-0.521
				c0.009-0.752-0.137-1.458-0.362-2.169c-0.066-0.204-0.038-0.497,0.04-0.721c0.216-0.653,0.292-1.347,0.594-1.98
				c0.362-0.774,0.45-1.564-0.044-2.338c-0.091-0.125-0.156-0.284-0.178-0.441c-0.106-0.766-0.43-1.4-0.859-1.974
				c-0.274-0.364-0.32-0.723-0.107-1.134c0.099-0.176,0.177-0.371,0.205-0.574c0.098-0.528,0.398-0.863,0.783-1.14
				c0.156-0.118,0.312-0.219,0.467-0.336c0.946-0.752,1.162-1.366,0.897-2.657c-0.041-0.196-0.096-0.393-0.146-0.59
				c-0.068-0.249-0.052-0.488,0.027-0.728l0,0c0.512,0.056,0.813,0.402,0.908,0.933c0.166,0.839,0.313,1.694,0.147,2.566
				c-0.076,0.401-0.138,0.812-0.217,1.213c-0.065,0.328-0.076,0.65,0.053,0.968c0.164,0.396,0.183,0.775,0.026,1.194
				c-0.094,0.268,0.039,0.497,0.255,0.605c0.301,0.152,0.623,0.271,0.94,0.365c0.278,0.087,0.585,0.138,0.868,0.204
				c0.496,0.109,1.034,0.118,1.452,0.942c0.04-0.8-0.124-1.132-0.517-1.284c-0.574-0.219-1.047-0.631-1.492-1.047
				c-0.517-0.483-0.655-1.178-0.683-1.888c0-0.102,0.106-0.235,0.183-0.287c0.09-0.039,0.235-0.047,0.312,0.011
				c0.149,0.118,0.273,0.276,0.383,0.44c0.45,0.719,0.573,0.475,1.084,0.166c0.127-0.079,0.253-0.181,0.361-0.284
				c0.224-0.213,0.234-0.524-0.02-0.721c-0.263-0.197-0.509-0.355-0.391-0.771c0.058-0.21-0.087-0.254-0.235-0.331
				c-0.428-0.221-0.497-0.421-0.281-0.806c0.096-0.183,0.205-0.35,0.328-0.5c0.432-0.491,1.038-0.465,1.284,0.159
				c0.183,0.476,0.407,0.614,0.817,0.604c0.626-0.017,1.143,0.248,1.612,0.702c0.569,0.532,1.153,1.017,1.582,1.72
				c0.383,0.634,0.926,0.923,1.629,0.695c0.216-0.062,0.439-0.073,0.656-0.052c0.3,0.03,0.527,0.399,0.45,0.73
				c-0.128,0.514-0.265,1.032-0.716,1.347c-0.352,0.244-0.476,0.597-0.467,1.05c0.021,0.612,0.011,1.238,0,1.855
				c0,0.263,0.076,0.474,0.205,0.681c0.145,0.232,0.227,0.517,0.333,0.778c0.117,0.276-0.149,0.776,0.243,0.835
				c0.282,0.043,0.293-0.49,0.536-0.703c0.45-0.41,0.489-0.998,0.401-1.591c-0.058-0.486-0.137-0.989-0.363-1.415
				c-0.361-0.681-0.301-1.345-0.038-2.018c0.07-0.188,0.155-0.377,0.216-0.57c0.145-0.547,0.057-1.015-0.388-1.296
				c-0.687-0.429-1.187-0.962-1.381-1.837c-0.058-0.243-0.285-0.371-0.495-0.465c-0.207-0.094-0.423-0.144-0.628-0.223
				c-0.38-0.152-0.623-0.454-0.724-0.884c-0.104-0.478-0.194-0.962-0.088-1.462c0.12-0.556,0.033-1.041-0.285-1.516
				c-0.505-0.771-0.22-1.574,0.05-2.346c0.079-0.237,0.323-0.316,0.541-0.401c0.7-0.293,1.445-0.397,2.187-0.35
				c0.604,0.035,1.172-0.055,1.746-0.229c0.474-0.14,0.918-0.331,1.419-0.269c0.232,0.03,0.419-0.118,0.623-0.227
				c0.265-0.145,0.538-0.263,0.822-0.375c0.517-0.21,0.773-0.578,0.779-1.169c0-0.337-0.077-0.678-0.38-0.842
				c-0.394-0.193-0.665-0.489-0.878-0.902c-0.108-0.188-0.352-0.284-0.528-0.434c-0.206-0.181-0.195-0.523,0.056-0.577
				c0.383-0.082,0.423-0.317,0.484-0.675c0.095-0.544,0.289-0.599,0.8-0.424c0.396,0.142,0.544,0.106,0.741-0.251
				c0.243-0.459,0.535-0.916,0.155-1.472c-0.079-0.096,0.028-0.226,0.137-0.281c0.068-0.034,0.148-0.076,0.213-0.063
				c0.646,0.145,1.036-0.24,1.397-0.759c0.204-0.288,0.467-0.53,0.705-0.79c0.078-0.088,0.145-0.233,0.246-0.249
				c1.052-0.21,1.734-1.386,2.877-1.364c0.851-0.395,1.769-0.584,2.58-1.084c0.263-0.159,0.272-0.345,0.027-0.559
				c-0.05-0.051-0.135-0.063-0.193-0.119c-0.217-0.214-0.187-0.493,0.075-0.553c0.863-0.196,1.691-0.575,2.588-0.527
				c0.189,0.006,0.361-0.046,0.55-0.087c0.241-0.066,0.241-0.223,0.134-0.451c-0.114-0.241,0.012-0.399,0.208-0.47
				c0.399-0.138,0.812-0.059,1.211,0.019c0.205,0.049,0.289,0.435,0.134,0.614c-0.125,0.143-0.289,0.246-0.418,0.389
				c-0.254,0.284-0.183,0.656,0.129,0.798c0.467,0.204,0.945,0.112,1.412,0.009c0.158-0.041,0.226-0.189,0.322-0.314
				c0.268-0.348,0.53-0.691,0.831-0.984c0.398-0.389,0.683-0.382,1.104-0.04c0.147,0.122,0.273,0.281,0.422,0.403
				c0.108,0.099,0.243,0.228,0.371,0.056c0.114-0.173,0.176-0.399,0.049-0.577c-0.117-0.156-0.295-0.243-0.439-0.375
				c-0.193-0.183-0.394-0.365-0.506-0.639c-0.121-0.276-0.011-0.524,0.251-0.514c0.255,0.002,0.518,0.039,0.771,0.039
				c0.295-0.015,0.596-0.022,0.892-0.098c0.68-0.182,1.089-0.885,0.816-1.593c-0.222-0.577-0.106-1.021,0.068-1.533
				c0.204-0.585,0.439-1.132,0.763-1.645c0.439-0.664,0.887-1.322,1.27-2.028c0.449-0.805,1.17-1.104,1.895-1.393
				c0.373-0.157,0.752,0.052,1.027,0.344c0.35,0.385,0.702,0.703,1.23,0.724c0.251,0.019,0.301,0.317,0.4,0.545
				c0.206,0.502,0.056,0.847-0.305,1.169c-0.313,0.286-0.596,0.617-0.869,0.956c-0.137,0.179-0.313,0.351-0.292,0.635
				c0.07,0.019,0.146,0.07,0.193,0.038c0.892-0.594,1.73-0.143,2.541,0.196c0.752,0.317,0.935,0.965,0.479,1.674
				c-0.371,0.57-0.634,1.201-0.989,1.781c0.637,0.333,1.252,0.171,1.602-0.43c0.079-0.134,0.14-0.292,0.205-0.442
				c0.295-0.667,0.295-0.661,0.979-0.602c0.213,0.022,0.44,0.011,0.652-0.038c0.296-0.071,0.577-0.102,0.86,0.061
				c0.217,0.111,0.43,0.084,0.657,0.035c0.82-0.197,1.541-0.038,2.109,0.71c0.088,0.109,0.264,0.148,0.399,0.213l0.011,0.02
				c0.058,0.331,0.166,0.645,0.401,0.876c0.351,0.35,0.505,0.78,0.556,1.292c0.039,0.371,0.186,0.538,0.518,0.232
				c0.124-0.12,0.281,0,0.361,0.149c0.077,0.143,0.134,0.298,0.167,0.457c0.046,0.278,0.054,0.585,0.231,0.81
				c0.402,0.504,0.354,1.07,0.165,1.632c-0.146,0.441-0.194,0.832-0.027,1.306c0.166,0.47,0.027,0.98-0.158,1.443
				c-0.301,0.762-0.722,1.437-1.279,2.002c-0.35,0.364-0.769,0.631-1.033,1.102c-0.105,0.188-0.333,0.178-0.479,0.281
				c-0.853,0.596-1.702,1.188-2.121,2.276c-0.144,0.399-0.399,0.695-0.721,0.921c-0.488,0.334-0.83,0.809-1.058,1.396
				c-0.076,0.187-0.173,0.361-0.262,0.547c-0.184,0.402-0.468,0.646-0.878,0.635c-0.558-0.015-0.899,0.273-1.104,0.831
				c-0.126,0.346-0.304,0.685-0.635,0.824c-0.42,0.187-0.606,0.58-0.751,1.009c-0.179,0.488-0.206,0.768-0.031,0.719
				c0.272-0.079,0.272-0.348,0.323-0.585c0.076-0.372,0.292-0.576,0.624-0.563c0.921,0.032,1.748-0.265,2.55-0.738
				c0.304-0.175,0.624-0.263,0.819-0.593c0.059-0.091,0.177-0.184,0.265-0.184c0.186-0.011,0.37,0.08,0.536-0.064
				c0.412-0.349,0.811-0.695,1.153-1.176c-0.331,0.112-0.653,0.237-0.987,0.338c-0.254,0.08-0.45-0.065-0.506-0.332
				c-0.128-0.545,0.168-1.345,0.594-1.604c0.208-0.129,0.428-0.143,0.645-0.071c0.293,0.101,0.565,0.088,0.869-0.006
				c0.451-0.142,0.479-0.088,0.467,0.452c-0.016,0.718,0.264,1.095,0.854,1.175c0.604,0.074,0.855-0.137,1.015-0.837
				c0.028-0.15,0-0.322,0.136-0.44c0.579,0.728,0.79,1.422,0.713,2.331c-0.029,0.278-0.134,0.571,0.061,0.829
				c0.038,0.055,0.124,0.099,0.183,0.095c0.06-0.011,0.106-0.079,0.157-0.142c0.021-0.017,0.01-0.071,0.01-0.117
				c0.011-0.867,0.101-1.03,0.82-1.053c0.5-0.014,0.948-0.098,1.366-0.387c0.383-0.255,0.773-0.255,1.184-0.118
				c0.323,0.106,0.642,0.205,0.965,0.301c0.538,0.163,1.073,0.311,1.642,0.298c0.255-0.002,0.509,0.055,0.761,0.116
				c0.196,0.042,0.284,0.284,0.178,0.481c-0.066,0.148-0.187,0.263-0.244,0.413c-0.167,0.434-0.09,0.811,0.263,1.087
				c0.204,0.171,0.44,0.309,0.683,0.404c1.419,0.556,2.875,0.673,4.356,0.386c0.148-0.027,0.285-0.092,0.421-0.146
				c0.451-0.199,0.574-0.441,0.521-0.949c-0.012-0.128-0.053-0.244-0.08-0.361c-0.14-0.624-0.08-1.224,0.088-1.832
				c0.046-0.197,0.057-0.531,0.234-0.507c0.41,0.066,0.517-0.521,0.881-0.441c0.437,0.095,0.955,0.054,1.246,0.441
				c0.56,0.719,1.368,0.782,2.04,1.176c0.188,0.104,0.356,0.061,0.539,0.008c0.858-0.221,1.602-0.019,2.17,0.789
				c0.369,0.521,0.763,1.012,1.141,1.523c0.207,0.27,0.244,0.57,0.185,0.924c-0.137,0.813-0.175,1.612,0.076,2.435
				c0.2,0.602,0.071,1.225-0.339,1.729c-0.106,0.123-0.224,0.228-0.322,0.347c-0.38,0.493-0.45,0.952-0.067,1.449
				c0.321,0.426,0.468,0.915,0.652,1.404c0.254,0.694,0.667,1.287,1.134,1.825c0.228,0.255,0.518,0.288,0.79,0.395
				c0.227,0.093,0.194,0.646,0.559,0.437c0.242-0.136,0.227-0.501,0.352-0.745c0.363-0.687,0.563-1.404,0.604-2.221
				c0.03-0.789,0.399-1.492,0.715-2.191c0.056-0.141,0.302-0.114,0.36,0.047c0.195,0.582,0.477,1.118,0.791,1.629
				c0.272,0.459,0.664,0.629,1.143,0.596c0.27-0.016,0.517-0.063,0.672-0.339c0.421-0.763,1.006-0.763,1.644-0.432
				c0.388,0.202,0.748,0.322,1.16,0.087c0.285-0.161,0.587-0.087,0.877-0.081c0.334,0.005,0.675,0.063,0.998-0.017
				c0.47-0.106,0.839-0.168,1.112,0.435c0.148,0.347,0.47,0.071,0.705,0.013c0.38-0.084,0.44-0.163,0.35-0.585
				c-0.216-0.906-0.155-1.789,0.167-2.636c-0.076-0.061-0.137-0.135-0.204-0.138c-0.273-0.035-0.646,0.138-0.744-0.313
				c-0.107-0.509,0.314-1.105,0.773-1.159c0.292-0.041,0.593-0.014,0.877-0.065c0.479-0.068,0.606-0.279,0.568-0.843
				c-0.011-0.128-0.058-0.248-0.058-0.363c0.009-0.254,0.241-0.467,0.468-0.411c0.106,0.029,0.224,0.046,0.311,0.119
				c0.597,0.506,1.299,0.536,2.015,0.561c0.184,0.005,0.369,0,0.556,0.005c1.416,0.075,2.772,0.422,4.044,1.146
				c0.597,0.345,1.182,0.585,1.902,0.492c0.771-0.102,1.544,0.098,2.249,0.539c0.533,0.327,0.795,0.833,0.908,1.47
				c0.064,0.423-0.103,0.63-0.55,0.697c-0.106,0.019-0.225,0.005-0.32,0.049c-0.109,0.038-0.178,0.153-0.155,0.281
				c0.006,0.076,0.076,0.146,0.123,0.186c0.06,0.047,0.139,0.079,0.205,0.079c0.53-0.008,0.929,0.264,1.273,0.667
				c0.311,0.383,0.672,0.638,1.17,0.536c0.283-0.059,0.499,0.112,0.683,0.339c0.129,0.147,0.257,0.301,0.38,0.439
				c0.345,0.366,0.451,0.752,0.129,1.203c-0.118,0.155-0.059,0.297,0.076,0.41c0.312,0.245,0.645,0.388,1.035,0.218
				c0.889-0.374,1.817-0.363,2.736-0.42c0.702-0.042,1.407-0.106,2.1-0.208c0.715-0.104,1.406,0,2.111,0.09
				c0.73,0.088,1.337,0.445,1.736,1.164c0.216,0.389,0.45,0.76,0.623,1.169c0.236,0.536,0.277,1.11,0.082,1.689
				c-0.082,0.227-0.159,0.459-0.216,0.697c-0.08,0.347,0,0.612,0.294,0.703c0.662,0.213,1.199,0.612,1.709,1.105
				c0.193,0.197,0.447,0.197,0.596-0.008c0.622-0.82,1.473-0.842,2.322-0.899c0.106-0.011,0.225-0.016,0.331-0.05
				c0.276-0.079,0.51,0,0.693,0.25c0.323,0.429,0.725,0.524,1.203,0.391c0.397-0.109,0.816-0.059,1.188,0.156
				c0.714,0.4,1.282,0.215,1.771-0.46c0.183-0.26,0.418-0.456,0.732-0.522c0.096,0.104,0.183,0.211,0.283,0.319
				c0.107,0.557,0.203,1.115,0.313,1.673c0.038,0.211,0.155,0.383,0.339,0.469c0.595,0.287,1.023,0.768,1.357,1.398
				c0.206,0.386,0.629,0.435,0.968,0.153c0.896-0.743,0.941-1.591,0.36-2.722c-0.517-0.369-0.672-0.802-0.232-1.389
				c0.066-0.104,0.012-0.325,0.039-0.48c0.076-0.387,0.254-0.585,0.606-0.596c0.263-0.015,0.517,0.027,0.768,0.081
				c0.255,0.049,0.501,0.146,0.754,0.228c1.397,0.451,2.824,0.568,4.27,0.421c0.645-0.063,1.199,0.084,1.773,0.494
				c0.804,0.576,1.68,1.021,2.541,1.515c0.624,0.36,1.23,0.762,1.709,1.357c0.401,0.506,0.891,0.869,1.426,1.15
				c0.41,0.211,0.733,0.5,0.995,0.943c0.314,0.547,0.839,0.904,1.328,1.262c0.467,0.337,0.93,0.67,1.192,1.255
				c0.108,0.236,0.313,0.348,0.527,0.421c0.256,0.079,0.332,0.284,0.352,0.561c0.012,0.202,0.127,0.298,0.282,0.133
				c0.267-0.262,0.489-0.13,0.675,0.094c0.254,0.304,0.47,0.64,0.705,0.948c0.167,0.214,0.145,0.454,0.167,0.7
				c0.046,0.705,0.225,1.377,0.456,2.027c0.049,0.118,0.156,0.196,0.272,0.126c0.062-0.041,0.11-0.126,0.129-0.196
				c0.11-0.357-0.041-0.63-0.225-0.911c-0.128-0.19-0.011-0.429,0.194-0.429c0.441,0,0.896-0.093,1.271,0.287
				c0.232,0.232,0.516,0.293,0.828,0.199c0.666-0.199,1.15,0.049,1.514,0.697c0.539,0.965,1.316,1.661,2.091,2.374
				c0.304,0.274,0.304,0.375-0.057,0.623c-0.323,0.23-0.607,0.466-0.706,0.907c-0.128,0.594-0.566,0.824-1.025,1.021
				c-0.125,0.06-0.292,0.027-0.429,0.06c-0.46,0.112-0.704,0.324-0.674,0.825c0.019,0.577-0.148,0.942-0.536,1.263
				c-0.257,0.205-0.234,0.492-0.06,0.766c0.125,0.21,0.303,0.476,0.136,0.673c-0.243,0.292-0.467,0.655-0.86,0.743
				c-0.096,0.019-0.222-0.021-0.312-0.071c-0.419-0.261-0.897-0.395-1.208-0.861c-0.228-0.347-0.576-0.503-0.94-0.617
				c-0.801-0.252-1.251-0.851-1.375-1.744c-0.098-0.691-0.439-1.115-1.044-1.296c-0.295-0.096-0.579-0.081-0.863,0.08
				c-0.301,0.189-0.624,0.196-0.968,0.082c-0.289-0.104-0.532-0.243-0.661-0.588c-0.217-0.547-0.702-0.989-0.489-1.702
				c0.038-0.117-0.353-0.329-0.456-0.241c-0.167,0.151-0.333,0.323-0.501,0.481c-0.204,0.18-0.204,0.419-0.106,0.664
				c0.028,0.073,0.066,0.146,0.106,0.213c0.194,0.299,0.41,0.597,0.372,1.003c-0.06,0.506-0.204,0.987-0.527,1.343
				c-0.547,0.609-1.009,1.296-1.738,1.698c-0.352,0.192-0.655,0.348-1.032,0.225c-0.22-0.064-0.439-0.106-0.656-0.139
				c-0.156-0.02-0.284,0.074-0.363,0.229c-0.066,0.166-0.062,0.331,0.02,0.473c0.177,0.357,0.459,0.555,0.811,0.576
				c0.323,0.034,0.451,0.239,0.518,0.541c0.139,0.558,0.272,1.11,0.412,1.665c0.106,0.434,0.194,0.889,0.438,1.263
				c0.175,0.284,0.303,0.555,0.167,0.918c-0.088,0.219,0.118,0.36,0.186,0.543c0.231,0.572-0.058,1.403-0.596,1.638
				c-0.118,0.055-0.296,0.039-0.418-0.017c-0.205-0.079-0.405-0.221-0.588-0.344c-0.687-0.436-1.369-0.383-2.003,0.07
				c-1.348,0.945-2.744,1.796-4.142,2.624c-0.565,0.342-1.044,0.942-1.461,1.503c-0.52,0.668-1.145,1.194-1.769,1.684
				c-0.549,0.433-0.948,0.869-1.153,1.575c-0.099,0.346-0.398,0.39-0.596,0.105c-0.156-0.227-0.281-0.479-0.421-0.728
				c-0.246-0.456-0.623-0.681-1.084-0.762c-0.946-0.161-1.758,0.161-2.46,0.85c-0.167,0.161-0.304,0.371-0.479,0.522
				c-0.216,0.189-0.372,0.647-0.683,0.481c-0.267-0.143,0.01-0.528-0.031-0.805c-0.038-0.278-0.235-0.396-0.489-0.278
				c-0.425,0.208-0.76,0.503-0.956,0.981c-0.088,0.208-0.266,0.325-0.459,0.213c-0.293-0.172-0.574-0.046-0.858-0.024
				c-0.576,0.02-0.939,0.355-0.994,0.948c-0.112,1.044-0.618,1.847-1.115,2.661c-0.333,0.553-0.614,1.129-0.732,1.785
				c-0.05,0.338,0.118,0.504,0.456,0.434c0.15-0.028,0.284-0.107,0.432-0.096c0.573,0.033,0.843,0.531,0.604,1.124
				c-0.058,0.147-0.155,0.281-0.225,0.436c-0.296,0.596-0.322,1.172,0.099,1.715c0.369,0.492,0.402,1.05,0.252,1.635
				c-0.05,0.155-0.146,0.29-0.313,0.312c-0.166,0.023-0.281-0.071-0.349-0.227c-0.088-0.179-0.146-0.372-0.236-0.585
				c-0.227,0.3-0.447,0.568-0.634,0.869c-0.47,0.757-0.694,1.556-0.265,2.44c0.038,0.069,0.071,0.137,0.099,0.213
				c0.311,0.816,0.057,1.328-0.722,1.306c-0.527-0.013-0.919,0.123-1.301,0.528c-0.563,0.602-0.956,1.246-0.751,2.178
				c0.07,0.326-0.059,0.553-0.351,0.672c-0.234,0.107-0.47,0.238-0.686,0.397c-0.448,0.338-0.771,0.789-0.807,1.403
				c-0.102,1.512-1.02,2.425-1.927,3.341c-0.226,0.231-0.497,0.12-0.615-0.22c-0.156-0.464-0.216-0.956-0.205-1.459
				c0.009-0.626-0.03-1.227-0.272-1.813c-0.107-0.251-0.128-0.554-0.177-0.835c-0.08-0.493-0.107-0.995-0.225-1.468
				c-0.372-1.483-0.439-3.015-0.615-4.523c-0.147-1.298,0.068-2.549,0.383-3.787c0.106-0.419,0.327-0.743,0.645-0.973
				c0.612-0.471,0.888-1.085,0.817-1.909c-0.028-0.272,0.078-0.491,0.333-0.557c1.337-0.295,2.138-1.38,2.961-2.448
				c0.224-0.281,0.428-0.573,0.535-0.929c0.216-0.688,0.625-1.224,1.103-1.676c0.664-0.629,1.192-1.363,1.609-2.189
				c0.179-0.35,0.384-0.601,0.706-0.752c0.236-0.108,0.456-0.251,0.692-0.396c0.956-0.578,0.968-0.578,1.213-1.71
				c0.175-0.836,0.331-1.684,0.478-2.527c0.088-0.561,0.313-1.006,0.771-1.28c0.096-0.062,0.186-0.166,0.146-0.3
				c-0.04-0.184-0.186-0.271-0.332-0.269c-0.676,0.031-1.229,0.323-1.533,1.024c-0.244,0.572-0.35,1.16-0.232,1.803
				c0.076,0.409-0.012,0.541-0.391,0.555c-0.41,0.005-0.706,0.178-0.968,0.494c-0.489,0.571-0.99,1.117-1.468,1.697
				c-0.225,0.281-0.457,0.527-0.769,0.686c-0.264,0.131-0.439,0.052-0.488-0.257c-0.022-0.116,0.039-0.289-0.022-0.357
				c-0.584-0.749-0.319-1.53-0.085-2.313c0.009-0.029-0.021-0.082-0.032-0.123c-0.084-0.161-0.243-0.169-0.38-0.176
				c-0.388-0.048-0.554-0.607-0.976-0.528c-0.363,0.067-0.713,0.198-1.074,0.289c-0.186,0.041-0.372,0.041-0.558,0.071
				c-0.623,0.089-1.143,0.45-1.406,1.079c-0.279,0.688-0.763,1.208-1.075,1.872c-0.213,0.479-0.585,0.85-0.984,1.158
				c-0.617,0.474-0.811,1.264-1.171,1.927c-0.091,0.182,0.008,0.41,0.174,0.547c0.209,0.166,0.429,0.307,0.637,0.489
				c0.206,0.188,0.157,0.62-0.09,0.735c-0.409,0.188-0.816,0.433-1.278,0.281c-0.351-0.118-0.673-0.068-0.946,0.16
				c-0.568,0.477-1.279,0.321-1.896,0.6c-0.274,0.121-0.574-0.029-0.802-0.301c-0.155-0.205-0.096-0.488,0.118-0.606
				c0.215-0.12,0.625,0.079,0.625-0.334c0.009-0.401-0.617-0.866-0.982-0.757c-0.318,0.091-0.57,0.088-0.854-0.09
				c-0.114-0.082-0.277-0.115-0.41-0.172c-0.106-0.047-0.205-0.085-0.312-0.143c-0.597-0.306-0.979-0.204-1.23,0.527
				c-0.038,0.113-0.109,0.213-0.158,0.326c-0.136,0.246-0.331,0.36-0.564,0.221c-0.315-0.178-0.615-0.248-0.948-0.046
				c-0.323,0.202-0.654,0.079-0.965-0.045c-0.372-0.138-0.706-0.163-1.007,0.214c-0.205,0.26-0.478,0.206-0.694-0.03
				c-0.314-0.353-0.702-0.402-1.124-0.415c-0.78-0.027-1.551,0.116-2.313,0.26c-0.691,0.129-1.252,0.577-1.647,1.18
				c-0.405,0.606-0.865,1.127-1.351,1.628c-0.167,0.167-0.342,0.352-0.418,0.572c-0.325,0.931-1.02,1.517-1.623,2.173
				c-0.714,0.781-1.397,1.58-1.928,2.542c-0.407,0.735-0.916,1.382-1.552,1.929c-0.672,0.568-1.289,1.232-1.925,1.864
				c-0.272,0.276-0.231,0.585,0.072,0.822c0.187,0.14,0.38,0.259,0.615,0.227c0.186-0.029,0.36-0.078,0.549-0.09
				c0.263-0.017,0.437,0.142,0.467,0.413c0.017,0.199,0.011,0.412,0.017,0.62c0.022,0.219-0.134,0.56,0.156,0.612
				c0.208,0.033,0.178-0.314,0.275-0.473c0.068-0.094,0.147-0.178,0.235-0.254c0.096-0.086,0.342,0,0.379,0.131
				c0.11,0.479,0.118,0.96,0.039,1.503c0.607-0.082,0.898-0.642,1.348-0.874c0.029-0.018,0.049-0.071,0.049-0.106
				c-0.049-0.851,0.489-0.618,0.911-0.618c0.642-0.011,1.157,0.257,1.437,0.945c0.153,0.392,0.398,0.691,0.71,0.924
				c0.451,0.325,0.672,0.697,0.468,1.342c-0.136,0.421-0.027,0.902,0.061,1.344c0.008,0.055,0.105,0.121,0.163,0.135
				c0.061,0.008,0.156-0.026,0.2-0.08c0.194-0.313,0.232-0.686,0.29-1.055c0.049-0.278,0.06-0.57,0.071-0.855
				c0.005-0.465,0.134-0.797,0.601-0.885c0.311-0.061,0.394-0.348,0.345-0.664c-0.039-0.284-0.129-0.561-0.178-0.845
				c-0.027-0.181,0.041-0.316,0.188-0.401c0.145-0.096,0.392,0,0.456,0.205c0.068,0.188,0.146,0.386,0.156,0.584
				c0.032,0.666,0.178,1.308,0.333,1.943c0.167,0.647,0.217,1.317,0.091,1.968c-0.141,0.757-0.012,1.462,0.16,2.186
				c0.436,1.755,0.846,3.507,1.263,5.262c0.022,0.073-0.01,0.166-0.01,0.275c-0.302,0.186-0.555-0.12-0.828-0.133
				c-0.451-0.027-0.74,0.11-0.869,0.576c-0.205,0.752-0.36,1.512-0.512,2.279c-0.076,0.375,0.011,0.749,0.188,1.065
				c0.284,0.489,0.418,1.065,0.813,1.481c0.194,0.214,0.272,0.48,0.272,0.781c0,0.115-0.021,0.284-0.09,0.342
				c-0.155,0.129-0.254-0.033-0.339-0.169c-0.071-0.094-0.12-0.213-0.199-0.289c-0.351-0.352-0.646-0.288-0.896,0.18
				c-0.022,0.033-0.034,0.07-0.049,0.106c-0.118,0.239-0.146,0.58-0.479,0.611c-0.205,0.02-0.361-0.305-0.392-0.789
				c-0.011-0.167,0-0.331,0.019-0.498c0.077-0.775,0.148-1.563,0.274-2.328c0.108-0.584,0.125-1.143-0.069-1.702
				c-0.193-0.521-0.166-1.05-0.037-1.576c0.227-0.925,0.273-1.873,0.178-2.829c-0.022-0.243-0.042-0.495-0.012-0.736
				c0.088-0.805,0.039-1.554-0.439-2.231c-0.167-0.235-0.205-0.577-0.312-0.932c-0.596,0.854-1.058,1.675-1.213,2.674
				c-0.088,0.537-0.146,1.049-0.05,1.589c0.156,0.822,0.128,1.646-0.134,2.443c-0.061,0.188-0.129,0.393-0.14,0.598
				c-0.011,0.884-0.447,1.526-0.929,2.182c-0.688,0.957-1.375,1.927-1.735,3.134c-0.243,0.831-0.763,1.495-1.264,2.165
				c-0.71,0.945-1.423,1.898-2.125,2.858c-0.099,0.123-0.186,0.266-0.243,0.413c-0.372,0.898-1.025,1.491-1.741,2.038
				c-0.929,0.735-1.876,0.899-2.899,0.235c-0.555-0.363-0.585-0.32-1.055,0.14c-0.407,0.406-0.848,0.781-1.261,1.184
				c-0.221,0.218-0.426,0.461-0.626,0.705c-0.312,0.38-0.524,0.792-0.475,1.338c0.057,0.495-0.159,0.84-0.512,1.152
				c-0.645,0.551-1.188,1.218-1.97,1.578c-0.637,0.285-0.721,0.962-0.197,1.504c0.706,0.708,1.115,1.64,1.672,2.45
				c0.419,0.604,0.635,1.299,0.624,2.083c0,0.401,0.057,0.82,0.079,1.225c0.027,0.885-0.246,1.304-0.987,1.729
				c-0.655,0.372-1.376,0.545-2.003,1.014c-0.291,0.216-0.705,0.227-1.065,0.299c-0.24,0.052-0.43-0.153-0.44-0.435
				c-0.005-0.544,0.08-1.085,0.295-1.563c0.285-0.646,0.178-1.188-0.204-1.716c-0.068-0.099-0.145-0.186-0.197-0.293
				c-0.076-0.159-0.076-0.322,0.061-0.451c0.106-0.107,0.246-0.18,0.353-0.285c0.194-0.183,0.225-0.408,0.134-0.664
				c-0.225-0.666-0.467-0.859-1.074-0.838c-0.144,0.002-0.29,0.085-0.438,0.085c-0.534,0.021-0.975-0.668-0.723-1.203
				c0.275-0.563,0.432-1.14,0.489-1.755c0.03-0.278-0.078-0.472-0.331-0.56c-1.467-0.538-2.762-0.229-3.896,0.933
				c-0.273,0.291-0.574,0.519-0.949,0.596c-0.065,0.011-0.155-0.027-0.193-0.077c-0.038-0.051-0.061-0.181-0.032-0.225
				c0.216-0.305,0.374-0.59,0.166-1.005c-0.126-0.238,0.03-0.479,0.155-0.678c0.196-0.304,0.424-0.586,0.597-0.901
				c0.188-0.348,0.112-0.757-0.161-1.001c-0.209-0.193-0.597-0.24-0.824,0.02c-0.692,0.799-1.443,1.52-2.265,2.153
				c-0.06,0.052-0.099,0.12-0.128,0.199c-0.301,0.729-0.828,1.024-1.522,1.011c-0.284-0.005-0.509,0.044-0.635,0.362
				c-0.155,0.365-0.146,0.718,0.099,1.038c0.047,0.063,0.084,0.146,0.146,0.186c0.634,0.391,1.096,0.945,1.446,1.66
				c0.145,0.323,0.595,0.349,0.896,0.121c0.235-0.186,0.451-0.425,0.687-0.628c0.312-0.273,0.652-0.394,1.021-0.161
				c0.473,0.273,0.959,0.426,1.498,0.394c0.312-0.019,0.516,0.229,0.555,0.502c0.037,0.342-0.137,0.703-0.449,0.729
				c-0.379,0.03-0.69,0.27-1.055,0.363c-0.341,0.089-0.645,0.27-0.8,0.61c-0.227,0.473-0.743,0.54-0.986,0.973
				c-0.137,0.24-0.364,0.415-0.52,0.65c-0.536,0.855-0.741,1.162,0.257,1.708c0.419,0.238,0.663,0.643,0.828,1.107
				c0.099,0.268,0.194,0.541,0.255,0.819c0.146,0.752,0.429,1.404,0.89,1.968c0.172,0.213,0.328,0.451,0.456,0.694
				c0.091,0.158,0.038,0.325-0.128,0.396c-0.211,0.093-0.301,0.234-0.146,0.462c0.118,0.16,0.258,0.312,0.346,0.483
				c0.106,0.194,0.106,0.407-0.062,0.555c-0.262,0.219-0.527,0.431-0.771,0.636c-0.012,0.389,0.283,0.402,0.439,0.547
				c0.51,0.471,0.634,0.846,0.429,1.496c-0.146,0.464-0.32,0.915-0.497,1.371c-0.056,0.153-0.127,0.309-0.222,0.422
				c-1.009,1.175-1.673,2.59-2.307,4.035c-0.369,0.845-0.899,1.597-1.61,2.14c-0.033,0.029-0.079,0.029-0.109,0.056
				c-0.565,0.822-1.396,1.312-2.06,1.992c-0.501,0.499-1.017,0.812-1.651,0.921c-0.401,0.068-0.8,0.175-1.202,0.278
				c-0.251,0.063-0.467,0.194-0.661,0.41c-0.247,0.273-0.273,0.246-0.501-0.199c-0.067-0.106-0.183-0.262-0.233-0.17
				c-0.216,0.436-0.801,0.213-0.957,0.741c-0.088,0.301-0.379,0.363-0.635,0.442c-0.574,0.175-1.139,0.336-1.719,0.506
				c-0.217,0.063-0.429,0.142-0.634,0.213c-0.35,0.134-0.585,0.369-0.528,0.825c0.039,0.29,0.106,0.593-0.204,0.749
				c-0.255,0.126-0.568-0.12-0.763-0.563c-0.041-0.109-0.078-0.229-0.117-0.343c-0.079-0.25,0.109-0.644-0.263-0.731
				c-0.41-0.096-0.743-0.426-1.262-0.253c-1.064,0.366-1.971,0.901-2.575,1.98c-0.102,0.17-0.257,0.296-0.391,0.436
				c-0.439,0.398-0.55,0.961-0.646,1.531c-0.038,0.256,0.007,0.501,0.167,0.706c0.768,1.036,1.348,2.274,2.32,3.118
				c0.569,0.486,1.077,1.012,1.457,1.676c0.117,0.21,0.266,0.42,0.333,0.647c0.342,1.31,0.692,2.612,0.45,4.007
				c-0.011,0.043-0.021,0.084-0.031,0.122c-0.048,1.803-0.34,1.662-1.358,2.436c-0.427,0.327-0.878,0.617-1.387,0.751
				c-0.3,0.082-0.585,0.208-0.721,0.522c-0.263,0.585-0.694,0.953-1.162,1.29c-0.128,0.09-0.224,0.213-0.353,0.303
				c-0.227,0.187-0.409,0.594-0.742,0.364c-0.273-0.189-0.197-0.591-0.203-0.913c-0.011-0.204,0.018-0.416,0.027-0.618
				c0-0.462-0.36-0.937-0.789-1.011c-0.05-0.014-0.117,0.08-0.156,0.145c-0.12,0.187-0.237,0.17-0.36,0.017
				c-0.285-0.368-0.501-0.802-0.94-1.015c-0.141-0.073-0.243-0.313-0.296-0.502c-0.231-0.758-0.757-1.197-1.267-1.679
				c-0.244-0.229-0.518-0.321-0.818-0.336c-0.424-0.014-0.705-0.21-0.772-0.705c-0.02-0.116-0.091-0.231-0.146-0.327
				c-0.177-0.258-0.645-0.205-0.762,0.073c-0.033,0.08-0.079,0.152-0.079,0.229c0.011,1.287-0.635,2.356-0.919,3.545
				c-0.076,0.316-0.194,0.629-0.232,0.956c-0.061,0.515,0,0.994,0.547,1.194c0.312,0.107,0.456,0.377,0.555,0.708
				c0.175,0.547,0.402,1.065,0.568,1.612c0.172,0.593,0.495,0.995,1.022,1.217c1.025,0.442,1.76,1.344,2.538,2.147
				c0.361,0.369,0.527,0.894,0.539,1.454c0,0.293,0.011,0.577-0.012,0.87c-0.027,0.759,0.039,1.482,0.58,2.048
				c0.055,0.055,0.076,0.141,0.126,0.208c0.341,0.585,0.497,1.191,0.118,1.843c-0.069,0.133-0.05,0.327-0.228,0.393
				c-0.643-0.686-1.455-1.076-2.187-1.602c-0.635-0.452-1.123-1.011-1.553-1.705c-0.693-1.098-0.994-2.285-1.111-3.574
				c-0.042-0.424-0.129-0.823-0.353-1.158c-0.479-0.732-0.979-1.452-1.484-2.167c-0.13-0.194-0.296-0.375-0.517-0.436
				c-0.151-0.035-0.353-0.019-0.413-0.112c-0.088-0.161-0.118-0.387-0.099-0.587c0.033-0.372,0.11-0.728,0.167-1.096
				c0.076-0.53,0.216-1.042,0.137-1.591c-0.065-0.465,0.147-0.888,0.246-1.328c0.05-0.24-0.022-0.394-0.266-0.43
				c-0.224-0.026-0.363-0.196-0.213-0.412c0.528-0.772,0.391-1.571,0.058-2.34c-0.585-1.357-0.976-2.761-1.044-4.261
				c-0.03-0.469-0.243-0.762-0.577-0.999c-0.243-0.168-0.467-0.211-0.713,0.007c-0.432,0.392-0.872,0.763-1.312,1.148
				c-0.506,0.432-1.238,0.418-1.736-0.035c-0.155-0.14-0.242-0.323-0.216-0.544c0.05-0.314,0.099-0.646,0.179-0.961
				c0.292-1.188,0.076-2.206-0.763-3.029c-0.146-0.137-0.333-0.278-0.323-0.486c0.069-0.719-0.401-0.973-0.818-1.32
				c-0.82-0.696-1.39-1.596-1.484-2.789c-0.038-0.465-0.156-0.884-0.451-1.233c-0.232-0.271-0.574-0.314-0.771,0
				c-0.567,0.952-1.426,1.225-2.352,1.408c-0.509,0.095-0.998,0.205-1.525,0.038c-0.634-0.189-1.397,0.36-1.514,1.076
				c-0.167,0.998-0.636,1.629-1.493,1.963c-0.683,0.259-1.24,0.724-1.649,1.394c-0.569,0.901-1.436,1.424-2.122,2.178
				c-0.076,0.085-0.167,0.172-0.259,0.227c-0.531,0.292-0.697,0.979-1.156,1.317c-0.448,0.33-1.053,0.378-1.396,0.951
				c-0.128,0.213-0.38,0.224-0.584,0.327c-0.548,0.284-0.703,0.591-0.646,1.269c0.065,0.661,0.117,1.322,0.231,1.967
				c0.102,0.551,0.091,1.086-0.114,1.584c-0.353,0.839-0.479,1.729-0.498,2.64c0,0.394-0.071,0.74-0.439,0.912
				c-0.071,0.03-0.155,0.072-0.178,0.137c-0.372,0.924-1.199,1.43-1.659,2.263c-0.099,0.178-0.204,0.346-0.342,0.484
				c-0.352,0.365-0.723,0.371-1.084,0c-0.418-0.42-0.714-0.926-0.896-1.539c-0.307-1.014-0.656-2.015-1.006-3.009
				c-0.079-0.229-0.187-0.467-0.342-0.634c-0.473-0.521-0.694-1.17-0.834-1.855c-0.3-1.517-1.032-2.82-1.669-4.173
				c-0.33-0.7-0.614-1.399-0.646-2.212c-0.006-0.281-0.106-0.56-0.155-0.841c-0.193-1.097-0.388-2.182-0.573-3.28
				c-0.022-0.119-0.042-0.259,0-0.363c0.272-0.789,0.067-1.541-0.121-2.299c-0.084-0.395-0.118-0.8-0.193-1.294
				c-0.301,0.297-0.293,0.649-0.381,0.931c-0.322,1.042-1.503,1.651-2.333,1.121c-0.752-0.465-1.261-1.254-1.777-2.006
				c-0.106-0.15,0.028-0.419,0.214-0.473c0.293-0.076,0.577-0.132,0.86-0.229c0.087-0.033,0.173-0.166,0.194-0.271
				c0.021-0.14-0.107-0.191-0.216-0.208c-0.079-0.006-0.155-0.011-0.225,0c-0.777,0.153-1.374-0.161-1.833-0.863
				c-0.041-0.063-0.102-0.115-0.14-0.187c-0.301-0.494-0.946-0.54-1.158-1.116c-0.205-0.545-0.588-0.949-0.851-1.438
				c-0.246-0.451-0.59-0.599-1.036-0.53c-0.371,0.058-0.732,0.096-1.106,0.147c-0.437,0.065-0.866,0.09-1.316,0.058
				c-0.73-0.047-1.485-0.041-2.198,0.134c-0.751,0.194-1.465,0.106-2.196-0.019c-0.402-0.066-0.802-0.138-1.204-0.212
				c-0.972-0.19-1.962-0.382-2.937-0.59c-0.478-0.096-0.79-0.423-0.956-0.93c-0.106-0.303-0.195-0.624-0.334-0.911
				c-0.213-0.456-0.565-0.561-0.896-0.205c-0.694,0.798-1.574,0.642-2.402,0.57c-0.891-0.087-1.703-0.555-2.392-1.204
				c-0.373-0.354-0.735-0.684-1.202-0.84c-0.393-0.122-0.618-0.432-0.773-0.84c-0.35-0.918-0.945-1.66-1.366-2.538
				c-0.147-0.312-0.341-0.527-0.703-0.473c-0.438,0.065-0.628-0.371-0.88-0.623c-0.321,0-0.321,0.331-0.447,0.505
				c-0.902,1.157-0.907,1.012-0.314,2.484c0.413,1,0.986,1.854,1.7,2.586c0.458,0.476,0.771,0.997,0.732,1.72
				c-0.022,0.262,0.057,0.478,0.204,0.677c0.156,0.212,0.429,0.229,0.568,0.006c0.135-0.194,0.221-0.421,0.361-0.618
				c0.129-0.191,0.439-0.121,0.568,0.093c0.111,0.186,0.134,0.383,0.146,0.588c0.015,0.492,0,0.983-0.061,1.476
				c-0.058,0.517,0.36,1.049,0.801,0.948c0.656-0.15,1.317-0.108,1.973-0.176c0.576-0.054,1.024-0.357,1.413-0.862
				c0.596-0.79,1.251-1.523,1.885-2.269c0.042-0.057,0.151-0.104,0.197-0.076c0.087,0.054,0.205,0.145,0.217,0.24
				c0.027,0.364,0.049,0.741,0.027,1.112c-0.058,0.886,0.321,1.486,0.939,1.968c0.399,0.309,0.839,0.514,1.316,0.637
				c0.597,0.153,1.104,0.448,1.428,1.071c0.106,0.213,0.27,0.393,0.428,0.57c0.51,0.594,0.548,0.787,0.244,1.507
				c-0.106,0.26-0.244,0.514-0.419,0.729c-0.294,0.374-0.568,0.735-0.526,1.296c0.02,0.289-0.217,0.382-0.467,0.406
				c-0.784,0.079-0.99,0.293-1.069,1.059c-0.006,0.163,0.011,0.33,0.033,0.494c0.027,0.334-0.099,0.579-0.394,0.662
				c-0.613,0.171-1.052,0.546-1.269,1.229c-0.079,0.243-0.295,0.38-0.519,0.434c-0.544,0.124-0.936,0.435-1.179,1.012
				c-0.14,0.325-0.413,0.483-0.734,0.472c-0.762-0.029-1.435,0.334-2.137,0.577c-0.44,0.153-0.861,0.407-1.039,0.881
				c-0.243,0.646-0.729,0.926-1.23,1.166c-0.684,0.317-1.385,0.594-2.098,0.809c-0.438,0.138-0.839,0.29-1.143,0.681
				c-0.315,0.399-0.691,0.597-1.17,0.621c-0.207,0.009-0.463,0.085-0.617,0.229c-0.498,0.433-1.075,0.551-1.671,0.624
				c-0.596,0.079-1.14,0.227-1.639,0.664c-0.479,0.426-1.097,0.468-1.693,0.443c-0.689-0.025-1.005-0.318-1.19-1.056
				c-0.134-0.596-0.259-1.196-0.41-1.798c-0.079-0.315-0.156-0.635-0.301-0.924c-0.145-0.309-0.204-0.609-0.117-0.948
				c0.339-1.23-0.193-2.208-0.859-3.031c-0.537-0.654-0.957-1.344-1.23-2.17c-0.293-0.874-0.753-1.606-1.553-2.004
				c-0.684-0.33-1.036-0.898-1.097-1.721c-0.004-0.285-0.122-0.576-0.096-0.855c0.092-0.877-0.273-1.602-0.565-2.361
				c-0.224-0.58-0.547-1.082-1.085-1.357c-0.557-0.287-0.83-0.787-0.967-1.425c-0.096-0.486-0.33-0.904-0.585-1.317
				c-0.606-0.985-1.173-2.008-1.757-3.009c-0.141-0.239-0.258-0.535-0.463-0.675c-0.396-0.281-0.406-0.634-0.33-1.065
				c0.106-0.632,0-1.228-0.187-1.829c-0.207-0.66-0.391-1.336-0.604-1.99c-0.146-0.459-0.166-0.884,0.135-1.275
				c0.333-0.418,0.48-0.923,0.579-1.456c0.183-1.024,0.526-1.977,1.035-2.851c0.495-0.863,0.779-1.754,0.594-2.809
				c-0.115-0.646,0.158-1.302,0.041-1.949c-0.258-0.199-0.531,0.061-0.764-0.063c-0.633-0.314-1.101-0.07-1.59,0.42
				c-0.488,0.489-1.164,0.515-1.786,0.561c-0.315,0.022-0.562-0.21-0.774-0.439c-0.388-0.402-0.839-0.678-1.328-0.881
				c-0.334-0.141-0.565-0.081-0.74,0.299c-0.246,0.547-0.629,0.792-1.145,0.822c-0.264,0.017-0.548-0.011-0.723-0.24
				c-0.53-0.658-1.191-0.771-1.928-0.697c-0.289,0.029-0.417-0.098-0.209-0.412c-0.59-0.435-0.832-1.094-0.968-1.823
				c-0.052-0.27-0.304-0.339-0.479-0.467c-0.54-0.377-0.568-0.538-0.218-1.044c0.478-0.681,0.434-1.146-0.194-1.735
				c-0.312-0.293-0.381-0.46-0.234-0.836c0.138-0.335,0.313-0.651,0.499-0.969c0.106-0.188,0.303-0.292,0.478-0.177
				c0.676,0.426,1.379,0.006,2.062,0.139c0.322,0.063,0.55-0.212,0.781-0.417c0.088-0.08,0.118-0.173,0.137-0.307
				c0.06-0.681,0.06-0.689,0.518-0.7c0.439-0.003,0.89-0.032,1.327,0.104c0.535,0.184,1.009,0.09,1.427-0.371
				c0.237-0.254,0.538-0.432,0.812-0.655c0.585-0.477,1.249-0.692,1.974-0.739c0.369-0.026,0.729-0.032,1.101-0.058
				c0.53-0.029,0.997,0.025,1.458,0.411c0.455,0.389,1.013,0.625,1.521,0.959c0.851,0.577,1.816,0.875,2.871,0.653
				c0.459-0.096,0.957-0.076,1.436-0.054c1.009,0.042,1.643-0.635,2.256-1.37c0.07-0.079,0.138-0.228,0.116-0.33
				c-0.133-0.805-0.202-1.665-0.957-2.124c-0.379-0.238-0.819-0.396-1.131-0.768c-0.099-0.118-0.227-0.252-0.12-0.426
				c0.049-0.089,0.178-0.148,0.276-0.162c0.368-0.055,0.74,0.027,1.085,0.187c0.652,0.292,1.316,0.546,2.041,0.505
				c0.516-0.027,0.926,0.298,1.32,0.604c0.437,0.334,0.866,0.509,1.436,0.424c0.762-0.12,1.482,0.079,1.832,1.01
				c0.096,0.228,0.303,0.363,0.509,0.455c0.565,0.249,1.024,0.648,1.418,1.162c0.271,0.357,0.563,0.333,0.855,0.007
				c0.079-0.092,0.159-0.178,0.22-0.281c0.467-0.915,0.66-0.555,1.071,0.072c0.106,0.172,0.212,0.342,0.292,0.527
				c0.284,0.655,0.646,1.204,1.312,1.415c0.085,0.033,0.172,0.158,0.205,0.264c0.046,0.138-0.071,0.212-0.178,0.226
				c-0.391,0.067-0.565,0.368-0.666,0.743c-0.085,0.322-0.146,0.639-0.214,0.962c-0.061,0.287-0.106,0.58-0.383,0.72
				c-0.368,0.183-0.438,0.516-0.368,0.917c0.057,0.37,0.079,0.743,0.146,1.104c0.088,0.537,0.351,0.943,0.85,1.012
				c0.548,0.083,0.931,0.38,1.317,0.807c0.607,0.7,1.408,0.888,2.255,0.681c0.473-0.124,0.94-0.246,1.408-0.388
				c0.273-0.086,0.622,0.18,0.811-0.205c0.146-0.317-0.049-0.64-0.097-0.957c-0.092-0.568-0.214-1.138-0.159-1.722
				c0.067-0.536,0.148-1.049-0.231-1.509c-0.206-0.256,0.067-0.631-0.097-0.954c-0.14-0.254-0.178-0.483-0.539-0.462
				c-0.332,0.022-0.45-0.188-0.489-0.518c-0.049-0.468,0.078-0.895,0.255-1.37c0.342,0.121,0.693,0.228,1.036,0.334
				c0.214,0.073,0.439,0.087,0.65-0.02c0.354-0.17,0.472-0.558,0.256-0.908c-0.224-0.376-0.478-0.729-0.692-1.116
				c-0.293-0.545-0.742-0.367-1.026-0.074c-0.175,0.181-0.205,0.426-0.251,0.675c-0.021,0.096-0.109,0.243-0.178,0.258
				c-0.178,0.04-0.255-0.141-0.312-0.282c-0.188-0.427-0.266-0.895-0.155-1.331c0.194-0.771,0.026-1.227-0.676-1.52
				c-0.527-0.228-0.921-0.658-0.986-1.378c-0.058-0.505-0.429-0.853-0.732-1.213c-0.158-0.175-0.331-0.325-0.489-0.509
				c-0.126-0.147-0.03-0.456,0.146-0.493c0.107-0.025,0.228-0.042,0.335-0.037c0.243,0.018,0.505,0.223,0.74-0.011
				c0.186-0.177,0.065-0.47,0.125-0.697c0.061-0.229,0.179-0.385,0.372-0.412c0.304-0.038,0.558-0.205,0.82-0.348
				c0.129-0.07,0.312-0.133,0.43-0.082c0.772,0.32,1.645-0.051,2.385,0.405c0.027,0.024,0.076,0.014,0.106,0.017
				c0.222,0.033,0.438-0.252,0.361-0.489c-0.05-0.149-0.107-0.331-0.205-0.421c-0.547-0.519-0.968-1.134-1.26-1.861
				c-0.088-0.222-0.254-0.402-0.383-0.602c-0.339-0.496-0.768-0.789-1.347-0.686c-0.378,0.071-0.733-0.016-1.083-0.159
				c-0.304-0.133-0.596-0.101-0.819,0.167c-0.402,0.498-0.93,0.632-1.474,0.76c-0.424,0.094-0.913,0.104-1.058,0.742
				c-0.049,0.205-0.284,0.253-0.467,0.168c-0.178-0.072-0.344-0.175-0.501-0.275c-0.223-0.156-0.242-0.424-0.057-0.629
				c0.079-0.079,0.186-0.125,0.263-0.213c0.079-0.08,0.166-0.176,0.208-0.276c0.175-0.544-0.392-1.659-0.908-1.778
				c-0.15-0.03-0.306-0.023-0.451-0.015c-0.301,0.003-0.467-0.183-0.596-0.467c-0.099-0.221-0.155-0.514-0.311-0.639
				c-0.577-0.443-0.462-0.979-0.217-1.526c0.178-0.385,0.254-0.748,0.178-1.18c-0.079-0.418,0.045-0.817,0.251-1.173
				c0.126-0.205,0.232-0.419,0.322-0.643c0.323-0.809,0.539-0.839,1.028-0.122c0.106,0.163,0.194,0.353,0.301,0.521
				c0.087,0.141,0.205,0.235,0.372,0.173c0.156-0.055,0.245-0.196,0.224-0.379c-0.019-0.244-0.067-0.486-0.106-0.736
				c-0.038-0.267,0.027-0.489,0.243-0.631c0.292-0.193,0.536-0.443,0.724-0.757c0.123-0.214,0.313-0.355,0.516-0.448
				c0.42-0.191,0.782-0.469,1.075-0.858c0.262-0.35,0.615-0.424,1.003-0.339c0.189,0.042,0.413,0.147,0.538,0.066
				c0.843-0.522,1.574,0.226,2.354,0.24c0.155,0,0.314,0.21,0.45,0.344c0.246,0.244,0.479,0.511,0.725,0.768
				c0.076,0.074,0.184,0.233,0.243,0.219c0.613-0.177,0.929,0.387,1.37,0.645c0.281,0.167,0.585,0.156,0.827-0.101
				c0.558-0.568,1.17-0.825,1.933-0.622c0.167,0.04,0.36-0.056,0.549-0.085c0.467-0.091,0.881-0.036,1.143,0.493
				c0.175,0.381,0.527,0.397,0.85,0.506c0.323,0.121,0.566,0.053,0.807-0.202c0.237-0.251,0.474-0.059,0.724,0.011
				c0.718,0.191,1.233-0.223,1.34-1.04c0.029-0.18-0.028-0.339-0.167-0.419c-0.328-0.188-0.66-0.355-0.995-0.543
				c-0.401-0.232-0.751-0.55-0.918-1.028c-0.193-0.538-0.527-0.729-1.024-0.768c-0.555-0.044-0.597-0.123-0.722-0.732
				c-0.052-0.284-0.071-0.577-0.155-0.844c-0.296-0.877-0.08-1.621,0.417-2.311c0.282-0.385,0.588-0.745,0.705-1.246
				c0.017-0.076,0.039-0.163,0.046-0.245c0.031-0.159,0.069-0.337-0.057-0.463c-0.129-0.122-0.284-0.057-0.412,0.036
				c-0.156,0.106-0.293,0.245-0.438,0.369c-0.52,0.416-1.289,0.416-1.73-0.06c-0.428-0.476-0.691-1.074-0.729-1.758
				c-0.033-0.375,0.328-0.722,0.649-0.642c0.217,0.054,0.413,0.186,0.628,0.267c0.692,0.252,1.17-0.079,1.269-0.877
				c0.018-0.164,0.018-0.333,0-0.497c-0.021-0.331-0.188-0.545-0.467-0.593c-0.228-0.031-0.451-0.017-0.666-0.055
				c-0.614-0.094-0.927-0.401-1.047-1.088c-0.104-0.618-0.085-1.235,0.101-1.836c0.322-1.015,0.623-2.047,1.445-2.726
				c0.027-0.021,0.058-0.054,0.076-0.089c0.93-1.157,0.957-1.996,0.042-3.149c-0.364-0.456-0.607-0.891-0.539-1.547
				c0.038-0.396,0.076-0.713,0.36-0.981c0.168-0.163,0.304-0.358,0.44-0.552c0.471-0.685,0.604-1.403,0.175-2.178
				c-0.099-0.181-0.186-0.366-0.244-0.561c-0.097-0.338-0.097-0.664,0.236-0.858c0.292-0.163,0.304-0.441,0.262-0.737
				c-0.046-0.328-0.117-0.649-0.175-0.973c-0.087-0.53-0.155-1.061-0.038-1.596c0.065-0.287,0.065-0.594-0.079-0.839
				c-0.243-0.402-0.184-0.796-0.021-1.184c0.294-0.692,0.451-1.391,0.227-2.156c-0.099-0.331,0.041-0.648,0.147-0.957
				c0.33-0.918,0.646-1.833,0.594-2.861c-0.027-0.494,0.234-0.824,0.674-0.813c0.802,0.025,1.223-0.472,1.554-1.165
				c0.204-0.452,0.519-0.799,0.877-1.1c0.322-0.271,0.636-0.568,0.939-0.869c0.479-0.467,0.869-0.986,1.063-1.697
				c0.193-0.743,0.645-1.301,1.278-1.62c0.607-0.308,1.086-0.702,1.279-1.453c0.042-0.182,0.197-0.348,0.345-0.466
				c0.439-0.372,0.519-0.874,0.478-1.437c-0.021-0.317-0.155-0.506-0.431-0.648c-0.886-0.462-1.042-0.8-0.703-1.826
				c0.208-0.592,0.217-1.09-0.106-1.628c-0.409-0.7-0.333-1.498-0.242-2.282c0.026-0.213,0.25-0.33,0.438-0.221
				c0.323,0.196,0.635,0.41,0.957,0.622c0.087,0.069,0.154,0.183,0.244,0.249c1.133,0.785,2.186,1.661,3.093,2.761
				c0.374,0.454,0.579,0.358,0.773-0.252c0.106-0.347,0.194-0.71,0.273-1.065c0.038-0.173,0.011-0.353-0.118-0.457
				c-0.606-0.516-0.768-1.287-1.017-2.019c-0.213-0.659-0.622-1.001-1.257-0.922c-0.246,0.03-0.374-0.092-0.364-0.318
				c0.042-0.638-0.136-1.332,0.375-1.862c0.088-0.093,0.088-0.31,0.088-0.467c-0.034-0.667,0.067-1.317,0.134-1.977
				c0.06-0.476,0.033-0.506-0.451-0.596c-0.445-0.088-0.563-0.211-0.438-0.616c0.099-0.313,0.205-0.589,0.121-0.95
				c-0.091-0.434,0.084-0.792,0.418-1.065c0.231-0.196,0.467-0.401,0.683-0.623c0.623-0.631,1.018-1.413,1.192-2.328
				c0.177-0.973,0.398-1.935,0.555-2.91c0.09-0.583,0.322-1.088,0.558-1.61c0.139-0.333,0.393-0.511,0.724-0.404
				c0.614,0.187,1.248,0.15,1.875,0.146c0.383,0,0.721,0.096,1.074,0.256c0.646,0.296,0.927,0.76,1.017,1.577
				c0.167,1.604-0.235,3.031-0.869,4.396c-0.228,0.496-0.217,0.861,0.076,1.234c1.125,1.469,1.153,3.129,0.703,4.874
				c-0.057,0.249-0.077,0.48-0.039,0.733c0.183,1.061,0.205,2.123,0.087,3.199c-0.037,0.323-0.008,0.656-0.027,0.987
				c-0.038,0.609,0.096,1.146,0.506,1.571c0.08,0.091,0.148,0.188,0.225,0.278c0.412,0.456,0.527,1.015,0.273,1.585
				c-0.273,0.624-0.338,1.249-0.321,1.919c0.01,0.421-0.108,0.793-0.34,1.145c-0.43,0.664-0.858,1.339-1.135,2.103
				c-0.079,0.207-0.186,0.357-0.357,0.453c-0.179,0.101-0.296,0.261-0.269,0.492c0.041,0.459-0.255,0.65-0.527,0.863
				c-0.36,0.272-0.721,0.459-1.102,0.056c-0.098-0.094-0.216-0.086-0.273,0.049c-0.07,0.155-0.07,0.328,0.027,0.469
				c0.117,0.186,0.313,0.25,0.489,0.205c0.569-0.128,1.104-0.044,1.644,0.17c0.376,0.146,0.555,0.05,0.649-0.395
				c0.102-0.449,0.333-0.718,0.634-0.964c0.22-0.175,0.414-0.355,0.63-0.527c0.4-0.332,0.682-0.768,0.74-1.325
				c0.06-0.571,0.283-1.022,0.634-1.41c0.678-0.733,0.745-1.579,0.371-2.492c-0.177-0.462-0.322-0.913-0.271-1.432
				c0.05-0.545,0.232-0.933,0.672-1.194c0.828-0.498,1.697-0.802,2.654-0.754c0.044,0.281-0.005,0.644,0.129,0.83
				c0.516,0.687,0.781,1.44,0.773,2.337c0,0.114,0.114,0.213,0.243,0.153c0.333-0.148,0.545-0.446,0.488-0.726
				c-0.129-0.558-0.254-1.103-0.421-1.649c-0.048-0.184-0.196-0.348-0.322-0.477
				C1808.079,1074.22,1807.774,1074.062,1807.44,1073.992z M1808.547,1079.196c-0.06-0.229-0.117-0.459-0.186-0.691
				c-0.03-0.088-0.108-0.121-0.147-0.065c-0.038,0.063-0.05,0.152-0.038,0.224c0.01,0.282,0.175,0.424,0.382,0.528
				c0.135,0.236,0.243,0.506,0.495,0.611c0.166,0.072,0.413,0.129,0.5-0.034c0.155-0.285-0.137-0.282-0.273-0.335
				C1809.042,1079.329,1808.791,1079.275,1808.547,1079.196z M1751.174,1168.927c0.292-0.448,0.292-0.852,0.322-1.234
				c0.006-0.124-0.079-0.235-0.197-0.247c-0.115-0.016-0.194,0.075-0.234,0.197c-0.02,0.076-0.035,0.159-0.03,0.235
				C1751.072,1168.182,1751.113,1168.486,1751.174,1168.927z M1890.52,1063.781c-0.039-0.059-0.058-0.141-0.107-0.173
				c-0.183-0.138-0.36-0.266-0.558-0.383c-0.087-0.056-0.216-0.068-0.27,0.065c-0.022,0.052,0,0.158,0.038,0.214
				c0.167,0.259,0.339,0.519,0.683,0.489C1890.412,1063.985,1890.5,1063.922,1890.52,1063.781z"/><path fill-rule="evenodd" clip-rule="evenodd" fill="#FFFFFF" d="M1861.026,1224.47c-0.612-0.196-1.082-0.09-1.561,0.175
				c-0.432,0.246-0.538,0.196-0.823-0.26c-0.205-0.33-0.418-0.543-0.79-0.593c-0.215-0.024-0.42-0.12-0.622-0.212
				c-0.295-0.124-0.565-0.124-0.871-0.02c-0.313,0.111-0.643,0.175-0.969,0.242c-0.183,0.039-0.379,0.017-0.496-0.169
				c-0.282-0.427-0.672-0.468-1.094-0.442c-0.145,0.01-0.293-0.014-0.44-0.036c-0.273-0.044-0.486-0.202-0.584-0.5
				c-0.135-0.423-0.313-0.848-0.372-1.287c-0.09-0.73-0.323-1.315-0.801-1.851c-0.653-0.732-0.763-2.487-0.292-3.372
				c0.262-0.506,0.486-0.593,0.997-0.418c0.205,0.07,0.418,0.158,0.634,0.196c0.623,0.115,0.851,0.333,1.162-0.672
				c0.234-0.737,0.713-1.138,1.407-1.205c0.546-0.066,0.956-0.356,1.268-0.863c0.167-0.268,0.439-0.471,0.586-0.746
				c0.411-0.763,1.045-1.139,1.778-1.345c0.224-0.067,0.391-0.159,0.547-0.358c0.38-0.506,0.812-0.959,1.101-1.531
				c0.129-0.248,0.322-0.459,0.512-0.658c0.225-0.243,0.557-0.293,0.818-0.111c0.156,0.098,0.352,0.203,0.438,0.366
				c0.47,0.869,1.24,1.258,2.003,1.694c0.061,0.035,0.118,0.087,0.167,0.148c0.117,0.146,0.129,0.321-0.012,0.431
				c-0.371,0.314-0.877,0.438-1.032,1.033c-0.031,0.104-0.257,0.153-0.392,0.191c-0.254,0.084-0.383,0.239-0.36,0.538
				c0.027,0.355-0.43,0.457-0.352,0.854c0.057,0.337,0.25,0.591,0.406,0.875c0.061,0.102,0.14,0.205,0.156,0.32
				c0.079,0.8,0.51,1.331,1.047,1.801c0.087,0.07,0.155,0.188,0.178,0.304c0.016,0.104-0.022,0.254-0.079,0.324
				c-0.066,0.088-0.194,0.141-0.293,0.141c-0.842-0.015-1.182,0.57-1.31,1.382c-0.137,0.845-0.467,1.556-1.133,2.043
				c-0.285,0.21-0.361,0.491-0.264,0.859c0.061,0.189,0.128,0.432,0.061,0.597C1861.098,1222.98,1861.019,1223.667,1861.026,1224.47
				z"/><path fill-rule="evenodd" clip-rule="evenodd" fill="#FFFFFF" d="M1846.829,1222.289c-0.038-0.459-0.462-0.481-0.673-0.737
				c-0.079-0.099-0.101-0.225-0.04-0.343c0.234-0.396,0.842-0.456,1.047-0.079c0.239,0.456,0.396,0.962,0.768,1.345
				c0.216,0.228,0.117,0.514-0.232,0.612c-0.304,0.096-0.429,0.269-0.509,0.572c-0.178,0.688-0.167,1.387-0.178,2.087
				c-0.005,1.703-0.026,1.451-1.445,1.53c-0.317,0.024-0.574-0.074-0.801-0.316c-0.649-0.738-1.396-1.346-2.148-1.949
				c-0.117-0.101-0.251-0.2-0.332-0.33c-0.446-0.771-1.075-1.364-1.618-2.034c-0.274-0.344-0.479-0.71-0.615-1.156
				c-0.322-1.017-0.743-1.986-1.476-2.725c-0.486-0.497-0.771-1.098-0.976-1.762c-0.243-0.773-0.635-1.405-1.317-1.744
				c-0.257-0.126-0.402-0.354-0.539-0.601c-0.401-0.71-0.857-1.314-1.513-1.776c-0.498-0.346-0.881-0.878-1.299-1.342
				c-0.189-0.208-0.304-0.468-0.345-0.766c-0.038-0.309,0.217-0.658,0.451-0.529c0.79,0.406,1.641,0.467,2.48,0.56
				c0.351,0.032,0.607,0.301,0.791,0.623c0.479,0.866,1.123,1.514,1.935,2c0.284,0.172,0.558,0.427,0.741,0.726
				c0.451,0.721,1.102,1.067,1.816,1.319c0.285,0.095,0.585,0.09,0.686,0.497c0.039,0.175,0.233,0.158,0.359,0.243
				c0.526,0.325,1.081,0.642,1.338,1.306c0.066,0.164,0.168,0.26,0.323,0.307c0.451,0.12,0.577,0.459,0.5,0.935
				c-0.011,0.042-0.021,0.084-0.033,0.123c-0.224,0.792-0.016,1.09,0.618,1.298c0.273,0.084,0.448,0.281,0.556,0.561
				c0.03,0.078,0.057,0.158,0.089,0.229C1845.551,1221.727,1846.007,1222.25,1846.829,1222.289z"/><path fill-rule="evenodd" clip-rule="evenodd" fill="#FFFFFF" d="M1836.458,1009.801c0.292-0.246,0.213-0.487,0.292-0.665
				c0.183-0.47,0.646-0.633,1.006-0.326c0.193,0.171,0.372,0.397,0.517,0.625c0.462,0.776,0.697,1.629,0.714,2.558
				c0.012,0.155-0.027,0.329-0.088,0.47c-0.273,0.646-0.353,1.334-0.33,2.051c0.008,0.471-0.049,0.92-0.607,0.997
				c-0.117,0.017-0.147,0.184-0.088,0.303c0.061,0.147,0.156,0.271,0.225,0.417c0.126,0.254,0.265,0.501,0.342,0.771
				c0.401,1.355-0.555,2.624-1.826,2.419c-0.292-0.051-0.626-0.104-0.842-0.284c-0.712-0.606-1.529-1.003-2.276-1.539
				c-0.122-0.087-0.273-0.168-0.35-0.289c-0.193-0.312-0.391-0.316-0.652-0.106c-0.217,0.164-0.438,0.109-0.589-0.109
				c-0.455-0.691-0.968-1.329-0.945-2.303c0.012-0.793-0.216-0.998-0.9-1.15c-0.146-0.031-0.301-0.007-0.438-0.056
				c-0.196-0.046-0.341-0.481-0.196-0.608c0.59-0.521,0.833-1.359,1.429-1.865c0.194-0.167,0.289-0.377,0.235-0.645
				c-0.14-0.609,0.125-1.061,0.505-1.408c0.577-0.514,1.173-1.021,1.992-0.852c0.422,0.084,0.791-0.129,1.174-0.309
				c0.8-0.397,1.357-0.104,1.563,0.838C1836.39,1009.044,1836.397,1009.366,1836.458,1009.801z"/><path fill-rule="evenodd" clip-rule="evenodd" fill="#FFFFFF" d="M1884.25,1222.104c-0.283-0.159-0.557,0.054-0.83,0.067
				c-0.583,0.022-1.112-0.046-1.446-0.681c-0.166-0.306-0.407-0.465-0.729-0.47c-0.273-0.011-0.5-0.128-0.683-0.366
				c-0.156-0.205-0.129-0.496,0.106-0.605c0.538-0.264,1.084-0.512,1.629-0.768c0.246-0.118,0.51-0.16,0.762-0.11
				c0.629,0.12,1.184,0.471,1.747,0.76c0.278,0.14,0.362,0.511,0.385,0.851c0,0.242-0.052,0.491-0.052,0.733
				c-0.012,0.259,0.052,0.542,0.234,0.676c0.391,0.281,0.618,0.699,0.892,1.091c0.243,0.336,0.577,0.35,0.866,0.044
				c0.197-0.189,0.364-0.417,0.538-0.629c0.293-0.366,0.568-0.76,1.056-0.863c0.225-0.05,0.382-0.238,0.518-0.44
				c0.457-0.68,1.015-0.738,1.648-0.314c0.254,0.162,0.558,0.234,0.824,0.399c0.584,0.371,1.18,0.664,1.874,0.647
				c0.145-0.008,0.29,0.07,0.429,0.125c0.264,0.102,0.451,0.277,0.457,0.624c0.009,0.16,0.049,0.327,0.049,0.492
				c0.049,2.304,0.078,4.612,0.128,6.92c0.011,0.494,0.06,0.986,0.079,1.478c0.009,0.164-0.011,0.334-0.177,0.415
				c-0.157,0.077-0.292,0.018-0.408-0.096c-0.256-0.229-0.509-0.479-0.745-0.74c-0.281-0.314-0.604-0.437-1.003-0.331
				c-0.471,0.118-0.949,0.208-1.428,0.296c-0.175,0.027-0.363,0.011-0.546-0.004c-0.234-0.022-0.36-0.292-0.296-0.558
				c0.118-0.46,0.383-0.808,0.752-1.021c0.295-0.169,0.307-0.388,0.265-0.705c-0.193-1.421-0.781-2.468-2.106-2.85
				c-0.822-0.238-1.597-0.64-2.443-0.825c-0.587-0.132-1.135-0.565-1.678-0.905c-0.273-0.161-0.479-0.145-0.694,0.086
				c-0.106,0.113-0.246,0.199-0.374,0.254c-0.195,0.076-0.407,0.005-0.484-0.189c-0.205-0.585-0.479-1.107-0.95-1.486
				c-0.123-0.096-0.068-0.363,0.079-0.399c0.499-0.126,1.006-0.243,1.511-0.366C1884.116,1222.316,1884.23,1222.3,1884.25,1222.104z
				"/><path fill-rule="evenodd" clip-rule="evenodd" fill="#FFFFFF" d="M1892.427,1045.14c-0.029,0.029-0.07,0.041-0.09,0.071
				c-0.225,0.346-0.217,1-0.751,0.931c-0.616-0.079-1.303-0.199-1.572-0.953c-0.187-0.484-0.421-0.855-0.812-1.132
				c-0.399-0.284-0.576-0.737-0.675-1.24c-0.027-0.164-0.049-0.354,0.079-0.462c0.322-0.281,0.322-0.612,0.196-0.995
				c-0.186-0.544-0.078-1.07,0.225-1.509c0.166-0.242,0.166-0.423,0.096-0.678c-0.076-0.251-0.047-0.526,0.178-0.647
				c0.478-0.265,0.839-0.669,1.219-1.063c0.098-0.106,0.242-0.183,0.371-0.248c0.194-0.104,0.383-0.06,0.501,0.129
				c0.517,0.86,1.181,1.557,1.885,2.229c0.184,0.181,0.155,0.447,0.214,0.684c0.038,0.123,0.146,0.208,0.253,0.145
				c0.091-0.041,0.205-0.164,0.205-0.248c0.01-0.37-0.029-0.741-0.029-1.112c-0.009-0.866,0.147-1.083,0.91-1.271
				c0.205-0.054,0.36-0.014,0.495,0.151c0.227,0.273,0.462,0.535,0.686,0.813c0.292,0.366,0.626,0.585,1.074,0.418
				c0.565-0.21,0.983-0.038,1.378,0.468c0.283,0.36,0.683,0.617,1.024,0.923c0.177,0.147,0.36,0.302,0.515,0.481
				c0.141,0.159,0.197,0.38-0.025,0.512c-0.462,0.245-0.635,0.611-0.606,1.186c0.038,0.543-0.296,0.911-0.634,1.243
				c-0.323,0.299-0.668,0.307-1.047,0.178c-0.313-0.106-0.389,0.071-0.34,0.396c0.039,0.245-0.109,0.394-0.316,0.419
				c-0.317,0.023-0.651-0.012-0.962,0.16c-0.189,0.104-0.372-0.032-0.501-0.175c-0.391-0.459-0.819-0.304-1.229-0.087
				c-0.263,0.125-0.506,0.333-0.773,0.489C1893.039,1045.641,1892.981,1045.623,1892.427,1045.14z M1895.759,1039.136
				c-0.083,0.016-0.13,0.067-0.102,0.158c0.058,0.275,0.155,0.527,0.401,0.655c0.027,0.017,0.077,0.017,0.107,0.009
				c0.021-0.018,0.06-0.055,0.06-0.088C1896.203,1039.608,1895.941,1039.192,1895.759,1039.136z M1895.893,1042.052
				c-0.05,0.448,0.038,0.772,0.205,1.071c0.019,0.024,0.068,0.041,0.098,0.035c0.03-0.011,0.08-0.05,0.08-0.074
				C1896.265,1042.721,1896.195,1042.391,1895.893,1042.052z"/><path fill-rule="evenodd" clip-rule="evenodd" fill="#FFFFFF" d="M1885.707,1164.181c0.021-0.036,0.038-0.071,0.057-0.107
				c0.071-0.142,0.167-0.289,0.088-0.453c-0.076-0.167-0.232-0.159-0.38-0.123c-0.459,0.123-0.927,0.226-1.377,0.386
				c-0.558,0.188-1.164,0.227-1.608,0.718c-0.141,0.137-0.335,0.123-0.523,0.121c-0.365-0.012-0.729-0.006-1.102-0.012
				c-0.027-0.025-0.058-0.055-0.088-0.079c-0.084-0.295-0.105-0.585,0.179-0.768c0.749-0.465,1.416-1.041,2.011-1.735
				c0.264-0.325,0.604-0.459,0.998-0.451c0.593,0.015,1.178-0.052,1.758-0.21c0.36-0.099,0.721-0.091,1.09,0.035
				c0.472,0.152,0.713,0,0.833-0.52c0.096-0.459,0.283-0.839,0.563-1.178c0.227-0.281,0.344-0.629,0.431-0.986
				c0.047-0.191,0.156-0.375,0.273-0.529c0.059-0.075,0.197-0.121,0.293-0.102c0.126,0.021,0.147,0.163,0.109,0.289
				c-0.022,0.079-0.061,0.155-0.09,0.224c-0.061,0.156-0.115,0.334-0.011,0.465c0.177,0.214,0.332,0.014,0.5-0.06
				c0.729-0.348,1.229-0.992,1.776-1.615c0.704-0.807,1.055-1.76,1.396-2.763c0.087-0.271,0.167-0.563,0.076-0.848
				c-0.263-0.853,0.071-1.604,0.306-2.367c0.118-0.373,0.225-0.388,0.692-0.278c0.292,0.068,0.292,0.068,0.275-0.35
				c-0.012-0.132-0.033-0.26,0.067-0.345c0.126-0.108,0.271-0.079,0.41-0.017c0.236,0.113,0.332,0.334,0.342,0.591
				c0.011,0.602,0.205,1.121,0.448,1.64c0.096,0.225,0.156,0.462,0.235,0.699c0.205,0.613,0.205,1.211-0.128,1.771
				c-0.312,0.544-0.399,1.246-0.936,1.65c-0.198,0.135-0.246,0.44-0.189,0.678c0.206,0.852,0.034,1.623-0.32,2.378
				c-0.135,0.295-0.173,0.64-0.086,0.973c0.145,0.591-0.119,1.038-0.421,1.468c-0.295,0.406-0.429,0.434-0.939,0.207
				c-0.407-0.191-0.43-0.186-0.691,0.271c-0.099,0.169-0.217,0.508-0.345,0.382c-0.456-0.472-0.722,0.047-1.074,0.159
				c-0.429,0.137-0.878,0.12-1.317,0.008c-0.166-0.041-0.349-0.254-0.506-0.061c-0.068,0.088,0,0.317-0.029,0.474
				c-0.021,0.106-0.088,0.246-0.167,0.298c-0.332,0.229-0.505,0.601-0.731,0.924c-0.37,0.506-0.854,0.476-1.203-0.056
				c-0.087-0.133-0.166-0.284-0.213-0.434C1886.313,1164.117,1886.008,1164.161,1885.707,1164.181L1885.707,1164.181z"/><path fill-rule="evenodd" clip-rule="evenodd" fill="#FFFFFF" d="M1832.814,997.21c0.331-0.007,0.548,0.214,0.726,0.486
				c0.36,0.586,0.595,1.235,0.768,1.911c0.197,0.745,0.558,1.336,1.145,1.771c0.085,0.065,0.186,0.125,0.262,0.216
				c0.108,0.114,0.217,0.228,0.296,0.361c0.251,0.502,0.251,0.991-0.257,1.251c-0.096,0.061-0.194,0.126-0.292,0.173
				c-0.312,0.145-0.44,0.434-0.419,0.789c0.011,0.326,0.058,0.65,0.127,0.973c0.051,0.284,0.146,0.552,0.207,0.831
				c0.133,0.745-0.14,1.173-0.813,1.325c-0.078,0.017-0.146,0.03-0.224,0.022c-0.898-0.063-1.645,0.396-2.375,0.901
				c-0.345,0.246-0.683,0.49-1.017,0.747c-0.352,0.262-0.691,0.239-1.035-0.015c-0.468-0.335-0.929-0.677-1.375-1.037
				c-0.147-0.113-0.303-0.266-0.372-0.438c-0.116-0.313-0.295-0.538-0.546-0.735c-0.323-0.262-0.345-0.467-0.178-0.853
				c0.246-0.519,0.519-1.041,1.047-1.225c0.779-0.265,0.79-0.993,0.88-1.674c0.016-0.146-0.041-0.375-0.128-0.444
				c-0.597-0.448-0.381-0.977-0.197-1.53c0.304-0.87,0.773-1.485,1.631-1.658c0.451-0.096,0.839-0.345,1.202-0.632
				c0.301-0.251,0.545-0.505,0.422-1.03C1832.238,997.424,1832.523,997.21,1832.814,997.21z"/><path fill-rule="evenodd" clip-rule="evenodd" fill="#FFFFFF" d="M1842.875,1016.601c0.115-0.039,0.155-0.039,0.178-0.063
				c0.172-0.158,0.123-0.547,0.365-0.577c0.236-0.023,0.501,0.087,0.747,0.176c0.084,0.035,0.21,0.15,0.222,0.243
				c0.067,0.681,0.724,1,0.811,1.675c0.041,0.331,0.322,0.536,0.574,0.728c0.44,0.333,0.59,0.816,0.59,1.388
				c0,0.735,0.065,1.487-0.354,2.144c-0.155,0.236-0.302,0.467-0.563,0.558c-0.85,0.27-1.691,0.557-2.541,0.821
				c-0.134,0.038-0.301,0.053-0.44,0.012c-0.439-0.138-0.878,0.026-1.317,0.016c-0.401-0.016-0.713,0.164-0.945,0.52
				c-0.323,0.481-0.792,0.747-1.213,1.079c-0.391,0.321-0.79,0.124-0.936-0.399c-0.117-0.422-0.079-0.839,0.085-1.21
				c0.55-1.224,0.755-2.568,1.195-3.831c0.272-0.798,0.486-1.594,0.702-2.41c0.221-0.854,0.655-1.648,0.993-2.471
				c0.089-0.194,0.225-0.188,0.351-0.047c0.117,0.134,0.216,0.238,0.295-0.033c0.011-0.035,0.011-0.079,0.019-0.114
				c0.175-0.59,0.332-0.765,0.616-0.691c0.451,0.118,0.838,0.588,0.822,1.027c-0.022,0.249-0.088,0.489-0.129,0.731
				C1842.962,1016.101,1842.912,1016.332,1842.875,1016.601z"/><path fill-rule="evenodd" clip-rule="evenodd" fill="#FFFFFF" d="M1869.65,1220.48c-0.186,0.262-0.383,0.505-0.655,0.657
				c-0.259,0.148-0.576,0.182-0.778,0.457c0.019,0.374,0.3,0.55,0.478,0.809c0.263,0.392,0.524,0.774,0.498,1.323
				c-0.02,0.495,0.345,0.822,0.634,1.111c0.489,0.496,0.451,1.094,0.35,1.714c-0.027,0.208-0.16,0.362-0.357,0.421
				c-0.205,0.079-0.361-0.038-0.489-0.195c-0.099-0.11-0.217-0.244-0.244-0.395c-0.099-0.395-0.311-0.514-0.655-0.514
				c-0.251,0-0.418-0.181-0.468-0.443c-0.079-0.459-0.246-0.852-0.507-1.212c-0.233-0.304-0.179-0.706-0.244-1.062
				c-0.022-0.128-0.079-0.24-0.205-0.263c-0.166-0.029-0.284,0.061-0.374,0.197c-0.134,0.229-0.076,0.481-0.066,0.729
				c0.05,0.864,0.061,1.73-0.039,2.592c-0.067,0.526-0.262,0.734-0.711,0.718c-0.49-0.024-0.736-0.33-0.684-0.886
				c0.027-0.409,0.099-0.814,0.114-1.225c0.029-0.476-0.065-0.844-0.457-1.174c-0.47-0.388-0.538-0.84-0.265-1.419
				c0.265-0.55,0.371-1.15,0.539-1.729c0.251-0.895,0.595-1.75,0.702-2.695c0.016-0.145,0.095-0.347,0.205-0.42
				c0.623-0.401,1.161-1.045,2.002-0.81c0.79,0.213,1.591,0.347,2.408,0.404c0.629,0.041,1.164-0.087,1.604-0.634
				c0.147-0.178,0.341-0.309,0.537-0.426c0.077-0.042,0.233-0.01,0.302,0.054c0.077,0.066,0.139,0.222,0.128,0.317
				c-0.106,0.76-0.896,1.615-1.582,1.699c-0.292,0.042-0.595,0.055-0.876-0.016c-1.146-0.301-2.289-0.125-3.422-0.071
				c-0.662,0.03-1.085,0.861-0.808,1.527c0.162,0.386,0.468,0.629,0.79,0.842c0.134,0.087,0.301,0.053,0.419-0.054
				c0.75-0.717,1.74-0.591,2.596-0.943c0.03-0.014,0.079-0.002,0.106,0c0.161,0.035,0.296,0.119,0.318,0.292
				c0.01,0.104-0.062,0.255-0.141,0.303c-0.183,0.124-0.399,0.202-0.607,0.299C1869.72,1220.403,1869.682,1220.446,1869.65,1220.48z
				"/><path fill-rule="evenodd" clip-rule="evenodd" fill="#FFFFFF" d="M1900.131,1144.817c0.038,0.065,0.106,0.137,0.099,0.2
				c-0.071,0.565-0.031,1.061,0.475,1.391c0.147,0.096,0.099,0.3-0.016,0.418c-0.342,0.348-0.752,0.585-1.202,0.58
				c-0.935-0.02-1.419,0.558-1.73,1.435c-0.038,0.118-0.084,0.236-0.145,0.327c-0.106,0.148-0.258,0.191-0.401,0.112
				c-0.399-0.214-0.79-0.432-1.189-0.659c-0.375-0.221-0.752-0.326-1.175-0.158c-0.066,0.028-0.146,0.028-0.216,0.058
				c-0.251,0.109-0.64-0.271-0.758,0.187c-0.09,0.324,0.301,0.409,0.457,0.62c0.146,0.191,0.117,0.372-0.079,0.509
				c-0.173,0.137-0.371,0.267-0.555,0.396c-0.361,0.238-0.559,0.151-0.635-0.29c-0.01-0.082-0.021-0.161-0.021-0.242
				c-0.008-0.454-0.289-0.864-0.184-1.332c0.126-0.568,0.615-0.916,0.75-1.494c0.04-0.153,0.234-0.219,0.385-0.186
				c0.592,0.164,0.807-0.184,0.877-0.769c0.019-0.196,0.117-0.39,0.176-0.582c0.215-0.716,0.36-1.426,0.204-2.184
				c-0.038-0.159-0.038-0.322-0.029-0.489c0.019-0.369,0.379-0.576,0.652-0.369c0.12,0.091,0.237,0.194,0.333,0.322
				c0.151,0.184,0.266,0.396,0.402,0.588c0.565,0.79,1.229,1.398,2.102,1.758c0.419,0.175,0.76,0.287,1.118-0.078
				C1899.906,1144.804,1900.013,1144.749,1900.131,1144.817z"/><path fill-rule="evenodd" clip-rule="evenodd" fill="#FFFFFF" d="M1846.33,1228.757c0.293-0.415,0.487-0.706,0.692-0.999
				c0.141-0.199,0.334-0.309,0.58-0.312c1.082-0.027,2.119,0.16,2.977,0.989c0.272,0.254,0.576,0.363,0.917,0.363
				c0.334,0,0.662,0.016,0.995,0.016c0.227,0,0.468-0.008,0.623-0.199c0.334-0.401,0.687-0.406,1.108-0.189
				c0.262,0.138,0.572,0.144,0.857,0.244c0.5,0.178,0.999,0.273,1.521,0.178c0.323-0.054,0.666-0.079,0.978,0.093
				c0.059,0.033,0.118,0.128,0.118,0.188c0,0.074-0.049,0.158-0.099,0.208c-0.272,0.259-0.634,0.18-0.945,0.271
				c-0.052,0.022-0.106,0.123-0.101,0.181c0,0.065,0.06,0.153,0.12,0.18c0.097,0.056,0.214,0.104,0.313,0.087
				c0.973-0.166,1.747,0.592,2.676,0.676c0.184,0.016,0.313,0.213,0.313,0.445c0,0.184-0.102,0.306-0.225,0.413
				c-0.128,0.106-0.276,0.134-0.409,0.038c-0.273-0.183-0.531-0.216-0.842-0.057c-0.323,0.16-0.657-0.006-0.968-0.109
				c-0.43-0.143-0.858-0.176-1.316-0.176c-0.774,0-1.542-0.117-2.315-0.207c-0.44-0.061-0.861-0.241-1.23-0.518
				c-0.5-0.362-1.026-0.488-1.591-0.341c-0.527,0.128-1.027,0.077-1.534-0.108c-0.313-0.11-0.646-0.17-0.979-0.23
				c-0.251-0.041-0.544-0.073-0.711-0.287C1847.479,1229.14,1846.996,1228.981,1846.33,1228.757z"/><path fill-rule="evenodd" clip-rule="evenodd" fill="#FFFFFF" d="M1867.26,1198.128c-0.694-1.017-1.301-2.083-1.543-3.356
				c-0.047-0.243-0.047-0.511,0.193-0.631c0.334-0.166,0.398-0.459,0.409-0.807c0.03-0.45,0.062-0.901,0.091-1.35
				c0.017-0.246,0.01-0.5,0.058-0.729c0.137-0.687,0.409-0.899,1.027-0.812c0.36,0.054,0.71,0.202,1.091,0.15
				c0.295-0.039,0.409,0.116,0.371,0.441c-0.058,0.46-0.099,0.892,0.117,1.321c0.345,0.683,0.049,1.27-0.263,1.833
				c-0.075,0.14-0.226,0.225-0.321,0.345c-0.44,0.519-0.607,1.112-0.361,1.81c0.095,0.265,0.167,0.54,0.284,0.797
				c0.055,0.16,0.211,0.275,0.361,0.146c0.444-0.405,0.839-0.347,1.29,0.022c0.407,0.338,0.906,0.284,1.396,0.175
				c0.157-0.039,0.29,0.042,0.317,0.242c0.033,0.172-0.054,0.306-0.211,0.372c-0.07,0.03-0.149,0.038-0.219,0.055
				c-0.231,0.055-0.291,0.213-0.193,0.448c0.102,0.216,0.246,0.418,0.295,0.649c0.069,0.313-0.079,0.468-0.371,0.399l-0.068-0.064
				c-0.109-0.104-0.205-0.278-0.322-0.304c-0.351-0.055-0.801,0.065-0.576-0.624c-0.214-0.215-0.293-0.868-0.771-0.305
				c-0.041,0.046-0.228,0-0.281-0.067c-0.425-0.472-0.863-0.521-1.381-0.199c-0.106,0.074-0.283,0.024-0.428,0.042H1867.26z"/><path fill-rule="evenodd" clip-rule="evenodd" fill="#FFFFFF" d="M1871.348,1207.945c0-0.13,0.012-0.247,0-0.372
				c-0.015-0.242-0.281-0.492-0.467-0.41c-0.448,0.207-0.899,0.316-1.396,0.324c-0.271,0-0.333,0.413-0.538,0.577
				c-0.096,0.079-0.21,0.104-0.301,0.016c-0.05-0.051-0.087-0.142-0.099-0.212c-0.008-0.436,0.077-0.878,0.372-1.134
				c0.45-0.402,0.979-0.73,1.483-1.051c0.214-0.136,0.452-0.027,0.607,0.173c0.225,0.304,0.418,0.187,0.672,0.022
				c0.401-0.269,0.741-0.668,1.22-0.823c0.294-0.085,0.283-0.437,0.362-0.719c0.061-0.227,0.255-0.292,0.421-0.143
				c0.44,0.386,0.839,0.79,0.851,1.503c0.008,0.449,0.163,0.892,0.235,1.331c0.076,0.421,0.084,0.831-0.109,1.209
				c-0.096,0.175-0.197,0.411-0.343,0.456c-0.221,0.07-0.221-0.244-0.321-0.402c-0.077-0.147-0.194-0.289-0.34-0.16
				c-0.109,0.089-0.216,0.274-0.205,0.41c0.017,0.321,0.134,0.639,0.162,0.961c0.032,0.38-0.241,0.615-0.563,0.52
				c-0.178-0.053-0.35-0.132-0.528-0.186C1871.566,1209.515,1871.299,1209.084,1871.348,1207.945z"/><path fill-rule="evenodd" clip-rule="evenodd" fill="#FFFFFF" d="M1905.91,1046.012c-0.839-0.059-1.541-0.525-2.243-0.968
				c-0.196-0.126-0.354-0.329-0.549-0.427c-0.44-0.221-0.691-0.549-0.801-1.096c-0.118-0.563-0.399-1.052-0.702-1.533
				c-0.1-0.167-0.205-0.348-0.179-0.56c0.022-0.14,0.168-0.246,0.228-0.175c0.637,0.701,1.443,0.71,2.255,0.78
				c0.224,0.02,0.43,0.135,0.558,0.356c0.126,0.224,0.303,0.363,0.546,0.349c0.938-0.043,1.689,0.527,2.475,0.979
				c0.183,0.101,0.242,0.275,0.25,0.494c0.05,1.036-0.585,1.533-1.396,1.771C1906.214,1046.021,1906.059,1046.009,1905.91,1046.012z
				"/><path fill-rule="evenodd" clip-rule="evenodd" fill="#FFFFFF" d="M1947.719,1062.46c1.008-0.101,1.581,0.339,2.142,0.938
				c0.641,0.684,0.641,1.243-0.284,1.623c-0.724,0.281-1.439,0.667-2.246,0.351c-0.245-0.09-0.511,0.017-0.746,0.18
				c-0.211,0.156-0.455,0.26-0.721,0.26c-0.665,0.019-1.113-0.722-0.761-1.36C1945.739,1063.283,1946.52,1062.318,1947.719,1062.46z
				"/><path fill-rule="evenodd" clip-rule="evenodd" fill="#FFFFFF" d="M1814.338,1207.688c-0.01,1.106-0.686,1.935-1.552,2.069
				c-0.462,0.069-0.869-0.175-1.063-0.695c-0.333-0.863-0.371-1.762-0.216-2.673c0.106-0.645,0.232-1.283,0.339-1.932
				c0.099-0.53,0.322-0.674,0.628-0.325c0.818,0.909,1.493,1.935,1.823,3.188
				C1814.338,1207.479,1814.328,1207.646,1814.338,1207.688z"/><path fill-rule="evenodd" clip-rule="evenodd" fill="#FFFFFF" d="M1893.646,1053.3c-0.262,0.024-0.519,0.063-0.773,0.058
				c-0.084,0-0.183-0.113-0.24-0.213c-0.06-0.112-0.021-0.271,0.085-0.312c0.607-0.197,0.872-0.72,1.056-1.317
				c0.138-0.438,0.305-0.836,0.772-0.973c0.519-0.143,1.047-0.233,1.492,0.122c0.833,0.65,1.525,1.448,1.635,2.665
				c0.046,0.586-0.2,0.885-0.706,0.806c-0.8-0.128-1.59-0.355-2.364-0.658C1894.301,1053.357,1893.99,1053.198,1893.646,1053.3z"/><path fill-rule="evenodd" clip-rule="evenodd" fill="#FFFFFF" d="M1880.861,1164.71c0.109,0.112,0.205,0.306,0.322,0.325
				c0.547,0.076,0.656,0.59,0.861,1.012c0.202,0.419,0.084,0.795-0.06,1.191c-0.135,0.378-0.273,0.766-0.377,1.155
				c-0.118,0.454-0.394,0.787-0.656,1.136c-0.342,0.438-1.063,0.084-1.136-0.402c-0.04-0.371-0.051-0.733,0.05-1.102
				c0.194-0.771,0.194-0.785-0.459-1.118c-0.281-0.142-0.371-0.385-0.398-0.681c-0.033-0.213,0.008-0.442,0.163-0.56
				c0.517-0.38,0.927-0.957,1.602-1.036C1880.804,1164.655,1880.834,1164.685,1880.861,1164.71z"/><path fill-rule="evenodd" clip-rule="evenodd" fill="#FFFFFF" d="M1827.871,1012.147c-0.105-0.016-0.21-0.037-0.312-0.081
				c-0.145-0.057-0.272-0.161-0.263-0.348c0.012-0.134,0.134-0.157,0.235-0.205c0.429-0.205,0.468-0.297,0.172-0.514
				c-0.368-0.271-0.483-0.702-0.698-1.074c-0.16-0.265-0.129-0.546-0.103-0.828c0.033-0.347,0.179-0.502,0.5-0.516
				c0.146-0.003,0.301-0.022,0.441,0.036c0.655,0.256,1.317,0.502,1.941,0.841c0.556,0.293,0.6,0.728,0.282,1.31
				C1829.563,1011.688,1828.85,1012.167,1827.871,1012.147z"/><path fill-rule="evenodd" clip-rule="evenodd" fill="#FFFFFF" d="M1868.413,1180.492c-0.128,0.757-0.314,1.668-0.618,2.551
				c-0.174,0.496-0.391,0.967-0.584,1.453c-0.128,0.289-0.306,0.293-0.52,0.047c-0.664-0.776-1.082-2.022-0.342-3.241
				c0.216-0.337,0.399-0.691,0.605-1.033c0.146-0.238,0.332-0.427,0.567-0.568
				C1867.979,1179.426,1868.419,1179.725,1868.413,1180.492z"/><path fill-rule="evenodd" clip-rule="evenodd" fill="#FFFFFF" d="M1871.4,1204.244c-0.468-0.343-0.751,0-1.047,0.439
				c-0.225,0.353-0.439,0.323-0.729,0.039c-0.406-0.399-0.441-0.821-0.141-1.314c0.141-0.225,0.02-0.383-0.194-0.455
				c-0.106-0.034-0.216-0.054-0.333-0.065c-0.263-0.026-0.391-0.196-0.398-0.483c-0.012-0.41-0.02-0.822-0.012-1.235
				c0-0.301,0.189-0.435,0.459-0.306c0.498,0.238,1.063,0.347,1.291,1.056c0.068,0.247,0.319,0.475,0.625,0.339
				c0.135-0.058,0.222-0.26,0.377-0.18c0.22,0.092,0.197,0.331,0.178,0.525c-0.049,0.372,0.042,0.637,0.364,0.812
				c0.175,0.099,0.242,0.307,0.164,0.521C1871.906,1204.208,1871.693,1204.258,1871.4,1204.244z"/><path fill-rule="evenodd" clip-rule="evenodd" fill="#FFFFFF" d="M1850.529,1189.538c-0.018-0.265,0.109-0.462,0.255-0.664
				c0.653-0.926,1.551-1.021,2.508-0.935c0.364,0.031,0.539,0.48,0.364,0.844c-0.235,0.465-0.471,0.94-0.752,1.376
				c-0.462,0.71-1.036,0.869-1.74,0.551C1850.686,1190.489,1850.5,1190.15,1850.529,1189.538z"/><path fill-rule="evenodd" clip-rule="evenodd" fill="#FFFFFF" d="M1875.294,1231.165c0.088,0.071,0.197,0.12,0.243,0.214
				c0.072,0.114,0.022,0.24-0.076,0.319c-0.38,0.328-0.8,0.567-1.26,0.726c-0.646,0.223-1.23,0.525-1.679,1.116
				c-0.306,0.392-0.712,0.566-1.163,0.661c-0.281,0.063-0.505-0.142-0.517-0.467c-0.021-0.394,0.05-0.785,0.361-0.971
				c0.714-0.409,1.337-1.033,2.12-1.246C1873.969,1231.343,1874.63,1231.281,1875.294,1231.165z"/><path fill-rule="evenodd" clip-rule="evenodd" fill="#FFFFFF" d="M1885.707,1164.181c0.134,0.347,0.243,0.693,0.012,1.041
				c-0.239,0.347-0.501,0.582-0.931,0.499c-0.36-0.076-0.634,0.11-0.839,0.454c-0.079,0.137-0.155,0.271-0.256,0.399
				c-0.168,0.213-0.399,0.227-0.575,0.049c-0.243-0.263-0.382-0.596-0.511-0.935c-0.037-0.096-0.017-0.255,0.033-0.339
				c0.225-0.38,0.468-0.768,0.918-0.822c0.29-0.03,0.585-0.071,0.82-0.295C1884.806,1163.83,1885.255,1163.925,1885.707,1164.181
				L1885.707,1164.181z"/><path fill-rule="evenodd" clip-rule="evenodd" fill="#FFFFFF" d="M1855.667,1047.109c0.214,0.042,0.509,0.068,0.791,0.148
				c0.391,0.117,0.578,0.482,0.507,0.945c-0.078,0.465-0.273,0.84-0.635,1.093c-0.301,0.214-0.644,0.229-0.939,0.039
				c-0.3-0.208-0.573-0.481-0.847-0.758c-0.118-0.111-0.118-0.309-0.022-0.438c0.189-0.242,0.413-0.451,0.521-0.773
				C1855.129,1047.099,1855.365,1047.061,1855.667,1047.109z"/><path fill-rule="evenodd" clip-rule="evenodd" fill="#FFFFFF" d="M1876.35,1219.41c-0.02-0.748-0.175-1.472-0.35-2.183
				c-0.129-0.513-0.088-0.981,0.145-1.436c0.091-0.175,0.217-0.357,0.433-0.308c0.186,0.044,0.145,0.251,0.175,0.406
				c0.049,0.271,0.205,0.38,0.45,0.459c0.526,0.168,0.517,0.194,0.448,0.758c-0.021,0.156-0.088,0.325-0.071,0.479
				c0.05,0.439-0.155,0.582-0.495,0.645c-0.362,0.074-0.371,0.38-0.295,0.664c0.05,0.197,0.129,0.378,0.194,0.572
				c0.042,0.121,0.069,0.264-0.065,0.294c-0.098,0.036-0.216-0.032-0.312-0.06C1876.517,1219.604,1876.429,1219.504,1876.35,1219.41
				z"/><path fill-rule="evenodd" clip-rule="evenodd" fill="#FFFFFF" d="M1862.309,1232.321c-0.518-0.085-1.039-0.348-1.594-0.33
				c-0.057,0-0.175-0.164-0.186-0.266c-0.038-0.538,0.44-0.923,0.857-0.661c0.205,0.125,0.355,0.239,0.607,0.152
				c0.237-0.082,0.565,0.02,0.742-0.125c0.597-0.467,1.124-0.02,1.67,0.073c0.08,0.022,0.179,0.17,0.186,0.268
				c0.009,0.091-0.057,0.276-0.128,0.293C1863.762,1231.938,1863.04,1232.125,1862.309,1232.321z"/><path fill-rule="evenodd" clip-rule="evenodd" fill="#FFFFFF" d="M1878.041,1222.89c0.672-0.095,1.229,0.135,1.807,0.276
				c0.312,0.079,0.52,0.316,0.635,0.637c0.029,0.099,0.019,0.241-0.02,0.344c-0.053,0.146-0.175,0.135-0.285,0.109
				c-0.105-0.023-0.213-0.064-0.312-0.119c-0.841-0.503-1.696-0.399-2.56-0.104c-0.232,0.077-0.428,0.189-0.566-0.104
				c-0.175-0.368-0.049-0.787,0.276-0.927c0.134-0.052,0.281-0.094,0.429-0.105
				C1877.659,1222.877,1877.886,1222.89,1878.041,1222.89z"/><path fill-rule="evenodd" clip-rule="evenodd" fill="#FFFFFF" d="M1826.136,997.716c0.418,0.003,0.741,0.071,1.033,0.259
				c0.246,0.16,0.38,0.54,0.315,0.854c-0.062,0.316-0.315,0.606-0.597,0.637c-0.452,0.041-0.881-0.038-1.279-0.264
				c-0.209-0.121-0.342-0.31-0.363-0.577c-0.02-0.317,0.101-0.572,0.341-0.717C1825.782,997.8,1825.996,997.763,1826.136,997.716z"
				/><path fill-rule="evenodd" clip-rule="evenodd" fill="#FFFFFF" d="M1865.432,1202.222c0.021,0.549-0.058,0.841-0.262,1.019
				c-0.585,0.456-0.93,1.151-1.436,1.682c-0.353,0.361-0.705,0.71-1.145,0.939c-0.106,0.049-0.235,0.058-0.293-0.058
				c-0.049-0.093-0.065-0.251-0.029-0.327c0.076-0.181,0.188-0.371,0.332-0.476c0.624-0.454,1.086-1.091,1.603-1.667
				c0.292-0.314,0.555-0.647,0.683-1.096c0.05-0.172,0.118-0.444,0.373-0.309
				C1865.432,1202.025,1865.432,1202.266,1865.432,1202.222z"/><path fill-rule="evenodd" clip-rule="evenodd" fill="#FFFFFF" d="M1748.215,1163.441c-0.08-0.029-0.228-0.06-0.354-0.13
				c-0.35-0.184-0.409-0.673-0.088-0.886c0.247-0.17,0.509-0.353,0.79-0.418c0.547-0.134,1.085-0.26,1.593-0.506
				c0.061-0.025,0.156-0.008,0.195,0.035c0.049,0.036,0.07,0.154,0.049,0.211
				C1749.999,1162.783,1749.277,1163.319,1748.215,1163.441z"/><path fill-rule="evenodd" clip-rule="evenodd" fill="#FFFFFF" d="M1930.875,1070.8c-0.101-0.108-0.188-0.215-0.283-0.319
				c-0.079-0.33-0.118-0.645,0.183-0.876c0.304-0.233,0.606-0.244,0.917-0.028c0.217,0.152,0.441,0.293,0.635,0.465
				c0.258,0.224,0.334,0.521,0.274,0.872c-0.077,0.459-0.408,0.681-0.807,0.55C1931.419,1071.339,1931.188,1071.015,1930.875,1070.8
				z"/><path fill-rule="evenodd" clip-rule="evenodd" fill="#FFFFFF" d="M1799.345,1052.937c0.236-0.009,0.452,0.054,0.569,0.295
				c0.156,0.316,0.3,0.643,0.43,0.978c0.064,0.171-0.031,0.329-0.148,0.424c-0.388,0.347-0.866,0.396-1.34,0.498
				c-0.076,0.016-0.239-0.096-0.251-0.166c-0.118-0.627-0.076-1.231,0.263-1.767
				C1798.977,1053.023,1799.151,1052.939,1799.345,1052.937z"/><path fill-rule="evenodd" clip-rule="evenodd" fill="#FFFFFF" d="M1867.455,1232.061c-0.461-0.101-0.957-0.205-1.457-0.324
				c-0.126-0.03-0.168-0.298-0.076-0.418c0.231-0.301,0.526-0.432,0.876-0.395c0.216,0.025,0.43,0.104,0.637,0.168
				c0.789,0.251,1.571,0.432,2.302-0.186c0.043-0.034,0.178,0.002,0.188,0.043c0.042,0.096,0.069,0.24,0.03,0.329
				c-0.136,0.324-0.428,0.444-0.713,0.499C1868.665,1231.895,1868.08,1231.966,1867.455,1232.061z"/><path fill-rule="evenodd" clip-rule="evenodd" fill="#FFFFFF" d="M1872.541,1201.511c-0.019-0.292-0.107-0.549-0.313-0.751
				c-0.134-0.134-0.252-0.293-0.36-0.465c-0.13-0.206-0.012-0.521,0.205-0.594c0.663-0.231,1.172,0.088,1.3,0.855
				c0.068,0.361,0.096,0.733,0.135,1.094c0.029,0.269-0.096,0.36-0.438,0.317c-0.068-0.011-0.136-0.056-0.206-0.087
				C1872.756,1201.76,1872.649,1201.637,1872.541,1201.511z"/><path fill-rule="evenodd" clip-rule="evenodd" fill="#FFFFFF" d="M1893.031,1049.498c0.029-0.202,0.057-0.445,0.117-0.68
				c0.084-0.273,0.363-0.439,0.614-0.402c0.243,0.042,0.4,0.199,0.471,0.451c0.183,0.625,0.008,1.121-0.432,1.521
				c-0.252,0.238-0.614,0.117-0.692-0.243C1893.071,1049.949,1893.061,1049.744,1893.031,1049.498z"/><path fill-rule="evenodd" clip-rule="evenodd" fill="#FFFFFF" d="M1865.352,1232.567c0.657-0.036,1.107,0.309,1.498,0.773
				c0.097,0.12,0.145,0.298,0.066,0.467c-0.106,0.211-0.284,0.26-0.468,0.211c-0.184-0.046-0.349-0.14-0.517-0.228
				c-0.306-0.15-0.595-0.312-0.901-0.47c-0.135-0.071-0.273-0.169-0.251-0.36c0.019-0.172,0.145-0.271,0.291-0.325
				C1865.181,1232.6,1865.287,1232.587,1865.352,1232.567z"/><path fill-rule="evenodd" clip-rule="evenodd" fill="#FFFFFF" d="M1867.25,1198.128c0.507,0.35,0.788,0.836,0.74,1.517
				c-0.018,0.213-0.097,0.405-0.284,0.479c-0.194,0.076-0.366-0.02-0.468-0.202c-0.216-0.427-0.41-0.854-0.606-1.287
				c-0.126-0.269-0.038-0.395,0.295-0.481c0.107-0.024,0.216-0.017,0.333-0.024H1867.25z"/><path fill-rule="evenodd" clip-rule="evenodd" fill="#FFFFFF" d="M1924.719,1109.941c-0.027-0.053-0.096-0.129-0.084-0.176
				c0.084-0.353,0.166-0.719,0.299-1.033c0.197-0.439,0.586-0.584,0.999-0.645c0.177-0.02,0.359,0.224,0.303,0.416
				c-0.039,0.138-0.077,0.33-0.177,0.42c-0.4,0.354-0.813,0.683-1.22,1.018C1924.81,1109.963,1924.763,1109.941,1924.719,1109.941z"
				/><path fill-rule="evenodd" clip-rule="evenodd" fill="#FFFFFF" d="M1833.078,1032.752c-0.099-0.033-0.233-0.086-0.372-0.141
				c-0.183-0.087-0.274-0.357-0.123-0.49c0.357-0.332,0.719-0.662,1.112-0.963c0.146-0.109,0.289,0.041,0.331,0.205
				C1834.182,1031.973,1833.663,1032.76,1833.078,1032.752z"/><path fill-rule="evenodd" clip-rule="evenodd" fill="#FFFFFF" d="M1904.908,1142.184c-0.012,0.078,0,0.172-0.044,0.219
				c-0.096,0.128-0.194,0.246-0.316,0.333c-0.53,0.371-1.058,0.735-1.507,1.232c-0.057,0.068-0.207,0.096-0.283,0.063
				c-0.118-0.055-0.106-0.211-0.05-0.317c0.333-0.647,0.684-1.263,1.427-1.419c0.205-0.043,0.401-0.166,0.606-0.24
				C1904.779,1142.049,1904.848,1142.139,1904.908,1142.184z"/><path fill-rule="evenodd" clip-rule="evenodd" fill="#FFFFFF" d="M1874.652,1223.166c0.322-0.024,0.596,0.063,0.82,0.304
				c0.232,0.243,0.166,0.664-0.118,0.823c-0.372,0.193-0.713,0.126-1.017-0.178c-0.155-0.164-0.293-0.378-0.213-0.643
				C1874.212,1223.191,1874.459,1223.201,1874.652,1223.166z"/><path fill-rule="evenodd" clip-rule="evenodd" fill="#FFFFFF" d="M1811.223,1056.366c0.011,0.456-0.295,0.664-0.664,0.456
				c-0.55-0.317-0.558-1.085,0.008-1.471c0.14-0.1,0.284-0.023,0.383,0.112C1811.132,1055.725,1811.238,1056.023,1811.223,1056.366z
				"/><path fill-rule="evenodd" clip-rule="evenodd" fill="#FFFFFF" d="M1885.912,1227.53c0.029,0.399-0.071,0.694-0.232,0.971
				c-0.129,0.188-0.23,0.429-0.489,0.414c-0.178-0.005-0.273-0.305-0.178-0.731c0.076-0.347,0.193-0.688,0.321-1.011
				c0.039-0.084,0.188-0.164,0.274-0.15c0.088,0.005,0.175,0.123,0.227,0.224C1885.891,1227.339,1885.901,1227.473,1885.912,1227.53
				z"/><path fill-rule="evenodd" clip-rule="evenodd" fill="#FFFFFF" d="M1872.541,1201.511c0.108,0.126,0.215,0.249,0.322,0.37
				c0.021,0.403,0.049,0.806,0.038,1.207c0,0.09-0.105,0.202-0.185,0.254c-0.098,0.063-0.231,0.035-0.283-0.085
				c-0.205-0.467-0.41-0.942-0.593-1.421c-0.063-0.145-0.069-0.334,0.087-0.424c0.077-0.046,0.194,0,0.301,0.02
				C1872.338,1201.451,1872.434,1201.486,1872.541,1201.511z"/><path fill-rule="evenodd" clip-rule="evenodd" fill="#FFFFFF" d="M1886.857,1039.608c0.725,0.877,0.568,1.681,0.375,2.481
				c-0.022,0.062-0.118,0.149-0.159,0.142c-0.099-0.024-0.205-0.085-0.265-0.164c-0.058-0.096-0.088-0.237-0.077-0.347
				C1886.762,1041.07,1886.809,1040.423,1886.857,1039.608z"/><path fill-rule="evenodd" clip-rule="evenodd" fill="#FFFFFF" d="M1814.698,1043.019c-0.177-0.093-0.272-0.14-0.37-0.194
				c-0.146-0.093-0.381-0.047-0.42-0.313c-0.037-0.246-0.021-0.503,0.156-0.681c0.173-0.176,0.322-0.508,0.623-0.358
				c0.265,0.132,0.307,0.443,0.254,0.735C1814.903,1042.444,1814.806,1042.669,1814.698,1043.019z"/><path fill-rule="evenodd" clip-rule="evenodd" fill="#FFFFFF" d="M1889.878,1120.509c-0.194-0.003-0.372-0.079-0.46-0.284
				c-0.139-0.353,0.194-0.981,0.544-1.044c0.208-0.029,0.383,0.063,0.45,0.276
				C1890.553,1119.859,1890.234,1120.454,1889.878,1120.509z"/><path fill-rule="evenodd" clip-rule="evenodd" fill="#FFFFFF" d="M1915.093,1130.293c-0.205,0.675-0.528,1.216-1.155,1.475
				c-0.055,0.027-0.145,0.012-0.193-0.026c-0.047-0.041-0.097-0.167-0.08-0.2c0.353-0.491,0.607-1.096,1.203-1.314
				C1914.916,1130.208,1914.995,1130.262,1915.093,1130.293z"/><path fill-rule="evenodd" clip-rule="evenodd" fill="#FFFFFF" d="M1848.654,1023.719c0.266,0,0.539,0.015,0.656,0.336
				c0.027,0.096,0.012,0.256-0.041,0.348c-0.175,0.293-0.437,0.262-0.694,0.158c-0.232-0.092-0.536-0.084-0.623-0.432
				C1847.903,1023.916,1848.236,1023.725,1848.654,1023.719z"/><path fill-rule="evenodd" clip-rule="evenodd" fill="#FFFFFF" d="M1871.078,1199.649c-0.012,0.347,0.221,0.594,0.292,0.91
				c0.02,0.068,0,0.173-0.049,0.225c-0.038,0.044-0.146,0.09-0.193,0.067c-0.266-0.121-0.54-0.25-0.785-0.425
				c-0.222-0.159-0.145-0.569,0.129-0.679c0.178-0.07,0.35-0.108,0.538-0.163L1871.078,1199.649z"/><path fill-rule="evenodd" clip-rule="evenodd" fill="#FFFFFF" d="M1829.456,1199.123c-0.06,0.341-0.14,0.813-0.244,1.278
				c-0.05,0.208-0.031,0.574-0.323,0.486c-0.168-0.06-0.02-0.357,0.011-0.555c0.068-0.517,0.137-1.029,0.213-1.547
				c0.021-0.118,0.1-0.262,0.216-0.222c0.057,0.028,0.09,0.194,0.128,0.301C1829.465,1198.899,1829.456,1198.944,1829.456,1199.123z
				"/><path fill-rule="evenodd" clip-rule="evenodd" fill="#FFFFFF" d="M1833.256,1033.93c0.163,0,0.352-0.006,0.523,0.01
				c0.129,0.005,0.216,0.109,0.178,0.244c-0.021,0.104-0.098,0.221-0.178,0.268c-0.251,0.14-0.494,0-0.751-0.036
				c-0.243-0.034-0.495-0.054-0.752-0.099c-0.049-0.013-0.128-0.1-0.128-0.158c0-0.057,0.071-0.155,0.128-0.175
				C1832.588,1033.885,1832.91,1033.86,1833.256,1033.93z"/><path fill-rule="evenodd" clip-rule="evenodd" fill="#FFFFFF" d="M1815.704,1049.192c0.312,0,0.585-0.055,0.801,0.155
				c0.042,0.041,0.068,0.145,0.068,0.211c-0.011,0.068-0.068,0.177-0.118,0.186c-0.439,0.112-0.857-0.014-1.278-0.131
				c-0.038-0.011-0.087-0.138-0.076-0.199c0.011-0.066,0.076-0.158,0.125-0.17C1815.4,1049.211,1815.59,1049.206,1815.704,1049.192z
				"/><path fill-rule="evenodd" clip-rule="evenodd" fill="#FFFFFF" d="M1855.022,1034.83c0.213-0.433,0.401-0.601,0.596-0.505
				c0.312,0.143,0.505,0.68,0.361,1.015c-0.05,0.113-0.178,0.186-0.273,0.106c-0.232-0.181-0.448-0.394-0.673-0.597
				L1855.022,1034.83z"/><path fill-rule="evenodd" clip-rule="evenodd" fill="#FFFFFF" d="M1836.223,1217.387c-0.047,0.052-0.089,0.125-0.147,0.142
				c-0.065,0.014-0.156-0.006-0.205-0.046c-0.448-0.367-0.623-0.708-0.494-0.974c0.016-0.055,0.123-0.117,0.172-0.104
				c0.391,0.123,0.606,0.438,0.694,0.863C1836.253,1217.299,1836.23,1217.348,1836.223,1217.387z"/><path fill-rule="evenodd" clip-rule="evenodd" fill="#FFFFFF" d="M1887.855,1050.329c-0.02,0.03-0.03,0.085-0.059,0.096
				c-0.06,0.027-0.155,0.069-0.198,0.044c-0.408-0.354-0.636-0.855-0.829-1.384c0-0.019,0.022-0.067,0.05-0.099
				c0.022-0.021,0.068-0.049,0.09-0.034c0.427,0.311,0.749,0.732,0.957,1.259C1887.876,1050.244,1887.855,1050.29,1887.855,1050.329
				z"/><path fill-rule="evenodd" clip-rule="evenodd" fill="#FFFFFF" d="M1805.716,1053.166c-0.14-0.049-0.208-0.15-0.167-0.269
				c0.167-0.462,0.49-0.645,0.979-0.555c0.054,0.009,0.133,0.063,0.172,0.123c0.079,0.14-0.012,0.227-0.106,0.293
				C1806.312,1052.939,1806.044,1053.171,1805.716,1053.166z"/><path fill-rule="evenodd" clip-rule="evenodd" fill="#FFFFFF" d="M1850.082,1222.896c-0.02,0.265-0.137,0.398-0.342,0.414
				c-0.246,0.018-0.44-0.188-0.43-0.442c0.017-0.235,0.134-0.377,0.34-0.396C1849.885,1222.447,1850.07,1222.661,1850.082,1222.896z
				"/><path fill-rule="evenodd" clip-rule="evenodd" fill="#FFFFFF" d="M1907.122,1140.713c0,0.039,0.011,0.087-0.009,0.117
				c-0.176,0.366-0.44,0.647-0.773,0.839c-0.047,0.033-0.146,0-0.194-0.04c-0.041-0.048-0.058-0.159-0.041-0.219
				c0.157-0.389,0.425-0.664,0.763-0.831c0.033-0.017,0.09-0.032,0.109-0.014
				C1907.033,1140.611,1907.072,1140.667,1907.122,1140.713z"/><path fill-rule="evenodd" clip-rule="evenodd" fill="#FFFFFF" d="M1928.033,1118.833c0.077,0.009,0.172-0.005,0.206,0.044
				c0.242,0.304,0.417,0.659,0.485,1.066c0.008,0.057-0.057,0.153-0.117,0.175c-0.058,0.02-0.156,0-0.197-0.047
				c-0.289-0.276-0.456-0.628-0.486-1.052C1927.924,1118.966,1927.992,1118.896,1928.033,1118.833z"/><path fill-rule="evenodd" clip-rule="evenodd" fill="#FFFFFF" d="M1874.183,1230.657c-0.129-0.015-0.246-0.065-0.246-0.192
				c0-0.092,0.081-0.239,0.15-0.267c0.231-0.099,0.479-0.167,0.721-0.22c0.096-0.016,0.214,0.088,0.202,0.211
				c0,0.104-0.057,0.23-0.123,0.292C1874.672,1230.659,1874.414,1230.64,1874.183,1230.657z"/><path fill-rule="evenodd" clip-rule="evenodd" fill="#FFFFFF" d="M1804.775,1056.149c-0.33-0.104-0.607-0.278-0.645-0.705
				c-0.017-0.218,0.07-0.409,0.276-0.439c0.193-0.04,0.368,0.081,0.391,0.312C1804.813,1055.59,1804.786,1055.871,1804.775,1056.149
				L1804.775,1056.149z"/><path fill-rule="evenodd" clip-rule="evenodd" fill="#FFFFFF" d="M1838.002,1220.955c-0.068,0.104-0.102,0.188-0.158,0.225
				c-0.061,0.02-0.164,0.02-0.205-0.014c-0.137-0.141-0.273-0.278-0.372-0.453c-0.145-0.264-0.069-0.594,0.118-0.624
				c0.234-0.04,0.322,0.159,0.409,0.336C1837.873,1220.606,1837.934,1220.794,1838.002,1220.955z"/><path fill-rule="evenodd" clip-rule="evenodd" fill="#FFFFFF" d="M1828.596,1014.411c-0.079,0-0.146,0.012-0.225,0
				c-0.242-0.014-0.439-0.173-0.383-0.306c0.08-0.167,0.228-0.242,0.372-0.228c0.246,0.027,0.5,0.101,0.741,0.175
				c0.049,0.011,0.102,0.142,0.09,0.194c-0.019,0.063-0.096,0.137-0.155,0.15c-0.147,0.025-0.296,0.006-0.44,0.006
				C1828.596,1014.406,1828.596,1014.411,1828.596,1014.411z"/><path fill-rule="evenodd" clip-rule="evenodd" fill="#FFFFFF" d="M1901.506,1144.408c0.01,0.04,0.032,0.09,0.021,0.12
				c-0.155,0.478-0.451,0.812-0.851,1.043c-0.019,0.017-0.068-0.008-0.087-0.032c-0.031-0.024-0.061-0.077-0.049-0.096
				c0.163-0.453,0.368-0.882,0.781-1.129C1901.35,1144.29,1901.437,1144.378,1901.506,1144.408z"/><path fill-rule="evenodd" clip-rule="evenodd" fill="#FFFFFF" d="M1847.284,1023.506c-0.115-0.041-0.2-0.131-0.183-0.262
				c0.05-0.298,0.266-0.465,0.468-0.618c0.061-0.052,0.205-0.019,0.284,0.032c0.099,0.055,0.118,0.197,0.061,0.307
				C1847.774,1023.252,1847.607,1023.497,1847.284,1023.506z"/><path fill-rule="evenodd" clip-rule="evenodd" fill="#FFFFFF" d="M1824.768,1030.543c-0.012,0.216-0.077,0.402-0.294,0.433
				c-0.154,0.023-0.321-0.217-0.292-0.433c0.02-0.214,0.096-0.431,0.304-0.434
				C1824.707,1030.098,1824.75,1030.336,1824.768,1030.543z"/><path fill-rule="evenodd" clip-rule="evenodd" fill="#FFFFFF" d="M1845.1,1218.438c0.306,0.121,0.361,0.621,0.098,0.886
				c-0.037,0.042-0.155,0.058-0.194,0.022c-0.215-0.158-0.265-0.585-0.087-0.842
				C1844.943,1218.452,1845.031,1218.457,1845.1,1218.438z"/><path fill-rule="evenodd" clip-rule="evenodd" fill="#FFFFFF" d="M1881.302,1230.536c-0.118-0.023-0.194-0.106-0.205-0.237
				c-0.03-0.298,0.038-0.563,0.292-0.708c0.106-0.064,0.225-0.026,0.273,0.093c0.106,0.295,0.011,0.553-0.172,0.766
				C1881.446,1230.501,1881.369,1230.513,1881.302,1230.536z"/><path fill-rule="evenodd" clip-rule="evenodd" fill="#FFFFFF" d="M1888.216,1221.499c-0.205-0.021-0.38-0.041-0.558-0.063
				c-0.232-0.038-0.426-0.236-0.339-0.33c0.122-0.134,0.263-0.082,0.399-0.061c0.175,0.033,0.353,0.055,0.524,0.099
				c0.091,0.036,0.245,0.097,0.245,0.158C1888.5,1221.54,1888.314,1221.458,1888.216,1221.499z"/><path fill-rule="evenodd" clip-rule="evenodd" fill="#FFFFFF" d="M1835.627,1034.366c-0.068,0.094-0.107,0.186-0.166,0.197
				c-0.047,0.005-0.157-0.05-0.165-0.102c-0.076-0.304-0.137-0.612-0.188-0.918c-0.009-0.041,0.089-0.12,0.147-0.126
				c0.06-0.017,0.175,0.018,0.186,0.06C1835.52,1033.784,1835.568,1034.088,1835.627,1034.366z"/><path fill-rule="evenodd" clip-rule="evenodd" fill="#FFFFFF" d="M1849.3,1029.882c0,0.243-0.14,0.368-0.333,0.399
				c-0.168,0.021-0.282-0.088-0.29-0.275c-0.011-0.228,0.096-0.395,0.312-0.402
				C1849.145,1029.592,1849.262,1029.692,1849.3,1029.882z"/><path fill-rule="evenodd" clip-rule="evenodd" fill="#FFFFFF" d="M1954.643,1126.21c0.068,0.032,0.156,0.049,0.187,0.104
				c0.117,0.221,0.021,0.395-0.128,0.54c-0.107,0.121-0.252,0.173-0.399,0.093c-0.042-0.017-0.069-0.055-0.079-0.093
				C1954.195,1126.611,1954.4,1126.289,1954.643,1126.21z"/><path fill-rule="evenodd" clip-rule="evenodd" fill="#FFFFFF" d="M1815.521,1038.416c0.19,0.059,0.418,0.063,0.552,0.275
				c0.021,0.022,0.021,0.078,0.011,0.113c-0.011,0.03-0.026,0.07-0.057,0.087c-0.293,0.126-0.555-0.04-0.822-0.136
				c-0.039-0.009-0.078-0.134-0.056-0.181c0.017-0.063,0.088-0.12,0.155-0.143
				C1815.363,1038.408,1815.439,1038.422,1815.521,1038.416z"/><path fill-rule="evenodd" clip-rule="evenodd" fill="#FFFFFF" d="M1876.957,1177.251c-0.027,0.304-0.194,0.5-0.452,0.593
				c-0.037,0.018-0.155-0.054-0.166-0.093c-0.038-0.333,0.158-0.505,0.383-0.64c0.046-0.024,0.137,0.015,0.196,0.038
				C1876.935,1177.155,1876.946,1177.213,1876.957,1177.251z"/><path fill-rule="evenodd" clip-rule="evenodd" fill="#FFFFFF" d="M1874.163,1221.529c-0.033,0.16-0.065,0.328-0.254,0.289
				c-0.106-0.024-0.194-0.092-0.295-0.152c-0.047-0.041-0.124-0.102-0.135-0.164c-0.022-0.147,0.099-0.183,0.194-0.213
				C1874.008,1221.195,1874.151,1221.278,1874.163,1221.529z"/><path fill-rule="evenodd" clip-rule="evenodd" fill="#FFFFFF" d="M1887.748,1220.212c-0.029,0.041-0.038,0.079-0.067,0.096
				c-0.217,0.104-0.54-0.101-0.589-0.388c-0.011-0.045,0.068-0.159,0.11-0.159c0.239-0.03,0.429,0.091,0.535,0.334
				C1887.759,1220.128,1887.748,1220.174,1887.748,1220.212z"/><path fill-rule="evenodd" clip-rule="evenodd" fill="#FFFFFF" d="M1880.277,1218.761c0.186-0.027,0.353,0.038,0.478,0.183
				c0.038,0.045,0.058,0.153,0.038,0.205c-0.027,0.063-0.099,0.118-0.163,0.133c-0.178,0.042-0.342-0.025-0.471-0.174
				c-0.038-0.049-0.061-0.149-0.038-0.213C1880.14,1218.837,1880.216,1218.803,1880.277,1218.761z"/><path fill-rule="evenodd" clip-rule="evenodd" fill="#FFFFFF" d="M1949.467,1127.333c0.088,0.027,0.193,0.03,0.282,0.096
				c0.147,0.093,0.325,0.188,0.294,0.427c0,0.046-0.105,0.108-0.166,0.104c-0.311,0-0.5-0.159-0.527-0.438
				C1949.339,1127.467,1949.421,1127.412,1949.467,1127.333z"/><path fill-rule="evenodd" clip-rule="evenodd" fill="#FFFFFF" d="M1874.721,1166.029c-0.141-0.04-0.234-0.127-0.205-0.254
				c0.055-0.216,0.232-0.301,0.43-0.275c0.113,0.014,0.215,0.118,0.174,0.251
				C1875.059,1165.976,1874.898,1166.047,1874.721,1166.029z"/><path fill-rule="evenodd" clip-rule="evenodd" fill="#FFFFFF" d="M1937.513,1124.994c-0.019,0.071-0.028,0.178-0.079,0.207
				c-0.234,0.129-0.535,0.03-0.661-0.205c-0.01-0.033-0.01-0.098,0-0.105c0.097-0.048,0.194-0.121,0.293-0.124
				C1937.24,1124.756,1937.429,1124.767,1937.513,1124.994z"/><path fill-rule="evenodd" clip-rule="evenodd" fill="#FFFFFF" d="M1839.096,1222.617c0.24,0.109,0.357,0.347,0.379,0.628
				c0,0.055-0.06,0.13-0.098,0.175c-0.019,0.022-0.085,0.009-0.096-0.016c-0.128-0.189-0.246-0.372-0.353-0.575
				c-0.02-0.038,0.03-0.133,0.069-0.196C1839.008,1222.617,1839.055,1222.617,1839.096,1222.617z"/><path fill-rule="evenodd" clip-rule="evenodd" fill="#FFFFFF" d="M1806.896,1054.18c0.147,0.014,0.312,0.052,0.312,0.243
				c0.011,0.21-0.164,0.232-0.312,0.21c-0.147-0.03-0.292-0.106-0.272-0.308C1806.643,1054.193,1806.779,1054.18,1806.896,1054.18z"
				/><path fill-rule="evenodd" clip-rule="evenodd" fill="#FFFFFF" d="M1817.47,1049.791c0.049,0.008,0.128,0.008,0.189,0.039
				c0.106,0.054,0.172,0.168,0.118,0.288c-0.031,0.058-0.118,0.099-0.188,0.106c-0.071,0.017-0.147-0.008-0.204-0.038
				c-0.061-0.041-0.14-0.109-0.14-0.175C1817.229,1049.87,1817.325,1049.802,1817.47,1049.791z"/><path fill-rule="evenodd" clip-rule="evenodd" fill="#FFFFFF" d="M1849.915,1212.472c0.167,0.017,0.246,0.127,0.254,0.299
				c0.008,0.166-0.058,0.314-0.234,0.286c-0.156-0.026-0.213-0.18-0.213-0.346C1849.729,1212.585,1849.8,1212.506,1849.915,1212.472
				z"/><path fill-rule="evenodd" clip-rule="evenodd" fill="#FFFFFF" d="M1877.407,1214.834c0.117,0.032,0.193,0.119,0.184,0.254
				c-0.012,0.172-0.099,0.293-0.263,0.275c-0.12-0.008-0.196-0.104-0.186-0.237
				C1877.15,1214.943,1877.241,1214.845,1877.407,1214.834z"/><path fill-rule="evenodd" clip-rule="evenodd" fill="#FFFFFF" d="M1869.746,1220.362c0.178,0.032,0.354,0.05,0.531,0.101
				c0.137,0.042,0.281,0.144,0.217,0.326c-0.062,0.183-0.236,0.141-0.373,0.13c-0.257-0.019-0.375-0.213-0.471-0.438
				C1869.682,1220.446,1869.72,1220.403,1869.746,1220.362z"/><path fill-rule="evenodd" clip-rule="evenodd" fill="#FFFFFF" d="M1876.752,1220.934c0.011,0.166-0.079,0.235-0.194,0.249
				c-0.186,0.017-0.383,0.017-0.44-0.235c-0.029-0.135,0.077-0.23,0.194-0.243
				C1876.505,1220.676,1876.673,1220.729,1876.752,1220.934z"/><path fill-rule="evenodd" clip-rule="evenodd" fill="#FFFFFF" d="M1872.374,1221.127c0.128,0.033,0.199,0.042,0.267,0.068
				c0.028,0.014,0.076,0.055,0.076,0.077c-0.016,0.067-0.027,0.163-0.067,0.2c-0.186,0.133-0.383,0.193-0.594,0.067
				c-0.032-0.014-0.06-0.06-0.06-0.093c0.009-0.073,0.009-0.183,0.049-0.199C1872.162,1221.183,1872.297,1221.154,1872.374,1221.127
				z"/><path fill-rule="evenodd" clip-rule="evenodd" fill="#FFFFFF" d="M1879.916,1221.453c0,0.197-0.117,0.273-0.263,0.292
				c-0.216,0.038-0.42-0.12-0.372-0.284c0.039-0.175,0.167-0.244,0.313-0.252
				C1879.749,1221.209,1879.866,1221.267,1879.916,1221.453z"/><path fill-rule="evenodd" clip-rule="evenodd" fill="#FFFFFF" d="M1823.82,1031.291c0.01,0.127,0,0.255-0.116,0.307
				c-0.137,0.053-0.206-0.063-0.227-0.186c-0.017-0.131,0.011-0.254,0.128-0.307
				C1823.742,1031.055,1823.8,1031.158,1823.82,1031.291z"/><path fill-rule="evenodd" clip-rule="evenodd" fill="#FFFFFF" d="M1951.402,1127.3c0.134,0.047,0.205,0.184,0.183,0.356
				c-0.015,0.133-0.114,0.226-0.231,0.212c-0.197-0.005-0.235-0.172-0.208-0.35
				C1951.168,1127.387,1951.235,1127.294,1951.402,1127.3z"/><path fill-rule="evenodd" clip-rule="evenodd" fill="#FFFFFF" d="M1872.619,1231.113c-0.068,0.172-0.196,0.21-0.353,0.159
				c-0.114-0.041-0.184-0.159-0.104-0.269c0.049-0.085,0.176-0.125,0.271-0.132
				C1872.551,1230.87,1872.63,1230.955,1872.619,1231.113z"/><path fill-rule="evenodd" clip-rule="evenodd" fill="#FFFFFF" d="M1876.35,1219.41c0.079,0.094,0.167,0.194,0.257,0.291
				c-0.15,0.12-0.295,0.202-0.479,0.111c-0.188-0.09-0.284-0.346-0.155-0.467C1876.096,1219.217,1876.224,1219.359,1876.35,1219.41z
				"/><path fill-rule="evenodd" clip-rule="evenodd" fill="#FFFFFF" d="M1833.93,1214.743c-0.089,0.044-0.158,0.106-0.207,0.102
				c-0.175-0.049-0.345-0.128-0.312-0.378c0-0.04,0.106-0.106,0.163-0.093C1833.753,1214.416,1833.87,1214.541,1833.93,1214.743z"/><path fill-rule="evenodd" clip-rule="evenodd" fill="#FFFFFF" d="M1810.938,1047.05c-0.117-0.03-0.194-0.117-0.155-0.255
				c0.026-0.136,0.139-0.19,0.245-0.136c0.055,0.026,0.126,0.114,0.126,0.178C1811.162,1046.989,1811.067,1047.05,1810.938,1047.05z
				"/><path fill-rule="evenodd" clip-rule="evenodd" fill="#FFFFFF" d="M1867.689,1209.811c-0.068,0.118-0.167,0.14-0.263,0.09
				c-0.109-0.055-0.167-0.178-0.071-0.265c0.06-0.052,0.184-0.033,0.273-0.014
				C1867.667,1209.636,1867.667,1209.748,1867.689,1209.811z"/><path fill-rule="evenodd" clip-rule="evenodd" fill="#FFFFFF" d="M1888.898,1119.395c0.129,0.055,0.156,0.161,0.102,0.275
				c-0.091,0.15-0.238,0.202-0.383,0.15c-0.09-0.03-0.106-0.117-0.068-0.205C1888.617,1119.469,1888.732,1119.377,1888.898,1119.395
				z"/><path fill-rule="evenodd" clip-rule="evenodd" fill="#FFFFFF" d="M1909.496,1138.691c0.008,0.178-0.078,0.284-0.205,0.353
				c-0.049,0.019-0.147,0.003-0.177-0.036c-0.065-0.104-0.027-0.227,0.061-0.298c0.067-0.058,0.174-0.083,0.262-0.106
				C1909.447,1138.596,1909.477,1138.657,1909.496,1138.691z"/><path fill-rule="evenodd" clip-rule="evenodd" fill="#FFFFFF" d="M1870.922,1231.217c-0.053,0.126-0.129,0.214-0.245,0.194
				c-0.129-0.02-0.173-0.13-0.129-0.259c0.052-0.118,0.155-0.172,0.273-0.121
				C1870.869,1231.051,1870.893,1231.149,1870.922,1231.217z"/><path fill-rule="evenodd" clip-rule="evenodd" fill="#FFFFFF" d="M1890.921,1156.809c0.11,0.066,0.126,0.182,0.099,0.293
				c-0.03,0.129-0.106,0.22-0.225,0.175c-0.12-0.043-0.136-0.167-0.109-0.286
				C1890.725,1156.869,1890.795,1156.796,1890.921,1156.809z"/><path fill-rule="evenodd" clip-rule="evenodd" fill="#FFFFFF" d="M1871.918,1050.43c0.049,0.039,0.138,0.076,0.145,0.129
				c0.021,0.134-0.058,0.224-0.185,0.202c-0.037-0.011-0.101-0.117-0.09-0.177
				C1871.788,1050.523,1871.868,1050.479,1871.918,1050.43z"/><path fill-rule="evenodd" clip-rule="evenodd" fill="#FFFFFF" d="M1920.685,1065.846c-0.115-0.051-0.173-0.146-0.124-0.272
				c0.018-0.048,0.107-0.115,0.157-0.102c0.116,0.022,0.175,0.141,0.128,0.269
				C1920.825,1065.786,1920.745,1065.811,1920.685,1065.846z"/><path fill-rule="evenodd" clip-rule="evenodd" fill="#FFFFFF" d="M1870.444,1234.685c0.008,0.182-0.235,0.372-0.38,0.296
				c-0.083-0.035-0.099-0.132-0.034-0.193c0.069-0.083,0.157-0.153,0.259-0.209
				C1870.365,1234.531,1870.422,1234.581,1870.444,1234.685z"/><path fill-rule="evenodd" clip-rule="evenodd" fill="#FFFFFF" d="M1945.668,1128.602c-0.155,0-0.262-0.104-0.341-0.252
				c-0.022-0.029-0.027-0.11-0.022-0.111c0.072-0.036,0.151-0.083,0.188-0.056c0.096,0.056,0.175,0.138,0.246,0.229
				C1945.794,1128.495,1945.756,1128.571,1945.668,1128.602z"/><path fill-rule="evenodd" clip-rule="evenodd" fill="#FFFFFF" d="M1848.069,1029.105c-0.037,0.126-0.117,0.219-0.234,0.205
				c-0.137-0.017-0.167-0.144-0.117-0.265c0.045-0.123,0.147-0.187,0.262-0.138
				C1848.032,1028.933,1848.039,1029.043,1848.069,1029.105z"/><path fill-rule="evenodd" clip-rule="evenodd" fill="#FFFFFF" d="M1845.071,1216.873c0.118,0.002,0.206,0.069,0.195,0.195
				c0,0.056-0.077,0.146-0.129,0.15c-0.115,0.015-0.194-0.062-0.183-0.201C1844.955,1216.965,1845.031,1216.922,1845.071,1216.873z"
				/><path fill-rule="evenodd" clip-rule="evenodd" fill="#FFFFFF" d="M1868.665,1208.941c-0.047-0.054-0.126-0.109-0.126-0.161
				c0.008-0.144,0.106-0.193,0.213-0.136c0.049,0.021,0.088,0.138,0.076,0.188
				C1868.812,1208.888,1868.725,1208.912,1868.665,1208.941z"/></svg>