<svg xmlns="http://www.w3.org/2000/svg" viewBox="305.0 405.4 323.6 323.6"><path fill="#C4BF65" d="M466.721,405.387v323.562c-89.292-0.053-161.677-72.468-161.677-161.781S377.429,405.439,466.721,405.387
				z"/><path fill="#ACA54D" d="M628.606,567.168c0,89.345-72.426,161.781-161.781,161.781h-0.104V405.387h0.104
				C556.181,405.387,628.606,477.823,628.606,567.168z"/><path fill-rule="evenodd" clip-rule="evenodd" fill="#FFFFFF" d="M546.706,566.397c-0.581,0.044-0.932-0.333-0.922-0.999
				c0-0.375,0.131-0.717,0.263-1.058c0.268-0.715,0.312-1.415-0.094-2.098c-0.462-0.766-0.611-1.61-0.519-2.517
				c0.022-0.191,0.003-0.396,0.003-0.598c0.019-0.477-0.153-0.841-0.436-1.211c-0.406-0.537-0.965-0.705-1.5-0.953
				c-0.885-0.403-1.731-0.902-2.74-0.877c-0.52,0.014-1.061-0.097-1.537-0.414c-0.192-0.134-0.425-0.177-0.661-0.163
				c-0.268,0.012-0.392,0.294-0.579,0.428c-0.219-0.358-0.421-0.655-0.589-0.965c-0.605-1.099-1.638-1.761-2.273-2.831
				c-0.172-0.294-0.459-0.268-0.618,0.051c-0.318,0.64-0.702,1.255-0.381,2.096c0.253,0.664,0.666,1.199,0.956,1.824
				c0.114,0.243,0.296,0.153,0.367-0.11c0.088-0.318,0.322-0.254,0.382-0.065c0.26,0.744,0.766,0.879,1.388,0.738
				c0.042,0.805,0.068,0.985,0.379,1.596c0.231,0.45,0.38,0.918,0.501,1.412c0.347,1.364-0.027,2.106-1.252,2.417
				c-0.355,0.085-0.453,0.309-0.436,0.661c0.01,0.141,0.046,0.272,0.08,0.411c0.085,0.357-0.08,0.601-0.307,0.805
				c-0.182,0.16-0.372,0.146-0.563,0.019c-0.277-0.185-0.363-0.455-0.348-0.792c0.01-0.204,0.061-0.416,0.192-0.545
				c0.433-0.418,0.328-0.819,0.007-1.24c-0.095-0.127-0.172-0.275-0.244-0.426c-0.321-0.678-0.331-0.678-0.97-0.411
				c-0.904,0.381-1.593,1.067-2.167,1.911c-0.362,0.538-0.348,0.549-0.887,0.294c-0.588-0.273-1.242,0.014-1.831-0.246
				c-0.382,0.29-0.861,0.346-1.252,0.591c-0.494,0.316-0.866,0.742-0.895,1.469c-0.026,0.484-0.199,0.549-0.51,0.245
				c-0.168-0.155-0.314-0.274-0.54-0.252c-0.17,0.014-0.321-0.097-0.331-0.272c-0.044-0.557-0.287-1.104-0.128-1.675
				c0.138-0.469,0.163-0.934-0.068-1.386c0.398-0.229,0.918-0.068,1.196-0.805c-0.668,0.28-1.262,0.16-1.806,0.384
				c-0.564,0.231-0.943,0.646-0.975,1.364c-0.005,0.141-0.015,0.297-0.222,0.29c-0.031-0.054-0.102-0.114-0.106-0.182
				c-0.01-0.438-0.176-0.523-0.459-0.244c-0.211,0.205-0.401,0.436-0.567,0.686c-0.189,0.294,0.161,0.428,0.217,0.655
				c0.034,0.155,0.009,0.294-0.095,0.389c-0.148,0.129-0.233-0.01-0.296-0.131c-0.168-0.335-0.406-0.533-0.746-0.367
				c-0.783,0.387-1.554,0.797-2.328,1.204c-0.063,0.037-0.114,0.114-0.165,0.17c-0.839,0.934-1.88,1.546-2.862,2.242
				c-0.294,0.205-0.574,0.323-0.625,0.754c-0.023,0.221-0.177,0.348-0.372,0.362c-0.956,0.11-1.32,0.803-1.425,1.766
				c-0.024,0.192-0.148,0.392-0.119,0.569c0.196,1.398-0.56,1.829-1.588,2.018c-0.153,0.02-0.272,0.124-0.406-0.051
				c-0.119-0.16-0.285-0.1-0.426-0.024c-0.357,0.206-0.603,0.016-0.736-0.327c-0.333-0.81-0.763-1.517-1.356-2.125
				c-0.224-0.229-0.277-0.582-0.109-0.856c0.394-0.641,0.751-1.361,1.6-1.371c0.175,0,0.355-0.063,0.528-0.11
				c0.727-0.19,0.727-0.19,0.554-1.05c-0.054-0.275-0.087-0.557-0.136-0.833c-0.027-0.197-0.056-0.423-0.255-0.484
				c-0.421-0.15-0.574-0.549-0.676-0.948c-0.126-0.501-0.418-0.751-0.827-0.9c-0.392-0.141-0.788-0.2-1.199-0.19
				c-0.912,0.02-1.831,0.062-2.633-0.578c-0.061-0.044-0.139-0.078-0.207-0.097c-0.095-0.029-0.209-0.057-0.287,0.048
				c-0.103,0.126-0.051,0.267,0.024,0.379c0.287,0.438,0.662,0.788,1.041,1.118c0.384,0.329,0.511,0.713,0.498,1.238
				c-0.026,1.218-0.08,2.422-0.411,3.601c-0.095,0.326-0.153,0.664-0.173,0.997c-0.034,0.542,0.054,1.017,0.632,1.179
				c0.412,0.109,0.584,0.503,0.557,0.905c-0.065,0.778,0.046,1.583-0.362,2.305c-0.27,0.491-0.37,1.055-0.187,1.634
				c0.065,0.214,0.092,0.44-0.183,0.712c0.034-0.644-0.576-0.581-0.729-1.055c-0.189-0.591-0.659-0.842-1.189-0.924
				c-0.326-0.059-0.623-0.134-0.9-0.39c-0.333-0.315-0.472-0.264-0.732,0.141c-0.07,0.115-0.113,0.261-0.185,0.373
				c-0.598,0.86-1.074,1.877-2.202,2.044c-0.258,0.044-0.455,0.269-0.564,0.531c-0.219,0.477-0.549,0.827-0.965,1.058
				c-0.392,0.214-0.47,0.549-0.436,0.98c0.063,0.749,0.321,1.413,0.715,2.023c0.457,0.715,0.736,1.517,0.975,2.39
				c-0.513,0.066-0.917-0.335-1.274-0.207c-0.642,0.233-1.077-0.09-1.52-0.462c-0.277-0.23-0.605-0.296-0.915-0.416
				c-0.639-0.239-1.273-0.455-1.735-1.09c-0.25-0.342-0.656-0.53-1.038-0.688c-0.317-0.133-0.542-0.044-0.647,0.345
				c-0.067,0.268-0.114,0.562-0.347,0.729c-0.409,0.3-0.322,0.686-0.122,1.034c0.309,0.557,0.659,1.067,1.002,1.595
				c0.197,0.301,0.435,0.401,0.792,0.284c0.596-0.199,0.601-0.165,0.745,0.519c0.024,0.136,0.058,0.277,0.078,0.416
				c0.112,0.798-0.659,1.551-1.337,1.243c-0.854-0.394-1.775-0.718-2.295-1.692c-0.053-0.095-0.122-0.178-0.191-0.26
				c-0.2-0.255-0.416-0.416-0.734-0.282c-0.353,0.153-0.577-0.078-0.786-0.347c-0.201-0.265-0.287-0.574-0.306-0.932
				c-0.022-0.417,0.08-0.873-0.095-1.257c-0.261-0.564-0.277-1.203-0.582-1.736c-0.131-0.229-0.144-0.462,0.078-0.684
				c0.627-0.634,0.549-1.52,0.433-2.288c-0.092-0.554-0.311-1.189-0.791-1.589c-0.542-0.458-1.301-0.615-1.542-1.477
				c-0.046-0.182-0.298-0.199-0.457-0.274c-0.391-0.185-0.709-0.472-0.919-0.858c-0.382-0.715-0.717-1.469-1.094-2.254
				c0.496-0.141,0.769,0.095,0.939,0.525c0.277,0.686,0.768,1.189,1.39,1.35c0.44,0.116,0.796,0.656,1.328,0.386
				c0.088-0.043,0.17,0.115,0.204,0.212c0.129,0.379,0.343,0.535,0.713,0.406c0.241-0.081,0.438,0.061,0.645,0.189
				c1.001,0.671,2.062,1.165,3.243,1.315c0.402,0.051,0.795,0.211,1.124,0.5c0.27,0.234,0.576,0.346,0.902,0.404
				c3.058,0.547,5.533-1.629,6.403-4.573c0.093-0.323,0.192-0.703,0.044-0.997c-0.357-0.747-0.382-1.568-0.537-2.365
				c-0.081-0.419-0.222-0.833-0.557-0.945c-0.583-0.196-0.771-0.753-1.099-1.193c-0.153-0.222-0.301-0.45-0.467-0.664
				c-0.077-0.112-0.248-0.246-0.32-0.146c-0.399,0.537-0.605-0.007-0.844-0.181c-0.302-0.216-0.521-0.53-0.729-0.858
				c-0.121-0.199-0.262-0.444-0.54-0.141c-0.197,0.202-0.331-0.044-0.394-0.214c-0.229-0.591-0.662-0.995-1.05-1.444
				c-0.761-0.875-1.639-1.604-2.483-2.37c-0.364-0.341-0.799-0.604-1.235-0.844c-0.355-0.2-0.771-0.372-1.172-0.217
				c-0.301,0.112-0.53-0.021-0.797-0.07c-0.725-0.144-1.411-0.684-2.203-0.31c-0.197,0.092-0.414-0.007-0.474-0.289
				c-0.061-0.289-0.297-0.28-0.45-0.406c-0.525-0.401-1.243-0.438-1.634-1.111c0.328,0.056,0.564,0.331,0.885,0.323
				c0.348,0,0.603-0.219,0.703-0.632c0.092-0.367-0.024-0.646-0.341-0.737c-0.461-0.119-0.808-0.459-1.179-0.732
				c-0.149-0.107-0.321-0.172-0.491-0.233c-0.126-0.049-0.29-0.017-0.285,0.163c0.036,0.591-0.579,0.793-0.535,1.455
				c-0.55-0.45-1.018-0.786-1.603-0.81c-0.208-0.013-0.381-0.013-0.554,0.177c-0.314,0.35-0.703,0.227-0.756-0.253
				c-0.049-0.362-0.209-0.527-0.503-0.654c-0.462-0.18-0.833-0.53-1.148-1.028c1.199,0.557,2.149,0.121,2.991-0.795
				c0.068-0.078,0.172-0.104,0.257-0.172c0.464-0.379,0.464-0.693,0.079-1.187c-0.355-0.472-0.876-0.732-1.24-1.196
				c-0.253-0.331-0.591-0.508-0.992-0.472c-0.343,0.032-0.608,0-0.686-0.488c-0.041-0.287-0.261-0.438-0.564-0.45
				c-0.567-0.02-0.888,0.233-0.983,0.912c-0.063,0.442-0.131,0.889-0.088,1.349c0.02,0.165-0.118,0.238-0.267,0.199
				c-0.124-0.034-0.243-0.092-0.209-0.282c0.018-0.081,0.061-0.156,0.104-0.227c0.253-0.423,0.172-0.736-0.243-0.955
				c-0.088-0.049-0.161-0.134-0.124-0.275c0.62-0.226,0.921-0.646,0.843-1.172c-0.042-0.331-0.304-0.508-0.477-0.736
				c-0.202-0.279-0.455-0.153-0.697-0.061c-0.086,0.034-0.197-0.01-0.29-0.046c-0.274-0.126-0.379,0.017-0.404,0.297
				c-0.124,1.176-0.79,2.132-1.094,3.236c-0.034,0.114-0.131,0.175-0.307,0.151c0-0.552-0.278-1.089,0.009-1.675
				c0.081-0.146,0.044-0.391,0.02-0.574c-0.039-0.227-0.08-0.481-0.318-0.535c-0.231-0.057-0.389,0.131-0.481,0.33
				c-0.638,1.347-1.576,2.507-1.975,4.002c-0.07,0.262-0.188,0.508-0.391,0.69c-0.139-0.183-0.071-0.319,0.006-0.428
				c0.246-0.353,0.336-0.758,0.333-1.194c0-0.566,0.209-1.033,0.503-1.478c0.2-0.287,0.418-0.569,0.544-0.917
				c0.059-0.161,0.107-0.331-0.005-0.481c-0.126-0.168-0.316-0.238-0.479-0.11c-0.401,0.299-0.583,0.013-0.797-0.297
				c-0.28-0.398-0.782-0.398-1.043,0.013c-0.105,0.153-0.139,0.36-0.306,0.475c-0.224,0.146-0.243,0.379-0.109,0.581
				c0.304,0.459,0.102,0.7-0.282,0.922c-0.168-0.19-0.153-0.499-0.353-0.652c-0.141-0.114-0.272-0.29-0.469-0.189
				c-0.207,0.097-0.167,0.324-0.148,0.516c0.034,0.337,0.189,0.639,0.129,1.052c-0.2-0.571-0.601-0.62-1.029-0.51
				c-0.065-0.927-0.321-1.138-1.051-0.993c-0.206,0.042-0.381,0.142-0.554,0.255c-0.576,0.385-0.564,0.394-0.287,1.042
				c0.114,0.254,0.243,0.331,0.479,0.284c0.199-0.046,0.401-0.054,0.6-0.095c0.153-0.029,0.234,0.019,0.277,0.182
				c0.1,0.333,0,0.474-0.348,0.477c-0.54,0.007-0.573,0.021-0.425,0.6c0.095,0.365-0.182,0.333-0.297,0.55
				c-0.163-0.671-0.533-0.655-1.055-0.613c-0.44,0.034-0.44,0.202-0.443,0.535c-0.002,0.307,0.105,0.533,0.327,0.727
				c0.493,0.445,0.491,0.455,0.185,1.211c-0.299-0.29-0.462-0.754-0.863-0.866c-0.168,0.105-0.156,0.25-0.182,0.391
				c-0.037,0.234-0.027,0.586-0.358,0.164c-0.104-0.139-0.284,0.041-0.381,0.163c-0.252,0.321-0.436,0.696-0.531,1.116
				c-0.053,0.227,0.081,0.504-0.162,0.75c-0.115-0.304-0.066-0.576-0.02-0.839c0.061-0.282,0.041-0.559-0.034-0.836
				c-0.039-0.163-0.071-0.345-0.252-0.379c-0.163-0.034-0.295,0.068-0.392,0.202c-0.194,0.255-0.257,0.613-0.52,0.817
				c-0.52-0.357-0.53-0.357-0.364-0.984c0.053-0.202,0.104-0.428-0.105-0.511c-0.382-0.148-0.693-0.467-1.118-0.501
				c-0.445-0.034-0.571,0.09-0.421,0.574c0.148,0.501,0.034,0.841-0.268,1.218c-0.267,0.324-0.598,0.569-0.807,0.97
				c-0.167,0.321-0.117,0.472,0.15,0.577c0.487,0.196,0.613,0.681,0.82,1.188c-0.321-0.107-0.379-0.354-0.474-0.583
				c-0.064-0.131-0.168-0.321-0.264-0.268c-0.469,0.251-0.544-0.177-0.746-0.442c-0.21-0.303-0.55-0.316-0.793-0.051
				c-0.189,0.219-0.329,0.518-0.554,0.69c-0.416,0.311-0.46,0.8-0.513,1.26c-0.036,0.233,0.043,0.462-0.071,0.717
				c-0.119,0.292,0.054,0.445,0.365,0.411c0.382-0.042,0.705-0.238,1.086-0.655c-0.102,0.506-0.175,0.825-0.243,1.143
				c-0.256,0.063-0.547-0.165-0.73,0.125c-0.233,0.346-0.634,0.625-0.513,1.16c0.068,0.337-0.165,0.445-0.304,0.632
				c0-0.114-0.01-0.233,0-0.34c0.058-0.475-0.253-0.946,0.07-1.449c0.139-0.222-0.165-0.421-0.401-0.494
				c-0.253-0.08-0.382,0.049-0.392,0.343c-0.01,0.331-0.185,0.557-0.384,0.865c-0.233-0.579-0.355-1.019,0.095-1.485
				c0.257-0.265,0.279-0.715,0.297-1.114c0.005-0.226-0.115-0.367-0.309-0.416c-0.175-0.046-0.318,0.027-0.384,0.199
				c-0.105,0.292-0.251,0.544-0.452,0.769c-0.234,0.268-0.312,0.583-0.2,0.936c0.153,0.455-0.022,0.832-0.172,1.328
				c-0.044-0.168-0.063-0.217-0.079-0.275c-0.09-0.321-0.175-0.681-0.471-0.824c-0.277-0.144-0.146,0.321-0.416,0.433
				c-0.436,0.161-0.851,0.562-0.919,1.187c-0.029,0.214,0.039,0.528,0.185,0.472c0.464-0.204,0.829,0.302,1.264,0.1
				c0,0.195-0.061,0.309-0.172,0.392c-0.55,0.401-1.228,0.557-1.688,1.123c-0.042,0.049-0.156,0.085-0.212,0.056
				c-0.651-0.287-1.067,0.063-1.422,0.625c-0.036,0.066-0.112,0.122-0.182,0.148c-0.703,0.296-0.668,1.063-0.841,1.68
				c-0.051,0.208,0.114,0.303,0.296,0.223c0.086-0.039,0.19-0.121,0.224-0.216c0.365-0.949,1.416-0.953,1.906-1.727
				c0.049-0.073,0.185-0.107,0.275-0.107c0.766,0.022,1.495-0.063,2.049-0.734c0.07-0.083,0.18-0.188,0.272-0.126
				c0.367,0.255,0.462-0.075,0.705-0.277c0.343-0.297,0.63-0.706,1.065-0.858c0.233,0.235,0.28,0.442-0.034,0.668
				c-0.243,0.167-0.459,0.42-0.297,0.764c0.192,0.416,0.01,0.817,0.134,1.215c-0.168,0-0.192-0.08-0.229-0.156
				c-0.297-0.714-0.39-0.731-0.842-0.155c-0.053,0.063-0.131,0.114-0.147,0.185c-0.193,0.732-0.706,0.968-1.306,1.097
				c-0.25,0.053-0.511,0.817-0.362,1.048c0.18,0.28,0.398,0.134,0.603,0.005c0.238-0.161,0.353-0.53,0.681-0.588
				c0.106,0.577-0.307,0.851-0.459,1.243c-0.061,0.168-0.155,0.061-0.238,0c-0.396-0.28-0.683,0.015-0.813,0.325
				c-0.204,0.499-0.607,0.871-0.564,1.532c0.022,0.379-0.208,0.807-0.62,0.984c-0.335,0.161-0.631,0.365-0.607,0.861
				c0,0.156-0.129,0.226-0.216,0.324c-0.606,0.656-0.839,1.437-0.676,2.363c0.007,0.083,0.042,0.194-0.036,0.221
				c-0.571,0.172-0.479,0.966-0.963,1.24c-0.217,0.126-0.364,0.472-0.087,0.71c0.331,0.289,0.182,0.598,0.024,0.814
				c-0.362,0.521-0.598,1.092-0.817,1.702c-0.216,0.596-0.25,0.584,0.341,1.082c-1.15-0.194-1.296,0.919-1.841,1.461
				c-0.139,0.134-0.136,0.42-0.076,0.654c0.042,0.134,0.1,0.261,0.117,0.396c0.068,0.496-0.062,0.623-0.467,0.411
				c-0.214-0.112-0.392-0.175-0.541,0.048c-0.556,0.859-1.369,1.537-1.555,2.67c-0.018,0.1-0.073,0.226-0.146,0.28
				c-0.499,0.335-0.574,0.763-0.19,1.252c-0.265,0.128-0.467,0.226-0.671,0.331c-0.128,0.063-0.277,0.094-0.331-0.068
				c-0.121-0.411-0.586-0.311-0.749-0.671c-0.102-0.236-0.277-0.16-0.448-0.039c-0.148,0.104-0.302,0.197-0.459,0.294
				c-0.243,0.144-0.282,0.246-0.03,0.474c0.268,0.233,0.233,0.637,0.243,0.977c0.002,0.192-0.148,0.406-0.408,0.44
				c-0.01-0.092-0.01-0.168-0.029-0.248c-0.136-0.488-0.309-0.63-0.618-0.488c-0.301,0.131-0.331,0.298-0.092,0.792
				c0.107,0.219,0.104,0.357-0.095,0.476c-0.173,0.112-0.408,0.177-0.479,0.401c-0.114,0.416-0.337,0.56-0.712,0.591
				c-0.263,0.026-0.469,0.266-0.442,0.596c0.026,0.309,0.105,0.618,0.455,0.695c0.126,0.024,0.328-0.061,0.35,0.226
				c-0.194,0.217-0.428,0.085-0.64,0.063c-0.309-0.042-0.601-0.005-0.895,0.117c-0.279,0.104-0.409,0.27-0.409,0.615
				c0.008,0.532-0.01,0.532-0.459,0.391c-0.459-0.146-0.595-0.026-0.569,0.515c0,0.125,0.178,0.217,0.064,0.373
				c-0.156,0.021-0.304,0.049-0.457,0.078c-0.588,0.089-0.586,0.089-0.725,0.785c-0.015,0.104-0.087,0.199-0.139,0.294
				c-0.34,0.545-0.374,0.822-0.01,1.33c0.183,0.252,0.209,0.422,0.054,0.661c-0.211,0.351-0.306,0.745-0.158,1.131
				c0.166,0.431,0.094,0.812-0.024,1.228c-0.161,0.549-0.105,1.094,0.337,1.454c0.277,0.217,0.216,0.346,0.063,0.601
				c-0.283,0.471-0.229,0.729,0.138,1.082c0.105,0.102,0.321,0.042,0.329,0.306c-0.095,0.144-0.209,0.296-0.309,0.46
				c-0.177,0.282-0.25,0.601-0.029,0.855c0.263,0.309,0.151,0.521-0.02,0.81c-0.258,0.436-0.328,0.941-0.333,1.454
				c0,0.112,0.046,0.231,0.161,0.268c0.104,0.034,0.216,0,0.243-0.127c0.166-0.671,0.766-0.403,1.131-0.639
				c0.092-0.061,0.233,0.083,0.257,0.246c0.03,0.172-0.416,1.048-0.564,1.033c-0.51-0.056-0.471,0.379-0.563,0.715
				c-0.148,0.525,0.09,0.902,0.357,1.305c0.514,0.761,1.44,0.917,1.921,1.705c0.022,0.026,0.099,0.036,0.148,0.034
				c0.39-0.056,0.72,0.112,1.067,0.274c0.227,0.115,0.475,0.03,0.647-0.133c0.333-0.309,0.7-0.523,1.106-0.673
				c0.182-0.068,0.375-0.227,0.483-0.402c0.411-0.712,1.08-1.181,1.467-1.94c0.216-0.435,0.52-0.748,1.025-0.714
				c0.379,0.029,0.588-0.221,0.728-0.61c0.165-0.438,0.313-0.871,0.313-1.371c0.104,0.554,0.175,1.086,0.753,1.276
				c0.275,0.085,0.236,0.362,0.229,0.635c-0.054,1.004,0.058,1.953,0.537,2.845c0.185,0.338,0.301,0.717,0.452,1.068
				c0.149,0.342,0.416,0.758,0.382,1.096c-0.071,0.688,0.148,1.219,0.365,1.826c0.304,0.861,0.645,1.646,1.25,2.286
				c0.117,0.119,0.211,0.272,0.107,0.445c-0.516,0.807-0.929,1.741-1.977,1.826c-0.102,0.008-0.231,0.025-0.25,0.146
				c-0.088,0.516-0.431,0.647-0.812,0.754c-0.144,0.04-0.211,0.24-0.124,0.342c0.303,0.368,0.311,0.795,0.347,1.253
				c0.012,0.238,0.216,0.44,0.436,0.546c0.116,0.049,0.26,0.037,0.364,0.107c0.202,0.129,0.224,0.38,0.173,0.589
				c-0.054,0.197-0.236,0.159-0.384,0.107c-0.391-0.137-0.731-0.29-0.832-0.824c-0.075-0.413-0.243-0.803-0.372-1.194
				c-0.107-0.316-0.235-0.464-0.608-0.45c-0.525,0.021-0.975,0.316-1.48,0.36c0.021,0.11,0.043,0.216,0.06,0.326
				c0.202,1.041,0.766,1.617,1.739,1.634c0,0.272-0.032,0.499,0.007,0.712c0.048,0.229,0.158,0.467,0.42,0.187
				c0.153-0.168,0.292-0.049,0.392,0.061c0.452,0.542,1.104,0.27,1.631,0.5c0.112,0.049,0.185-0.063,0.224-0.17
				c0.058-0.124,0.124-0.25,0.141-0.388c0.088-0.691,0.124-1.389,0.651-1.909c0.163-0.175,0.01-0.425-0.092-0.625
				c-0.08-0.161-0.092-0.324,0.048-0.452c0.105-0.095,0.216-0.171,0.346-0.103c0.114,0.053,0.134,0.16,0.102,0.279
				c-0.136,0.504,0.163,0.557,0.491,0.627c0.423,0.093,0.797-0.148,1.199-0.161c1.069-0.041,1.069-0.043,1.069-1.22
				c0.003-0.813,0.599-1.485,1.355-1.5c0.303-0.008,0.61,0.015,0.912,0.022c0.783,0.014,0.783,0.005,1.033-0.778
				c0.095-0.285,0.202-0.566,0.313-0.887c0.16,0.248,0.044,0.435,0.032,0.62c-0.013,0.199-0.059,0.447,0.169,0.501
				c0.207,0.044,0.268-0.209,0.363-0.372c0.009-0.017,0.029-0.048,0.032-0.075c0.284-1.191,0.719-2.341,0.917-3.667
				c-0.503,0.114-0.521,0.54-0.642,0.87c-0.129,0.36-0.165,0.771-0.518,1.187c-0.072-0.634,0.056-1.148,0.17-1.619
				c0.128-0.554,0.166-1.092,0.209-1.656c0.073-1,0.277-2.003,0.267-3.008c-0.007-0.547,0.209-0.766,0.53-0.938
				c0.489-0.263,0.871-0.676,1.422-0.888c0.564-0.229,0.968-0.962,1.308-1.587c0.119-0.231,0.02-0.379-0.219-0.396
				c-0.097-0.005-0.202,0.058-0.321-0.076c0.53-0.257,0.773-0.783,1.026-1.301c0.119-0.248,0.227-0.559,0.078-0.808
				c-0.353-0.59-0.559-1.289-1.043-1.774c-0.128-0.13-0.277-0.248-0.348-0.436c-0.095-0.292-0.262-0.433-0.549-0.499
				c-0.533-0.124-0.851-0.466-0.958-1.135c-0.151-0.921-0.161-1.85-0.221-2.784c-0.017-0.23,0.007-0.453,0.27-0.53
				c0.343-0.1,0.311-0.403,0.26-0.686c-0.068-0.364-0.078-0.729,0.027-1.089c0.153-0.52,0.207-1.041-0.138-1.602
				c0.622-0.078,0.907-0.44,0.946-1.045c0.01-0.141,0-0.353,0.112-0.387c0.807-0.253,0.878-1.174,1.313-1.765
				c0.207-0.287,0.426-0.499,0.693-0.722c0.555-0.446,1.043-0.985,1.688-1.279c0.034-0.021,0.054-0.114,0.095-0.129
				c1.138-0.481,1.651-1.595,2.198-2.674c0.131-0.241,0.289-0.438,0.511-0.613c0.462-0.36,0.499-0.679,0.202-1.23
				c-0.076-0.144-0.209-0.255-0.268-0.408c-0.185-0.47-0.356-0.907,0.047-1.398c0.362-0.438,0.583-1.001,0.362-1.641
				c-0.114-0.333,0.042-0.579,0.278-0.698c0.607-0.308,0.965-0.841,1.174-1.526c0.12-0.379,0.44-0.557,0.854-0.369
				c0.319,0.146,0.55,0.169,0.839-0.064c0.209-0.163,0.499-0.148,0.731-0.021c0.285,0.155,0.501,0.253,0.822-0.007
				c0.212-0.158,0.574,0.139,0.712,0.321c0.351,0.454,0.814,0.769,1.104,1.279c0.228,0.401,0.382,0.797,0.309,1.276
				c-0.034,0.225-0.037,0.441-0.002,0.669c0.095,0.586,0.061,0.701-0.455,0.858c-0.619,0.185-0.902,0.604-1.063,1.272
				c-0.185,0.783-0.733,1.354-1.184,1.948c-0.678,0.895-1.322,1.794-1.806,2.827c-0.263,0.533-0.674,0.924-1.019,1.371
				c-0.199,0.261-0.47,0.331-0.756,0.314c-0.25-0.005-0.53,0.055-0.547,0.337c-0.024,0.567-0.454,0.786-0.712,1.111
				c-0.594,0.728-0.664,1.518-0.387,2.364c0.143,0.437,0.229,0.86,0.17,1.322c-0.044,0.318,0.056,0.593,0.163,0.887
				c0.226,0.591,0.274,1.199,0.28,1.868c0,1.011-0.515,1.957-0.236,2.988c0.103,0.367,0.138,0.651,0.55,0.792
				c0.5,0.166,0.875,0.64,1.381,0.866c0.277,0.129,0.301,0.55,0.153,0.91c-0.063,0.161-0.241,0.35-0.056,0.53
				c0.19,0.17,0.421,0.185,0.639,0.051c0.125-0.071,0.199-0.331,0.37-0.192c0.181,0.141,0.19,0.384,0.139,0.615
				c-0.029,0.129-0.15,0.26-0.022,0.379c0.148,0.134,0.307,0.034,0.414-0.071c0.194-0.196,0.433-0.243,0.673-0.323
				c1.001-0.338,2.001-0.69,2.971-1.104c1.043-0.444,2.093-0.853,3.163-1.208c0.122-0.041,0.28-0.134,0.365-0.085
				c0.601,0.319,1.189-0.104,1.792,0c0.338,0.058,0.511-0.324,0.897-0.506c-0.255,0.668-0.156,1.145,0.387,1.483
				c0.46,0.29,0.844,0.754,1.457,0.521c0.134-0.056,0.309-0.042,0.447,0.002c0.2,0.061,0.392,0.216,0.331,0.484
				c-0.054,0.262-0.28,0.202-0.445,0.158c-0.544-0.178-0.97-0.1-1.449,0.37c-0.287,0.282-0.785,0.566-1.281,0.466
				c-0.329-0.065-0.397,0.144-0.433,0.423c-0.122,0.81-0.122,0.81-0.824,0.822c-0.477,0.015-0.931-0.031-1.391-0.297
				c-0.581-0.335-1.259-0.401-1.901-0.554c-0.07-0.012-0.182-0.02-0.219,0.029c-0.493,0.681-1.259,0.409-1.875,0.612
				c-0.7,0.231-1.232,0.771-1.911,1.017c-0.35,0.121-0.391,0.579-0.35,0.951c0.065,0.559,0.099,1.118,0.138,1.672
				c0.039,0.569,0.28,1.046,0.827,1.315c0.34,0.168,0.569,0.054,0.812-0.119c0.231,0.19,0.083,0.384,0.068,0.559
				c-0.114,0.934-0.229,1.857-0.185,2.792c0.01,0.167,0.01,0.345-0.012,0.512c-0.063,0.567-0.316,0.861-0.813,0.971
				c-0.376,0.081-0.728-0.084-0.919-0.569c-0.289-0.746-0.873-1.244-1.252-1.913c-0.09-0.161-0.229-0.195-0.394-0.18
				c-1.043,0.117-1.758,0.819-2.022,1.996c-0.09,0.358-0.149,0.712-0.331,1.036c-0.496,0.882-0.513,1.886-0.462,2.871
				c0.029,0.525,0.09,1.069,0.149,1.6c0.094,0.773-0.095,1.447-0.521,2.06c-0.236,0.335-0.494,0.632-0.929,0.639
				c-0.357,0.005-0.564,0.241-0.601,0.633c-0.089,0.994-0.884,1.502-1.816,1.59c-0.202,0.019-0.343-0.017-0.435-0.236
				c-0.078-0.202-0.119-0.355,0.104-0.486c0.321-0.182,0.18-0.425,0.012-0.62c-0.323-0.368-0.758-0.486-1.194-0.431
				c-1.198,0.156-2.346,0.538-3.292,1.406c-0.549,0.503-1.128,0.849-1.816,0.99c-0.747,0.156-1.347,0.646-1.957,1.084
				c-0.467,0.326-0.616,0.36-0.893-0.156c-0.189-0.364-0.315-0.78-0.911-0.772c0.659-0.409,0.758-0.647,0.651-1.187
				c-0.078-0.372-0.341-0.486-0.608-0.559c-0.263-0.073-0.384,0.188-0.425,0.387c-0.124,0.498-0.307,0.679-0.732,0.345
				c-0.312-0.243-0.598-0.092-0.797,0.202c-0.263,0.377-0.594,0.608-1,0.727c-0.138,0.037-0.297,0.128-0.396,0.238
				c-0.335,0.375-0.731,0.467-1.22,0.416c-0.027-0.296,0.236-0.403,0.331-0.61c0.183-0.428-0.01-0.819-0.403-0.693
				c-0.519,0.166-0.849-0.34-1.308-0.304c-0.131,0.007-0.304-0.926-0.224-1.155c0.227-0.662,0.163-0.834-0.408-1.067
				c-0.09-0.044-0.195-0.044-0.313-0.059c0.197-0.506-0.02-1.041,0.194-1.515c0.294-0.72,1.055-1.099,1.167-1.955
				c0.005-0.044,0.121-0.081,0.192-0.092c0.209-0.029,0.372-0.168,0.54-0.299c0.287-0.248,0.44-0.552,0.343-0.958
				c-0.1-0.379-0.38-0.4-0.674-0.379c-0.358,0.022-0.514-0.185-0.486-0.574c0.024-0.562,0.002-1.133,0.277-1.648
				c0.148-0.27,0.245-0.562,0.172-0.888c-0.078-0.357-0.128-0.712-0.084-1.089c0.036-0.266-0.112-0.377-0.331-0.251
				c-0.457,0.256-0.955,0.484-1.208,0.995c-0.331,0.671-0.815,0.96-1.469,1.038c-0.45,0.053-0.841,0.301-1.023,0.783
				c-0.36,0.997-0.659,2.027-0.601,3.125c0.036,0.59,0.155,1.174,0.136,1.77c-0.015,0.246,0.046,0.458,0.299,0.506
				c0.555,0.124,0.603,0.591,0.625,1.104c0.025,0.732,0.015,1.476,0.404,2.123c0.109,0.189,0.116,0.369-0.024,0.539
				c-0.217,0.265-0.207,0.499-0.049,0.83c0.224,0.479,0.37,1.009-0.226,1.366c-0.115,0.068-0.165,0.279-0.219,0.433
				c-0.12,0.379-0.268,0.493-0.615,0.248c-0.757-0.542-1.35-0.419-1.981,0.364c-0.122,0.151-0.234,0.336-0.433,0.287
				c-0.513-0.124-0.997,0.131-1.502,0.148c-1.002,0.036-1.485,0.941-1.094,1.942c0.11,0.307,0.11,0.566-0.02,0.797
				c-0.139,0.255-0.185,0.535-0.287,0.885c-0.092-0.175-0.165-0.25-0.155-0.321c0.029-0.613,0.32-1.251-0.217-1.784
				c-0.054-0.043,0.042-0.263,0.058-0.394c0.027-0.163,0.159-0.309-0.022-0.521c-0.333,0.217-0.595,0.557-0.601,0.97
				c-0.02,1.61-0.549,2.947-1.583,4.053c-0.103,0.104-0.195,0.204-0.095,0.353c0.161,0.241,0.12,0.365-0.148,0.346
				c-0.265-0.013-0.306,0.299-0.462,0.376c-0.746,0.345-1.34,1.012-2.159,1.218c-1.021,0.26-1.274,0.63-1.389,1.812
				c-0.012,0.163-0.039,0.345-0.004,0.501c0.075,0.404-0.114,0.64-0.357,0.87c-0.321,0.302-0.722,0.406-1.104,0.562
				c-0.56,0.233-1.087,0.506-1.147,1.3c-0.015,0.319-0.273,0.392-0.484,0.462c-0.528,0.186-1.557-0.25-1.877-0.766
				c-0.19-0.309-0.928-0.513-1.216-0.345c-0.238,0.136-0.253,0.585-0.036,1.089c0.009,0.021,0.021,0.051,0.036,0.071
				c0.372,0.588,0.395,1.254,0.377,1.976c-0.387-0.071-0.744,0.024-1.077,0.105c-0.467,0.111-0.839,0.043-1.184-0.329
				c-0.387-0.409-0.861-0.338-1.27-0.107c-0.282,0.168-0.559,0.248-0.858,0.294c-0.428,0.063-0.851,0.204-1.194,0.521
				c-0.243,0.228-0.428,0.505-0.124,0.851c0.178,0.197,0.211,0.401,0.183,0.681c-0.042,0.464,0.603,1.084,0.999,0.956
				c0.425-0.134,0.793-0.005,1.089,0.234c0.664,0.539,1.563,0.603,2.137,1.352c0.2,0.257,0.521,0.34,0.338,0.778
				c-0.07,0.17-0.01,0.338,0.087,0.477c0.416,0.591,0.679,1.35,1.406,1.595c0.345,0.12,0.52,0.506,0.457,0.8
				c-0.126,0.571,0.029,1.108-0.005,1.661c-0.061,0.985-0.138,1.969-0.243,2.952c-0.085,0.731-0.219,1.453-0.338,2.178
				c-0.078,0.436-0.316,0.679-0.736,0.7c-0.387,0.032-0.759,0.015-1.143-0.034c-0.8-0.109-1.617-0.289-2.415-0.216
				c-0.798,0.075-1.554,0.015-2.336-0.139c-0.808-0.165-1.614-0.537-2.461-0.144c-0.084,0.035-0.196,0.007-0.301,0.007
				c-0.617,0.022-1.208-0.128-1.792-0.36c-0.736-0.287-1.182-0.097-1.572,0.657c-0.129,0.25-0.283,0.379-0.535,0.396
				c-0.176,0.016-0.357,0.031-0.522,0.092c-0.696,0.275-0.808,0.753-0.433,1.468c0.346,0.652,0.683,1.323,0.467,2.145
				c-0.063,0.252,0.043,0.498,0.087,0.749c0.102,0.607,0.379,1.274,0.253,1.824c-0.34,1.522-0.382,3.114-1.089,4.566
				c-0.579,1.196-0.579,1.962,0.644,2.604c0.217,0.116,0.217,0.297,0.209,0.481c-0.036,0.758,0.078,1.52-0.166,2.273
				c-0.189,0.605-0.01,0.839,0.574,0.832c0.773-0.005,1.54,0.141,2.322-0.227c0.798-0.376,1.43,0.081,1.797,0.997
				c0.172,0.443,0.345,0.885,0.632,1.254c0.423,0.552,1.124,0.754,1.471,0.316c0.406-0.511,0.929-0.732,1.427-1.043
				c0.494-0.309,0.988-0.399,1.527-0.434c0.83-0.053,1.656,0.1,2.497-0.019c0.571-0.083,0.917-0.289,1.082-0.846
				c0.221-0.722,0.651-1.128,1.311-1.248c0.367-0.058,0.583-0.238,0.688-0.661c0.192-0.781,0.521-1.477,1.182-1.907
				c0.107-0.066,0.197-0.18,0.277-0.287c0.209-0.282,0.229-0.533-0.053-0.81c-0.78-0.751-0.819-1.298-0.216-2.227
				c0.547-0.854,1.097-1.7,1.607-2.58c0.229-0.37,0.469-0.679,0.86-0.778c1.175-0.312,2.05-1.2,3.036-1.89
				c0.449-0.321,0.77-1.342,0.529-1.86c-0.207-0.433-0.175-0.875-0.252-1.311c-0.081-0.438,0.084-0.768,0.444-0.975
				c0.289-0.177,0.569-0.375,0.851-0.569c0.153-0.115,0.321-0.209,0.494-0.129c0.865,0.406,1.833,0.301,2.696,0.769
				c0.985,0.516,1.301,0.362,2.079-0.447c0.472-0.496,0.875-1.128,1.587-1.248c0.588-0.105,1.031-0.384,1.345-0.987
				c0.207-0.418,0.564-0.792,1.05-0.69c0.817,0.173,1.449,0.771,2.147,1.23c0.051,0.029,0.068,0.143,0.095,0.219
				c0.182,0.564,0.426,1.111,0.513,1.69c0.085,0.625,0.425,1.003,0.788,1.397c0.35,0.372,0.367,1.179,1.104,1.065
				c0.053-0.013,0.144,0.08,0.178,0.15c0.362,0.661,1.023,0.997,1.415,1.636c0.231,0.365,0.574,0.635,0.877,0.944
				c0.25,0.255,0.537,0.396,0.895,0.35c0.598-0.085,0.98,0.246,1.328,0.773c0.297,0.442,0.603,0.987,1.235,0.949
				c0.202-0.01,0.313,0.17,0.348,0.379c0.139,0.8,0.625,1.152,1.296,1.279c0.076,0.015,0.163,0.046,0.175,0.129
				c0.17,0.893,0.676,1.641,0.814,2.551c0.018,0.117,0.035,0.25-0.061,0.306c-0.34,0.216-0.496,0.521-0.503,0.963
				c-0.01,0.189-0.192,0.311-0.375,0.367c-0.856,0.27-1.717,0.505-2.589,0.664c-0.411,0.076-0.814,0.044-1.172-0.229
				c-0.583-0.443-1.162,0.156-1.748,0.015c-0.095-0.02-0.183,0.175-0.233,0.306c-0.202,0.496,0.007,1.214,0.477,1.337
				c1.012,0.273,1.688,1.265,2.711,1.499c0.128,0.026,0.233,0.213,0.352,0.315c0.163,0.134,0.316,0.29,0.499,0.387
				c0.71,0.382,1.199,0.056,1.252-0.817c0.009-0.139-0.004-0.295-0.053-0.416c-0.312-0.732,0.034-1.313,0.335-1.901
				c0.1-0.197,0.204-0.231,0.421-0.078c0.471,0.326,0.688,0.249,0.982-0.294c0.138-0.274,0.279-0.542,0.515-0.717
				c0.207-0.161,0.294-0.401,0.294-0.668c0-0.379,0.151-0.605,0.45-0.793c0.591-0.379,0.688-1.225,0.219-1.777
				c-0.158-0.185-0.347-0.343-0.52-0.496c-0.392-0.341-0.182-0.742-0.043-1.08c0.15-0.372,0.345-0.773,0.78-0.851
				c0.063-0.007,0.153,0.036,0.209,0.085c0.481,0.387,1.155,0.494,1.435,1.191c0.041,0.124,0.168,0.207,0.27,0.28
				c0.173,0.126,0.343,0.112,0.468-0.095c0.121-0.217,0.262-0.484,0.147-0.715c-0.34-0.684-0.637-1.476-1.31-1.794
				c-0.987-0.462-1.802-1.279-2.835-1.624c-0.338-0.117-0.47-0.318-0.217-0.756c0.27-0.491,0-0.897-0.508-0.88
				c-0.231,0.002-0.458,0.063-0.681,0.059c-0.277-0.017-0.583,0.168-0.816-0.047c-0.722-0.659-1.571-1.184-1.904-2.251
				c-0.146-0.483-0.313-0.955-0.461-1.436c-0.112-0.348-0.217-0.701-0.503-0.929c-0.384-0.313-0.754-0.707-1.189-0.902
				c-0.956-0.423-1.048-1.469-0.807-2.354c0.104-0.389,0.128-0.661-0.088-1.019c-0.252-0.401-0.141-0.646,0.304-0.812
				c0.292-0.109,0.564-0.253,0.834-0.408c0.318-0.188,0.639-0.292,0.999-0.141c-0.229,0.712-0.182,1.118,0.192,1.872
				c0.178,0.355,0.338,0.746,0.807,0.438c0.158-0.102,0.227,0.027,0.302,0.146c0.08,0.129,0.127,0.316,0.316,0.296
				c0.085-0.048,0.095-0.124,0.104-0.214c0.013-0.201-0.114-0.503,0.19-0.537c0.25-0.024,0.418,0.153,0.459,0.458
				c0.046,0.376,0.209,0.702,0.455,0.962c0.094,0.098,0.189,0.204,0.143,0.359c-0.175,0.623,0.212,0.937,0.552,1.276
				c0.309,0.295,0.583,0.662,0.89,0.9c0.489,0.379,0.899,1.124,1.682,0.842c0.258-0.093,0.494,0.034,0.528,0.315
				c0.017,0.219-0.226,0.265-0.401,0.29c-0.078,0.012-0.155,0.007-0.228,0.021c-0.126,0.027-0.275,0.059-0.27,0.239
				c0.005,0.218,0.167,0.25,0.326,0.272c0.07,0.014,0.156,0.014,0.224-0.005c0.68-0.258,1.281,0.114,1.801,0.428
				c1.046,0.64,1.945,1.527,2.711,2.563c0.067,0.093,0.126,0.208,0.084,0.311c-0.267,0.676-0.043,1.401-0.172,2.096
				c-0.185,0.988-0.287,1.972,0.766,2.528c0.229,0.12,0.085,0.29-0.037,0.467c-0.241,0.348,0.037,1.128,0.408,1.216
				c0.183,0.043,0.29-0.061,0.331-0.255c0.024-0.136-0.105-0.26,0-0.399c0.52,0.827,1.067,1.648,1.424,2.578
				c0.222,0.568,0.477,0.974,1.104,0.807c-0.008,0.275-0.183,0.238-0.272,0.323c-0.608,0.625-0.608,1.272,0.041,1.84
				c0.272,0.238,0.416,0.475,0.309,0.863c-0.037,0.129-0.037,0.284-0.018,0.418c0.068,0.579,0.345,0.732,0.852,0.469
				c0.15-0.077,0.254-0.051,0.32,0.09c0.087,0.197,0.148,0.414,0.216,0.625c0.047,0.139,0.085,0.292,0.22,0.326
				c0.189,0.054,0.252-0.126,0.321-0.279c0.051-0.116,0.07-0.285,0.223-0.265c0.392,0.197,0.243,0.581,0.287,0.902
				c0.02,0.167,0.104,0.323,0.287,0.335c0.203,0.014,0.253-0.158,0.272-0.335c0.037-0.472,0.12-0.949,0-1.43
				c-0.07-0.271-0.182-0.559-0.158-0.827c0.034-0.364,0.435-0.282,0.642-0.464c0.233-0.197,0.312-0.359,0.114-0.617
				c-0.065-0.083-0.158-0.148-0.226-0.223c-0.107-0.125-0.231-0.263-0.156-0.445c0.084-0.224,0.299-0.172,0.467-0.146
				c0.119,0.012,0.236,0.097,0.34,0.172c0.717,0.494,0.712,0.494,0.749-0.481c0.01-0.07,0.024-0.148,0.034-0.19
				c0.564,0.45,1.215,0.751,1.692,1.335c0.053,0.054,0.139,0.09,0.208,0.095c0.069,0.012,0.149-0.015,0.205-0.066
				c0.092-0.075,0.104-0.226,0.022-0.289c-0.321-0.246-0.46-0.659-0.737-0.953c-0.321-0.34-0.841-0.508-0.963-1.029
				c-0.116-0.513-0.377-0.758-0.808-0.893c-0.457-0.143-0.926-0.486-0.997-0.955c-0.092-0.583-0.362-0.962-0.659-1.385
				c-0.267-0.373-0.425-0.834-0.547-1.294c-0.071-0.277-0.122-0.603,0.144-0.851c0.396,0.262,0.763,0.5,0.97,0.96
				c0.079,0.18,0.195,0.345,0.375,0.403c0.292,0.095,0.53-0.331,0.852-0.136c0.05,0.024,0.077-0.173,0.077-0.292
				c0.008-0.183-0.226-0.302-0.124-0.501c0.258-0.041,0.428,0.347,0.717,0.165c-0.056-0.589-0.593-0.683-0.843-1.089
				c0.328-0.338,0.753-0.359,1.072-0.635c0.036,0.115,0.07,0.168,0.065,0.212c-0.053,0.27-0.073,0.538,0.249,0.583
				c0.294,0.042,0.355-0.187,0.411-0.472c0.1-0.491,0.263-0.571,0.712-0.479c0.727,0.155,1.401,0.464,1.975,1.028
				c-0.063,0.112-0.158,0.246-0.212,0.394c-0.092,0.238-0.18,0.523,0.029,0.708c0.229,0.211,0.45,0,0.588-0.185
				c0.406-0.559,1.002-0.868,1.452-1.367c0.676-0.759,1.459-0.955,2.363-0.734c0.231,0.059,0.452,0.063,0.669-0.041
				c0.233-0.103,0.381-0.28,0.381-0.569c0.01-0.279-0.158-0.389-0.364-0.469c-0.314-0.127-0.615-0.255-0.912-0.414
				c-0.263-0.141-0.547-0.34-0.564-0.656c-0.036-0.688-0.367-1.221-0.635-1.787c-0.148-0.321-0.172-0.586,0.12-0.805
				c0.272-0.204,0.306-0.501,0.301-0.829c0-0.498,0.188-0.87,0.64-1.019c0.364-0.119,0.513-0.427,0.6-0.805
				c0.122-0.474,0.078-0.951,0.092-1.432c0.01-0.287-0.014-0.595,0.19-0.797c0.323-0.321,0.566-0.756,0.967-0.943
				c0.564-0.266,0.723-0.749,0.703-1.364c0-0.224,0.01-0.455,0-0.673c-0.01-0.481,0.192-0.871,0.562-1.026
				c0.458-0.185,0.671-0.54,0.863-0.997c0.138-0.326,0.355-0.62,0.549-0.907c0.329-0.479,0.851-0.447,1.303-0.576
				c0.092-0.024,0.148,0.119,0.207,0.211c0.202,0.287,0.416,0.557,0.459,0.941c0.655,0.12,1.184,0.815,1.94,0.484
				c0.426-0.19,0.863-0.154,1.432,0.262c-0.912,0.1-1.391,0.705-1.923,1.206c-0.318,0.294-0.275,0.574,0.116,0.637
				c0.425,0.073,0.712,0.411,1.089,0.571c0.248,0.112,0.326,0.346,0.335,0.621c0,0.218-0.019,0.449-0.034,0.676
				c-0.026,0.483,0.129,0.749,0.538,0.854c0.27,0.063,0.564,0.095,0.814-0.093c0.637-0.467,1.284-0.921,1.938-1.361
				c0.414-0.275,0.71-0.584,1.208-0.331c0.385,0.197,0.895,0.104,1.08-0.159c0.408-0.585,0.62-0.121,0.884,0.076
				c0.117,0.092,0.192,0.26,0.266,0.403c0.213,0.403,0.445,0.763,0.926,0.763c0.095,0,0.219,0.043,0.277,0.12
				c0.445,0.547,1.08,0.724,1.644,1.041c0.477,0.274,0.914,0.617,1.218,1.128c0.214,0.37,0.542,0.583,0.834,0.854
				c0.175,0.146,0.362,0.221,0.562,0.095c0.489-0.296,0.938-0.122,1.391,0.095c0.751,0.357,1.529,0.747,2.346,0.666
				c1.233-0.121,2.137,0.494,2.991,1.345c0.042,0.034,0.078,0.073,0.111,0.12c0.268,0.311,0.564,0.342,0.897,0.143
				c0.654-0.391,1.279-0.216,1.885,0.139c0.257,0.152,0.671,0.18,0.717,0.547c0.114,0.792,0.664,1.019,1.185,1.305
				c0.658,0.375,1.25,0.824,1.651,1.568c0.312,0.574,1.026,0.64,1.442,0.154c0.226-0.268,0.459-0.523,0.678-0.8
				c0.219-0.282,0.479-0.605,0.25-1.048c-0.408-0.788-0.78-1.59-1.215-2.354c-0.331-0.599-0.409-1.204-0.263-1.868
				c0.065-0.274,0.124-0.549,0.138-0.831c0.01-0.164-0.068-0.438-0.206-0.38c-0.382,0.178-0.348-0.167-0.433-0.352
				c-0.202-0.395-0.367-0.852-0.702-1.092c-0.377-0.268-0.394-0.53-0.214-0.909c0.103-0.226,0.163-0.471,0.294-0.688
				c0.637-1.079,1.1-2.249,1.335-3.527c0.119,0.034,0.129,0.16,0.173,0.26c0.061,0.119,0.104,0.26,0.166,0.381
				c0.226,0.404,0.595,0.487,0.875,0.158c0.273-0.309,0.436-0.72,0.477-1.138c0.04-0.401-0.299-0.54-0.586-0.676
				c-0.097-0.041-0.192-0.1-0.189-0.231c0.007-0.175,0.109-0.26,0.248-0.268c0.323-0.034,0.581-0.119,0.644-0.562
				c0.161-1.177-0.274-2.088-0.997-2.874c-0.126-0.141-0.312-0.187-0.491-0.197c-0.208-0.007-0.406-0.004-0.612-0.017
				c-0.552-0.048-0.662-0.131-0.749-0.734c-0.066-0.423-0.175-0.776-0.564-0.921c-0.377-0.141-0.421-0.448-0.348-0.817
				c0.062-0.335,0.12-0.673,0.362-0.912c0.331-0.323,0.397-0.654,0.202-1.126c-0.238-0.581-0.104-1.218,0.233-1.67
				c0.289-0.397,0.479-0.766,0.555-1.259c0.08-0.465,0.245-0.479,0.559-0.134c0.292,0.321,0.503,0.703,0.656,1.133
				c0.098,0.277,0.255,0.496,0.559,0.477c0.567-0.039,1.016-0.681,0.902-1.291c-0.034-0.168-0.085-0.331-0.126-0.497
				c-0.164-0.69-0.153-0.7,0.379-1.101c0.311-0.229,0.703-0.377,0.826-0.829c0.078-0.312,0.268-0.435,0.514-0.56
				c0.634-0.352,1.259-0.717,1.663-1.432c0.248-0.438,0.639-0.455,1.067-0.172c0.676,0.438,0.681,0.445,1.301-0.122
				c0.277-0.25,0.591-0.346,0.805-0.04c0.386,0.538,0.887,0.487,1.391,0.489c0.279,0.002,0.605-0.061,0.78,0.219
				c0.526,0.851,1.498,1.323,1.671,2.468c0.03,0.177,0.148,0.318,0.331,0.285c0.172-0.024,0.219-0.199,0.252-0.375
				c0.054-0.227-0.07-0.511,0.194-0.717c0.37,0.394,0.771,0.734,1.233,0.967c0.458,0.236,0.839,0.141,1.179-0.243
				c0.107-0.119,0.185-0.275,0.294-0.389c0.457-0.441,1.043-0.82,1.583-0.533c0.542,0.294,0.895,0.248,1.384-0.063
				c0.649-0.403,1.007-0.223,1.313,0.526c0.153,0.367,0.377,0.591,0.725,0.683c0.219,0.059,0.436,0.119,0.64,0.255
				c0.452,0.292,0.734,0.265,1.069-0.169c0.268-0.367,0.481-0.564,0.853-0.188c0.159,0.161,0.38,0.141,0.584,0.117
				c1.043-0.107,1.722-0.825,1.86-1.977c0.051-0.43-0.088-0.771-0.479-0.819c-0.503-0.065-0.919-0.326-1.311-0.62
				c-0.625-0.466-1.38-0.836-1.434-1.876c-0.022-0.46-0.319-0.688-0.72-0.723c-0.253-0.029-0.514-0.046-0.756,0.005
				c-0.392,0.078-0.564-0.097-0.644-0.499c-0.163-0.797-0.333-1.592-0.499-2.394c-0.046-0.234-0.005-0.451,0.104-0.655
				c0.29-0.533,0.519-1.14,0.944-1.532c0.763-0.71,0.897-1.672,1.006-2.66c0.053-0.488-0.185-0.705-0.601-0.537
				c-0.498,0.197-1.023,0.365-1.384,0.846c-0.169,0.221-0.379,0.375-0.654,0.394c-0.629,0.046-1.417-0.426-1.699-1.063
				c-0.129-0.306-0.231-0.627-0.314-0.95c-0.092-0.34-0.318-0.722,0.002-1.026c0.331-0.323,0.607,0.017,0.887,0.197
				c0.018,0.015,0.04,0.035,0.059,0.048c1.043,0.676,2.138,0.135,2.366-1.181c0.034-0.195,0.065-0.385,0.095-0.581
				c0.207-1.515-0.1-1.86-1.452-1.598c-1.028,0.2-1.532-0.211-1.678-1.381c-0.067-0.562-0.058-1.133,0.09-1.678
				c0.173-0.656,0.365-1.298,0.574-1.938c0.224-0.673,0.577-1.242,1.041-1.753c0.384-0.411,0.72-0.875,1.043-1.352
				c0.321-0.472,0.601-0.999,0.555-1.632c-0.062-0.86-0.244-1.667-0.825-2.31c-0.236-0.26-0.418-0.569-0.637-0.844
				c-0.156-0.204-0.268-0.409-0.163-0.69c0.08-0.216,0.053-0.45,0.02-0.673c-0.034-0.275,0.034-0.514,0.243-0.669
				c0.504-0.379,0.737-0.99,1.085-1.51c0.661-1.007,0.493-1.955-0.056-2.908c-0.126-0.219-0.258-0.435-0.335-0.668
				c-0.078-0.217-0.095-0.486,0.202-0.521c0.449-0.058,0.486-0.406,0.51-0.793c0.027-0.486-0.051-0.96-0.199-1.413
				c-0.277-0.878-0.355-1.765-0.102-2.672c0.058-0.235,0.094-0.498,0.119-0.751c0.044-0.404,0.019-0.81-0.289-1.084
				c-0.221-0.204-0.221-0.414-0.117-0.674c0.129-0.309,0.219-0.632,0.365-0.934c0.268-0.576,0.338-1.174,0.177-1.807
				c-0.131-0.506-0.092-1,0.018-1.507c0.315-1.535,1.004-2.976,0.941-4.61c-0.008-0.34,0.235-0.507,0.532-0.447
				c0.989,0.217,1.614-0.449,2.088-1.22c0.882-1.447,1.969-2.665,3.183-3.739c0.547-0.477,0.941-1.017,1.053-1.792
				c0.121-0.815,0.588-1.357,1.215-1.749c0.389-0.248,0.781-0.512,1.172-0.788c0.54-0.375,0.914-0.904,1.07-1.59
				c0.077-0.36,0.235-0.593,0.522-0.778c0.521-0.34,0.751-0.904,0.776-1.561c0.014-0.367-0.002-0.739-0.022-1.102
				C547.54,566.458,547.428,566.348,546.706,566.397z M457.772,606.213c0.17,0.019,0.406,0.09,0.328,0.348
				c-0.07,0.247-0.306,0.152-0.457,0.075c-0.389-0.187-0.761-0.418-1.137-0.62C456.943,606.057,457.354,606.177,457.772,606.213z
				 M464.573,623.022c-0.031,0.189-0.216,0.201-0.366,0.111c-0.134-0.07-0.18-0.204-0.112-0.34c0.148-0.285,0.307-0.567,0.453-0.849
				C464.773,622.346,464.624,622.679,464.573,623.022z M497.907,649.04c-0.439,0.321-0.96,0.481-1.32,0.951
				c-0.083,0.114-0.34,0.059-0.518,0.078c-0.253,0.044-0.513,0.099-0.584,0.438c-0.058,0.311,0.159,0.452,0.34,0.605
				c0.039,0.034,0.085,0.046,0.129,0.083c0.511,0.401,0.53,0.477,0.058,0.921c-0.398,0.379-0.622,0.885-0.919,1.339
				c-0.355,0.542-1.042,0.725-1.614,0.428c-0.501-0.258-1-0.051-1.459,0.114c-0.277,0.102-0.54,0.098-0.81,0.119
				c-0.231,0.029-0.345-0.144-0.486-0.326c-0.365-0.466-0.299-0.98-0.233-1.507c0.007-0.083-0.009-0.189,0.085-0.182
				c0.523,0.024,0.618-0.506,0.893-0.81c0.28-0.319,0.564-0.645,1.019-0.652c0.476-0.012,0.827-0.618,1.357-0.367
				c0.364-0.35,0.802-0.545,1.235-0.781c0.348-0.185,0.684-0.313,1.065-0.379c0.525-0.087,1.052-0.175,1.551-0.384
				c0.126-0.058,0.25-0.061,0.331,0.119C497.99,648.918,497.961,649.001,497.907,649.04z"/><path fill-rule="evenodd" clip-rule="evenodd" fill="#FFFFFF" d="M553.486,507.027c0.205-0.273,0.161-0.576,0.076-0.885
				c-0.078-0.265-0.148-0.542-0.211-0.817c-0.354-1.644-2.154-2.473-3.431-1.573c-0.197,0.137-0.382,0.272-0.628,0.283
				c-0.162,0.006-0.301,0.078-0.374,0.243c-0.158,0.347-0.435,0.525-0.72,0.717c-0.588,0.401-1.041,0.91-0.841,1.8
				c0.061,0.282-0.022,0.6-0.392,0.542c-0.265-0.044-0.372,0.112-0.461,0.331c-0.068,0.158-0.134,0.368-0.297,0.357
				c-0.493-0.034-0.669,0.438-0.997,0.683c-0.426,0.319-0.805,0.922-1.466,0.455c-0.202-0.136-0.436,0.07-0.627,0.214
				c-0.6,0.45-1.155,1.011-2.016,0.893c0.003-0.613-0.408-0.754-0.902-0.781c-0.284-0.015-0.538-0.092-0.8-0.233
				c-0.34-0.189-0.634-0.048-0.841,0.309c-0.219,0.367-0.333,0.734-0.195,1.196c0.185,0.591,0.163,0.599-0.44,0.899
				c0.015-0.272,0.236-0.579-0.087-0.751c-0.279-0.156-0.486,0.015-0.705,0.168c-0.216,0.141-0.494,0.294-0.547,0.562
				c-0.156,0.763-0.696,0.97-1.233,1.238c-0.712,0.35-1.369,0.782-1.515,1.75c-0.034,0.216-0.129,0.326-0.333,0.391
				c-0.69,0.243-0.856,0.9-0.909,1.598c-0.068,0.875-0.321,1.143-1.084,1.072c-0.574-0.048-0.851,0.148-1.113,0.775
				c-0.078,0.207-0.163,0.409-0.278,0.596c-0.111,0.199-0.287,0.328-0.493,0.357c-0.233,0.044-0.252-0.209-0.357-0.357
				c-0.287-0.395-0.747-0.336-0.912,0.119c-0.155,0.425-0.182,0.875-0.026,1.322c0.044,0.144,0.104,0.271,0.258,0.251
				c0.455-0.054,0.299,0.248,0.219,0.481c-0.068,0.18-0.17,0.343-0.241,0.521c-0.172,0.428-0.051,0.652,0.372,0.623
				c0.235-0.005,0.496-0.167,0.666,0.245c-0.36,0.12-0.634,0.401-1.004,0.404c-0.413,0-0.447,0.301-0.398,0.637
				c0.068,0.459,0.335,0.783,0.693,1.019c-0.151,0.167-0.277,0.185-0.396,0.211c-0.248,0.041-0.56-0.078-0.686,0.248
				c-0.141,0.36,0.231,0.438,0.362,0.654c0.027,0.046,0.027,0.104,0.051,0.222c-0.382,0.075-0.756,0.204-0.719,0.782
				c0.007,0.071-0.131,0.154-0.211,0.227c-0.241,0.224-0.418,0.489-0.499,0.832c-0.029,0.136-0.067,0.348-0.146,0.375
				c-0.578,0.211-0.875,0.868-1.419,1.089c-0.406,0.166-0.357,0.442-0.211,0.732c0.262,0.523,0.637,0.918,1.167,1.089
				c-0.226,0.659-0.306,1.279-0.299,1.919c-1.111-0.09-1.882,0.68-1.938,1.887c-0.014,0.389-0.068,0.79-0.484,0.953
				c-0.139,0.054-0.265,0.17-0.382,0.277c-0.627,0.576-0.656,0.931-0.104,1.583c0.336,0.394,0.416,0.787,0.199,1.296
				c-0.165,0.403-0.338,0.834-0.382,1.269c-0.061,0.695-0.401,0.919-0.955,0.88c-0.47-0.043-0.747,0.265-0.841,0.688
				c-0.253,1.063-0.272,2.134,0.207,3.136c0.309,0.651,1.07,0.854,1.581,0.503c0.192-0.122,0.153-0.486,0.459-0.503
				c0.09,0.377,0.036,0.921,0.574,0.783c0.426-0.109,0.549,0.085,0.605,0.493c0.099,0.688,0.404,1.202,1.072,1.364
				c0.07,0.022,0.124,0.085,0.114,0.229c-0.627,0.199-0.7,0.71-0.617,1.366c0.087,0.64,0.503,1.245,1.031,1.072
				c0.69-0.224,0.958,0.233,1.315,0.64c0.067,0.08,0.146,0.163,0.226,0.233c0.2,0.182,0.416,0.25,0.588-0.021
				c0.297-0.455,0.557-0.448,0.931-0.061c0.382,0.384,0.817,0.333,1.267-0.049c0.134-0.115,0.219-0.107,0.314,0.005
				c0.148,0.152,0.29,0.315,0.436,0.469c0.131,0.128,0.287,0.151,0.418,0.01c0.265-0.304,0.54-0.599,0.773-0.93
				c0.205-0.296,0.163-0.639-0.148-0.78c-0.549-0.239-0.912-0.715-1.337-1.109c-0.593-0.55-1.069-1.192-1.243-2.072
				c-0.073-0.389-0.216-0.761-0.418-1.089c-0.279-0.467-0.418-0.99-0.421-1.52c-0.004-0.977-0.491-1.926-0.089-2.908
				c0.034-0.092,0-0.229-0.027-0.341c-0.182-0.799-0.106-1.573,0.243-2.305c0.321-0.662,0.223-1.556,0.946-2.001
				c0.192-0.119,0.28-0.408,0.268-0.676c-0.015-0.287,0.022-0.596,0.139-0.822c0.354-0.639,0.185-1.108-0.324-1.551
				c0.492,0.182,0.863,0.194,1.17-0.316c0.338-0.559,0.797-1.063,0.297-1.809c0.588,0.031,0.892-0.2,0.902-0.635
				c0-0.467-0.357-0.778-0.494-1.202c0.18-0.044,0.241,0.059,0.294,0.144c0.129,0.201,0.233,0.479,0.531,0.365
				c0.264-0.105,0.259-0.387,0.289-0.64c0.065-0.601-0.136-1.096-0.458-1.551c-0.257-0.369-0.252-0.379-0.051-0.914
				c0.148,0.17,0.209,0.392,0.279,0.605c0.093,0.272,0.287,0.464,0.494,0.625c0.209,0.156,0.436,0.119,0.45-0.185
				c0.029-0.294,0.177-0.387,0.342-0.566c0.643-0.678,0.713-1.359,0.335-2.278c-0.049-0.127-0.206-0.258-0.075-0.436
				c0.051,0.034,0.097,0.056,0.133,0.092c0.508,0.525,0.584,0.457,0.856-0.207c0.185-0.45-0.068-0.856,0.017-1.294
				c0.55,0.061,0.795,0.759,1.41,0.716c-0.156-0.56-0.092-0.951,0.44-1.058c0.167-0.037,0.277-0.205,0.287-0.372
				c0.034-0.494,0.313-0.813,0.593-1.153c0.233-0.277,0.302-0.583,0.008-0.888c-0.087-0.095-0.209-0.182-0.104-0.35
				c0.816,0.078,1.539-0.12,2.03-0.929c0.211-0.355,0.45-0.688,0.661-1.038c0.287-0.472,0.659-0.929,1.104-1.119
				c0.562-0.235,0.931-0.668,1.295-1.123c0.297-0.36,0.465-0.878,1.051-0.618c0.078,0.042,0.236-0.083,0.34-0.17
				c0.863-0.739,1.972-1.104,2.667-2.123c0.148-0.199,0.392-0.238,0.625-0.28c1.135-0.219,2.229-0.554,3.015-1.585
				c0.436-0.567,0.926-0.763,1.551-0.452c0.031,0.017,0.084-0.044,0.194-0.095c-0.224-0.434,0.019-0.786,0.192-1.158
				c0.209-0.457,0.459-0.877,0.817-1.208c0.155-0.154,0.321-0.379,0.129-0.584C553.275,507.431,553.324,507.253,553.486,507.027z"/><path fill-rule="evenodd" clip-rule="evenodd" fill="#FFFFFF" d="M445.44,478.784c-0.042,0.612,0.081,1.184,0.338,1.711
				c0.202,0.409,0.263,0.854,0.321,1.296c0.036,0.231,0.104,0.461,0.347,0.496c0.227,0.024,0.387-0.141,0.489-0.347
				c0.095-0.2,0.16-0.421,0.252-0.621c0.056-0.133,0.068-0.345,0.331-0.262c-0.114,0.292-0.114,0.664-0.235,0.883
				c-0.458,0.797,0.111,1.22,0.415,1.755c0.112,0.192,0.385,0.12,0.459,0.358c-0.104,0.102-0.208,0.08-0.302,0.056
				c-0.306-0.068-0.566-0.246-0.807-0.45c-0.124-0.11-0.287-0.139-0.423-0.002c-0.15,0.143-0.072,0.313,0.003,0.455
				c0.112,0.189,0.229,0.379,0.375,0.533c0.233,0.27,0.367,0.515,0.166,0.894c-0.114,0.209-0.141,0.479-0.034,0.735
				c0.389,0.914,0.895,1.707,1.828,2.006c0.12,0.034,0.258,0.032,0.343,0.219c-0.17,0.042-0.338,0.061-0.492,0.112
				c-0.221,0.083-0.35,0.292-0.254,0.528c0.143,0.354,0.191,0.8,0.53,1.002c0.304,0.185,0.483,0.376,0.374,0.799
				c-0.056,0.192,0.034,0.396,0.173,0.531c0.763,0.729,2.121,0.252,2.363-0.839c0.079-0.328,0.112-0.579,0.523-0.552
				c0.337,0.029,0.459-0.307,0.321-0.584c-0.401-0.754-0.168-1.541-0.173-2.319c-0.007-0.173-0.019-0.377,0.173-0.494
				c0.126,0.26,0.128,0.52,0.26,0.742c0.182,0.313,0.479-0.032,0.686,0.139c-0.022,0.584,0.08,1.082,0.435,1.51
				c0.219,0.27,0.401,0.309,0.657,0.129c0.265-0.19,0.533-0.391,0.89-0.654c-0.175,0.905,0.739,0.764,0.904,1.333
				c-0.287,0.348-0.564,0.175-0.861,0.08c-0.617-0.199-1.327,0-1.505,0.819c-0.024,0.107-0.015,0.241-0.119,0.29
				c-0.505,0.248-0.698,0.792-0.956,1.269c-0.07,0.127-0.139,0.263-0.279,0.263c-0.537,0.01-0.997,0.374-1.537,0.423
				c-0.574,0.049-0.756,0.272-0.712,0.922c0.042,0.703,0.129,1.402,0.224,2.098c0.056,0.418,0.343,0.591,0.746,0.418
				c0.323-0.139,0.645-0.156,0.965-0.185c0.523-0.032,1-0.182,1.398-0.583c0.132-0.138,0.29-0.304,0.462-0.189
				c0.336,0.214,0.678,0.021,1.104,0.029c-0.216,0.31-0.391,0.563-0.651,0.555c-0.625-0.015-1.084,0.44-1.625,0.667
				c-0.406,0.177-0.426,0.513-0.08,0.821c0.313,0.282,0.714,0.278,1.072,0.389c0.196,0.061,0.442,0.034,0.557,0.367
				c-0.134-0.01-0.202-0.002-0.272-0.024c-0.583-0.16-1.16-0.428-1.772-0.146c-0.131,0.058-0.17-0.049-0.226-0.141
				c-0.17-0.268-0.416-0.355-0.669-0.216c-0.287,0.153-0.496,0.403-0.506,0.785c-0.012,0.878,0.125,1.716,0.481,2.531
				c0.209,0.493,0.484,0.838,0.929,1.041c0.233,0.107,0.547,0.156,0.623,0.452c0.219,0.886,0.78,0.81,1.393,0.691
				c0.233-0.048,0.494-0.175,0.693,0.117c-0.041,0.144-0.153,0.122-0.246,0.144c-1.16,0.331-1.265,0.931-0.379,1.666
				c0.426,0.354,0.805,0.794,0.759,1.482c-0.01,0.141,0.046,0.284,0.153,0.365c0.513,0.372,1.221,0.097,1.447-0.569
				c0.112-0.321,0.112-0.661,0.076-1.004c-0.044-0.486-0.037-0.962,0.285-1.364c0.235-0.287,0.219-0.671,0.233-1.048
				c0.019-0.758,0.053-1.517,0.087-2.275c0.02-0.324,0.133-0.617,0.355-0.822c0.204-0.197,0.377-0.355,0.275-0.698
				c-0.09-0.306,0.111-0.392,0.331-0.447c0.641-0.156,0.637-0.159,0.749-0.876c0.207-1.281,0.265-2.577,0.231-3.876
				c-0.01-0.34,0.015-0.527,0.391-0.52c0.541,0.007,0.598-0.041,0.584-0.598c-0.042-0.965,0.206-1.911,0.162-2.872
				c-0.019-0.375,0.102-0.646,0.384-0.851c0.17-0.124,0.42-0.234,0.431-0.467c0.017-0.644,0.452-0.836,0.853-1.13
				c0.583-0.435,1.129-0.937,1.911-0.673c0.104,0.036,0.263-0.022,0.365-0.083c0.445-0.271,0.635-1.765,0.28-2.188
				c-0.061-0.076-0.165-0.153-0.253-0.163c-0.851-0.075-1.52-0.523-2.154-1.128c-0.265-0.25-0.494-0.469-0.584-0.844
				c-0.182-0.78-0.554-1.296-1.339-1.378c-0.435-0.042-0.525-0.265-0.499-0.778c0.008-0.114,0.029-0.229,0.054-0.33
				c0.265-1.104-0.226-2.045-0.508-3.03c-0.024-0.099-0.102-0.194-0.18-0.27c-0.482-0.513-0.749-0.425-0.992,0.265
				c-0.131,0.372-0.019,0.761-0.167,1.12c-0.203-0.35-0.373-0.68-0.197-1.137c0.197-0.52,0.192-1.106,0.389-1.634
				c0.131-0.333,0.019-0.664-0.156-0.96c-0.285-0.51-0.625-0.96-1.006-1.381c-0.497-0.557-0.508-0.557-1.218-0.022
				c-0.01-0.343-0.025-0.595-0.035-0.843c-0.009-0.358-0.158-0.65-0.34-0.927c-0.2-0.297-0.396-0.304-0.64-0.065
				c-0.282,0.282-0.411,0.634-0.425,1.047c-0.02,0.37,0.005,0.759-0.185,1.067c-0.389,0.627-0.409,1.34-0.34,2.033
				c0.092,0.984,0.175,1.967,0.243,2.952c0.122,1.621,0.158,3.277,0.851,4.785c0.073,0.148,0.159,0.331,0.09,0.533
				c-0.061-0.04-0.09-0.046-0.102-0.071c-0.392-0.785-0.487-1.733-1.097-2.395c-0.044-0.044-0.044-0.163-0.034-0.243
				c0.068-0.949-0.307-1.829-0.31-2.772c-0.007-0.56-0.111-1.121-0.188-1.68c-0.131-0.884-0.517-1.558-1.283-1.952
				c-0.311-0.161-0.498-0.112-0.596,0.224c-0.207,0.758-0.544,1.452-0.892,2.142c-0.175,0.365-0.114,0.78-0.068,1.174
				c0.059,0.521,0.144,1.046,0.214,1.571c-0.214-0.481-0.252-1.075-0.649-1.394c-0.315-0.246-0.386-0.394-0.202-0.794
				c0.181-0.384,0.027-0.562-0.372-0.591c-0.233-0.015-0.452,0.066-0.668,0.163c-0.17,0.078-0.34,0.252-0.644,0.034
				c0.462-0.175,0.693-0.533,0.921-0.907c0.119-0.209,0.302-0.287,0.521-0.294c0.121-0.007,0.252,0.052,0.374,0.018
				c0.372-0.087,0.649-0.319,0.747-0.747c0.104-0.472,0.041-0.937-0.26-1.274c-0.304-0.34-0.679-0.104-0.98,0.078
				c-0.25,0.141-0.444,0.377-0.688,0.535c-0.445,0.301-0.618,0.245-0.888-0.283c-0.092-0.175-0.169-0.376-0.389-0.287
				c-0.194,0.076-0.219,0.294-0.221,0.499c-0.008,0.26,0.153,0.53-0.032,0.836c-0.297-0.241-0.34-0.601-0.496-0.88
				c-0.207-0.358-0.365-0.399-0.584-0.098c-0.153,0.219-0.268,0.428-0.544,0.518c-0.202,0.066-0.226,0.348-0.182,0.591
				c0.034,0.216,0.163,0.415,0.085,0.754c-0.104-0.195-0.175-0.324-0.253-0.458c-0.068-0.126-0.177-0.197-0.321-0.153
				c-0.146,0.048-0.156,0.199-0.175,0.34c-0.024,0.289,0.036,0.56,0.146,0.822c0.092,0.217,0.15,0.433-0.097,0.579
				c-0.285,0.177-0.29,0.438-0.168,0.728C445.409,478.225,445.458,478.507,445.44,478.784z"/><path fill-rule="evenodd" clip-rule="evenodd" fill="#FFFFFF" d="M414.462,613.999c-0.126-0.287-0.122-0.815-0.482-0.724
				c-0.294,0.07-0.564,0.428-0.731,0.782c-0.062,0.129-0.105,0.329-0.008,0.399c0.392,0.304,0.496,0.895,1.017,1.09
				c0.688,0.26,0.785,0.714,0.252,1.225c-0.516,0.481-0.348,1.191-0.601,1.748c-0.078,0.168,0.148,0.299,0.294,0.294
				c0.418-0.005,0.8-0.136,1.019-0.586c0.08-0.175,0.163-0.34,0.469-0.279c-0.296,0.409-0.182,1.014-0.583,1.272
				c-0.414,0.27-0.635,0.807-1.155,0.907c-0.202,0.036-0.335,0.286-0.321,0.518c0.012,0.318,0.279,0.389,0.486,0.466
				c0.229,0.075,0.364-0.124,0.469-0.338c0.119-0.238,0.233-0.499,0.459-0.657c0.244,0.183,0.348,0.39,0.21,0.713
				c-0.115,0.252-0.192,0.533-0.256,0.802c-0.049,0.209-0.117,0.475,0.139,0.584c0.205,0.083,0.316-0.107,0.404-0.282
				c0.06-0.112,0.06-0.231,0.255-0.214c0.518,0.046,0.725-0.328,0.518-0.841c-0.051-0.12-0.19-0.203-0.231-0.321
				c-0.056-0.19,0.057-0.324,0.222-0.38c0.147-0.051,0.236,0.034,0.279,0.194c0.172,0.754,0.403,1.5-0.107,2.229
				c-0.153,0.217-0.233,0.491-0.348,0.75c-0.183,0.415-0.012,0.777,0.189,1.104c0.203,0.328,0.377,0.082,0.55-0.09
				c0.044-0.042,0.158-0.052,0.211-0.018c0.287,0.173,0.501,0,0.771-0.087c0.494-0.163,0.992-0.304,1.556-0.613
				c-0.124,0.296-0.183,0.45-0.243,0.596c-0.474,1.13-0.182,1.911,0.885,2.361c0.138,0.058,0.24,0.153,0.175,0.304
				c-0.241,0.554-0.092,1.167-0.209,1.743c-0.034,0.183-0.061,0.379-0.227,0.358c-0.615-0.09-1.249,0.396-1.843-0.105
				c-0.102-0.092-0.24-0.121-0.335,0.003c-0.08,0.102-0.036,0.233,0.034,0.308c0.312,0.351,0.105,0.604-0.104,0.861
				c-0.104,0.129-0.212,0.253-0.307,0.379c-0.095,0.132-0.243,0.263-0.148,0.44c0.1,0.187,0.263,0.126,0.411,0.054
				c0.163-0.078,0.331-0.183,0.449,0.07c0.349,0.703,0.198,1.456-0.425,1.925c-0.399,0.302-0.824,0.54-1.243,0.814
				c-0.185,0.115-0.333,0.246-0.309,0.528c0.058,0.632,0.501,0.919,1.019,0.642c0.151-0.075,0.316-0.294,0.467-0.102
				c0.275,0.348,0.567,0.431,0.953,0.306c0.202-0.066,0.312,0.129,0.445,0.26c0.555,0.552,0.649,0.552,1.223,0.073
				c0.088-0.073,0.166-0.228,0.312-0.124c-0.199,0.693-0.649,0.89-1.245,0.798c-0.746-0.107-1.281,0.27-1.655,0.936
				c-0.487,0.885-1.16,1.571-1.817,2.283c-0.172,0.19-0.406,0.351-0.364,0.699c0.583,0.243,1.099,0.272,1.522-0.373
				c0.357-0.542,0.885-0.459,1.398-0.352c0.836,0.187,0.836,0.19,1.182-0.673c0.183-0.46,0.997-0.803,1.267-0.465
				c0.488,0.596,0.995,0.26,1.453,0.09c0.338-0.125,0.613-0.194,0.927,0.005c0.306,0.191,0.586,0.204,0.756-0.221
				c0.037-0.098,0.046-0.261,0.185-0.214c0.586,0.192,1.15-0.095,1.736-0.092c0.904,0.005,1.738-0.333,2.429-1.031
				c0.194-0.194,0.377-0.406,0.292-0.725c-0.078-0.316-0.331-0.299-0.56-0.328c-0.048-0.002-0.102,0-0.153-0.005
				c-0.557-0.084-0.598-0.189-0.292-0.753c0.065-0.117,0.134-0.302,0.224-0.321c0.437-0.104,0.544-0.566,0.816-0.854
				c0.574-0.61,0.615-1.4,0.511-2.205c-0.083-0.659-0.601-1.189-1.184-1.264c-0.46-0.062-0.91,0.005-1.289,0.357
				c-0.097,0.093-0.219,0.187-0.338,0.085c-0.18-0.148-0.056-0.318,0.039-0.438c0.402-0.477,0.375-0.951,0.024-1.446
				c-0.094-0.129-0.224-0.275-0.152-0.45c0.197-0.542-0.032-0.924-0.333-1.296c-0.161-0.195-0.197-0.455-0.295-0.678
				c-0.328-0.759-0.6-1.598-1.466-1.829c-0.126-0.031-0.229-0.126-0.279-0.263c-0.236-0.53-0.608-1.014-0.627-1.626
				c-0.022-0.895-0.323-1.603-0.883-2.249c-0.532-0.62-1.072-1.108-1.901-0.936c-0.117,0.032-0.265,0.037-0.277-0.17
				c0.073-0.138,0.2-0.187,0.326-0.202c0.416-0.08,0.696-0.235,0.416-0.777c-0.07-0.151,0-0.275,0.087-0.39
				c0.793-1.004,0.921-2.368,1.505-3.487c0.346-0.668-0.012-1.254-0.697-1.259c-1.104-0.002-2.22-0.326-3.421,0.389
				c0.19-0.452,0.459-0.693,0.199-1.052c-0.114-0.161,0.088-0.373,0.243-0.46c0.503-0.277,0.756-0.834,1.121-1.254
				c0.265-0.29,0.323-0.735,0.133-1.106c-0.187-0.363-0.518-0.236-0.82-0.173c-0.6,0.105-1.186,0.294-1.806,0.175
				c-0.593-0.119-0.768,0.073-1.135,0.588c-0.562,0.783-0.369,1.977-1.207,2.589c-0.012,0.015-0.014,0.051-0.014,0.085
				c0.024,0.605-0.453,1.245,0.105,1.848C414.664,614.699,414.601,614.315,414.462,613.999z"/><path fill-rule="evenodd" clip-rule="evenodd" fill="#FFFFFF" d="M400.319,580.414c-0.207-0.075-0.176-0.233-0.125-0.406
				c0.17-0.574-0.057-1.05-0.29-1.527c-0.09-0.189-0.219-0.338-0.42-0.151c-0.214,0.202-0.311,0.095-0.36-0.156
				c-0.036-0.233-0.171-0.34-0.376-0.331c-0.358,0.005-0.314-0.241-0.287-0.52c0.078-0.863,0.021-0.939-0.712-1.09
				c0.172-0.557,0.172-0.557,0.695-1.147c0.085-0.103,0.199-0.197,0.117-0.357c-0.068-0.134-0.194-0.175-0.323-0.168
				c-0.209,0.002-0.401,0.085-0.55,0.253c-0.128,0.131-0.253,0.263-0.416,0.357c-0.528,0.289-0.54,0.309-0.773-0.309
				c-0.104-0.282-0.355-0.401-0.479-0.649c-0.211-0.418-0.477-0.382-0.836-0.241c-0.397,0.155-0.407,0.44-0.353,0.797
				c0.017,0.142,0.02,0.289,0.007,0.431c-0.044,0.521-0.287,0.751-0.703,0.546c-0.472-0.238-0.695-0.097-0.885,0.392
				c-0.106,0.292-0.313,0.357-0.518,0.046c-0.117-0.185-0.257-0.345-0.45-0.449c-0.186-0.103-0.389-0.161-0.574,0.005
				c-0.153,0.141-0.148,0.337-0.12,0.542c0.022,0.19,0.183,0.379-0.007,0.73c-0.153-0.503-0.377-0.8-0.557-1.138
				c-0.136-0.241-0.287-0.299-0.505-0.153c-0.582,0.398-1.311,0.688-1.067,1.724c0.005,0.024-0.059,0.078-0.115,0.15
				c-0.301-0.238-0.339-0.683-0.587-0.948c-0.263-0.272-0.436-0.841-0.888-0.583c-0.387,0.227-0.183,0.715-0.131,1.084
				c0.068,0.469,0.144,0.937-0.095,1.384c-0.618-0.358-0.734-0.31-0.887,0.331c-0.018,0.083-0.018,0.17-0.027,0.26
				c-0.027,0.176-0.09,0.329-0.277,0.329c-0.155,0-0.209-0.126-0.231-0.28c-0.029-0.234-0.093-0.438-0.246-0.608
				c-0.129-0.146-0.07-0.297-0.019-0.467c0.311-0.963,0.182-1.449-0.541-2.071c-0.163-0.137-0.255-0.355-0.396-0.501
				c-0.53-0.54-1.007-1.182-1.787-1.318c-0.211-0.042-0.43-0.102-0.537,0.131c-0.11,0.244-0.214,0.547,0.017,0.788
				c0.343,0.36,0.428,0.946,0.905,1.191c0.116,0.063,0.21,0.241,0.109,0.472c-0.36-0.268-0.81-0.245-1.087-0.788
				c-0.285-0.54-0.698-0.42-1.063,0.119c-0.175,0.255-0.338,0.454-0.189,0.812c0.085,0.192,0.014,0.447-0.071,0.67
				c-0.075-0.004-0.144-0.007-0.216-0.016c-0.416-0.037-0.445,0.012-0.321,0.435c0.058,0.191,0.311,0.328,0.172,0.59
				c-0.172,0.081-0.301-0.073-0.45-0.073c-0.252-0.007-0.482,0.292-0.472,0.634c0.01,0.348,0.234,0.335,0.436,0.271
				c0.287-0.092,0.548-0.051,0.808,0.102c0.219,0.136,0.44,0.109,0.656-0.005c0.319-0.168,0.656-0.272,0.956-0.511
				c0.386-0.323,0.753-0.282,1.102,0.081c0.197,0.202,0.367,0.425,0.703,0.398c-0.165,0.302-0.39,0.397-0.562,0.553
				c-0.551,0.508-0.518,0.758,0.161,1.086c0.034,0.015,0.053,0.073,0.104,0.159c-0.357-0.027-0.692-0.09-1.006,0.021
				c-0.669,0.238-1.311,0.576-2.008,0.751c-0.302,0.071-0.348,0.402-0.243,0.688c0.104,0.301,0.353,0.343,0.569,0.204
				c0.552-0.348,1.125-0.224,1.709-0.194c0.314,0.02,0.494,0.124,0.538,0.44c0.059,0.418,0.231,0.759,0.54,0.978
				c0.311,0.219,0.129,0.401,0.039,0.625c-0.164,0.391,0.472,0.236,0.345,0.617c-0.046,0.141-0.141,0.233-0.245,0.304
				c-0.37,0.252-0.737,0.484-1.182,0.379c-0.148,0.319-0.053,0.601-0.044,0.878c0.018,0.352,0.207,0.544,0.513,0.435
				c0.396-0.146,0.808-0.044,1.208-0.076c0.97-0.078,1.918,0,2.624,0.948c0.207,0.275,0.533,0.443,0.865,0.477
				c0.445,0.037,0.836,0.248,1.238,0.423c0.895,0.392,1.923,0.178,2.586-0.549c0.695-0.764,1.369-1.564,2.461-1.598
				c0.252-0.012,0.45-0.245,0.659-0.411c0.664-0.513,1.167-1.23,1.702-1.833c0.148,0.146,0.274,0.293,0.42,0.406
				c0.129,0.104,0.268,0.097,0.406-0.034c0.549-0.525,1.072-1.056,1.169-1.909c0.022-0.182,0.029-0.323,0.204-0.401
				c0.642-0.27,0.807-0.98,1.095-1.561C400.696,581.007,400.781,580.591,400.319,580.414z"/><path fill-rule="evenodd" clip-rule="evenodd" fill="#FFFFFF" d="M458.977,470.738c0.272,0.148,0.566,0.268,0.821,0.44
				c0.484,0.326,0.489,0.516,0.095,0.963c-0.211,0.241-0.411,0.496-0.62,0.744c-0.111,0.129-0.202,0.285-0.131,0.46
				c0.194,0.491,0.35,1.019,0.63,1.439c0.228,0.343,0.542,0.684,1.021,0.62c0.229-0.029,0.457-0.024,0.664,0.132
				c0.197,0.143,0.374,0.044,0.566-0.061c1.106-0.635,2.314-0.773,3.533-0.858c0.25-0.017,0.408,0.141,0.425,0.369
				c0.012,0.229-0.199,0.314-0.381,0.333c-0.404,0.042-0.817,0.042-1.218,0.1c-0.827,0.112-0.98,0.477-0.54,1.335
				c-0.302,0.115-0.511,0.051-0.684-0.148c-0.125-0.141-0.253-0.275-0.436-0.335c-0.248-0.083-0.445,0.034-0.617,0.209
				c-0.149,0.149-0.2,0.345-0.105,0.535c0.321,0.652,0.676,1.291,1.345,1.532c0.299,0.104,0.448,0.252,0.566,0.579
				c0.168,0.467,0.392,0.547,0.778,0.263c0.304-0.226,0.585-0.175,0.866-0.104c0.301,0.085,0.547,0.141,0.86-0.042
				c0.46-0.253,0.781,0.005,0.905,0.586c0.163,0.8,0.484,1.476,1.214,1.819c0.741,0.343,1.73-0.065,1.999-0.825
				c0.277-0.8,0.659-1.057,1.471-0.997c0.148,0.007,0.311-0.014,0.448-0.073c0.724-0.333,1.437-1.784,1.206-2.612
				c-0.131-0.464,0.015-0.681,0.323-0.899c0.482-0.336,0.864-0.781,1.068-1.386c0.117-0.333,0.299-0.564,0.603-0.722
				c0.312-0.156,0.496-0.513,0.365-0.841c-0.271-0.69-0.046-1.337,0.051-1.984c0.08-0.506-0.024-0.871-0.338-1.223
				c-0.319-0.354-0.659-0.61-1.102-0.712c-0.793-0.194-1.585-0.418-2.373-0.603c-0.343-0.076-0.569-0.217-0.545-0.651
				c0.015-0.258-0.039-0.45-0.34-0.395c-0.078,0.015-0.182-0.07-0.272-0.127c-0.712-0.485-0.791-0.464-1.153,0.404
				c-0.043,0.102-0.083,0.207-0.124,0.309c-0.182,0.472-0.365,0.934-0.54,1.403c-0.116,0.323-0.299,0.555-0.63,0.477
				c-0.394-0.093-0.277-0.472-0.289-0.759c-0.01-0.246,0.087-0.428,0.233-0.605c0.583-0.696,0.447-1.554,0.28-2.332
				c-0.168-0.761-0.997-0.878-1.479-0.287c-0.486,0.595-0.477,1.341-0.435,2.076c0.063,0.866-0.075,1.711-0.087,2.582
				c-0.22-0.046-0.261-0.159-0.285-0.261c-0.158-0.508-0.268-1.025-0.32-1.561c-0.071-0.618-0.346-0.775-0.852-0.559
				c-0.194,0.083-0.357,0.224-0.53,0.328c-0.496,0.309-0.645,0.231-0.635-0.374c0-0.231,0.013-0.44-0.124-0.645
				c-0.494-0.756-1.077-1.42-1.736-2.003c-0.139-0.126-0.321-0.248-0.486-0.111c-0.306,0.246-0.449,0.596-0.438,1.025
				c0.013,0.366,0.141,0.584,0.509,0.584c0.216-0.005,0.345,0.146,0.301,0.379c-0.084,0.396,0,0.836-0.172,1.215
				c-0.258-0.085-0.282-0.306-0.348-0.479c-0.111-0.28-0.201-0.576-0.45-0.761c-0.369-0.272-0.634-0.17-0.732,0.309
				c-0.051,0.277-0.07,0.561-0.07,0.841c-0.01,0.438-0.197,0.606-0.573,0.606c-0.278,0-0.558-0.003-0.832,0.053
				c-0.355,0.073-0.603,0.355-0.634,0.752C458.429,470.564,458.76,470.613,458.977,470.738z"/><path fill-rule="evenodd" clip-rule="evenodd" fill="#FFFFFF" d="M411.591,633.863c0.598-0.477,1.196-0.679,1.894-0.63
				c0.382,0.029,0.581-0.114,0.593-0.552c0.015-0.489,0.163-0.939,0.302-1.391c0.07-0.245,0.233-0.472,0.189-0.729
				c-0.173-0.984,0.175-2.027-0.287-2.985c-0.139-0.287-0.068-0.506,0.202-0.71c0.314-0.233,0.591-0.527,0.861-0.824
				c0.372-0.416,0.391-1.118,0-1.51c-0.236-0.238-0.292-0.481-0.341-0.792c-0.17-1.041-0.737-1.479-1.688-1.301
				c-0.224,0.041-0.372,0.021-0.535-0.164c-0.173-0.216-0.433-0.403-0.671-0.216c-0.294,0.216-0.625,0.216-0.929,0.326
				c-0.552,0.2-1.033,0.489-1.165,1.191c-0.046,0.209-0.163,0.345-0.272,0.494c-0.337,0.466-0.316,0.525,0.188,0.751
				c0.106,0.049,0.267,0.01,0.292,0.202c-0.712,0.847-0.712,0.836-1.683,0.629c-0.175-0.039-0.355-0.031-0.53-0.043
				c-0.229-0.021-0.384,0.102-0.505,0.302c-0.192,0.301-0.234,0.681-0.45,0.97c-0.124,0.153,0.042,0.296,0.148,0.423
				c0.117,0.131,0.381,0.005,0.406,0.299c-0.114,0.156-0.221,0.309-0.331,0.472c-0.328,0.493-0.304,0.753,0.139,1.115
				c0.379,0.321,0.817,0.446,1.444,0.431c-0.712,0.589-0.712,1.51-1.243,2.045c0.051,0.703-0.284,1.012-0.861,1.153
				c-0.236,0.053-0.416,0.396-0.192,0.573c0.27,0.212,0.27,0.331,0.115,0.586c-0.081,0.12-0.081,0.265,0.036,0.375
				c0.18,0.16,0.272,0.387,0.399,0.576c0.163,0.258,0.459,0.542,0.8,0.519c0.449-0.034,0.892-0.034,1.347-0.195
				C410.12,634.953,410.881,634.429,411.591,633.863z"/><path fill-rule="evenodd" clip-rule="evenodd" fill="#FFFFFF" d="M471.559,496.574c0.202-0.019,0.345-0.299,0.18-0.433
				c-0.423-0.35-0.622-0.885-0.985-1.279c-0.235-0.26-0.447-0.345-0.693-0.002c-0.25,0.34-0.52,0.294-0.761-0.039
				c-0.258-0.353-0.516-0.696-0.759-1.063c-0.191-0.285-0.161-0.55,0.063-0.829c0.431-0.547,0.46-1.046,0.022-1.469
				c-0.246-0.238-0.44-0.52-0.691-0.873c-0.634,0.987-1.493,1.089-2.448,0.858c0.156-0.238,0.355-0.279,0.562-0.292
				c0.435-0.014,0.6-0.285,0.668-0.744c0.063-0.411,0-0.895,0.285-1.216c0.359-0.406,0.297-0.717-0.041-1.065
				c-0.105-0.114-0.172-0.272-0.258-0.413c-0.379-0.64-1.094,0.08-1.52-0.472c-0.089-0.119-0.34-0.006-0.498,0.107
				c-0.017,0.013-0.051,0.025-0.061,0.049c-0.301,0.618-0.863,0.814-1.391,1.077c-0.369,0.188-0.425,0.403-0.104,0.69
				c0.35,0.318,0.472,0.71,0.54,1.165c0.034,0.219,0.126,0.428,0.192,0.644c0.156,0.555,0.448,0.927,1.145,0.815
				c-0.243,0.204-0.384,0.309-0.521,0.436c-0.42,0.394-0.469,0.654-0.163,1.147c0.194,0.321,0.323,0.705,0.642,0.931
				c0.311,0.226,0.338,0.591,0.183,0.9c-0.435,0.851-0.216,1.986-0.972,2.684c-0.054,0.051-0.071,0.151-0.09,0.236
				c-0.139,0.644,0.148,1.043,0.758,1.009c0.271-0.015,0.547-0.146,0.815-0.141c0.627,0.004,1.14-0.199,1.495-0.896
				c0.321,0.635,0.116,1.185-0.034,1.695c-0.119,0.389-0.241,0.697,0.15,0.934c0.329,0.204,0.492,0.115,0.815-0.438
				c0.112-0.202,0.241-0.367,0.45-0.42c0.712-0.17,1.03-0.839,1.276-1.461C470.188,497.506,470.508,496.647,471.559,496.574z"/><path fill-rule="evenodd" clip-rule="evenodd" fill="#FFFFFF" d="M516.561,465.324c-0.275,0.375-0.552,0.343-0.821,0.002
				c-0.538-0.683-0.55-0.693-1.233-0.245c-0.244,0.156-0.477,0.323-0.678,0.537c-0.209,0.214-0.618,0.407-0.426,0.779
				c0.156,0.308,0.443-0.061,0.676-0.105c0.194-0.034,0.472-0.136,0.499,0.168c0.032,0.28-0.265,0.143-0.408,0.197
				c-0.051,0.02-0.105,0.02-0.148,0.034c-0.151,0.056-0.272,0.158-0.287,0.35c-0.02,0.185,0.063,0.321,0.194,0.428
				c0.16,0.128,0.414,0.08,0.533,0.401c-0.781,0.224-0.96,0.185-1.311-0.265c-0.382-0.479-0.486-0.484-0.895-0.042
				c-0.477,0.518-0.503,0.73-0.209,1.418c0.071,0.158,0.136,0.312,0.214,0.452c0.326,0.596,0.554,0.637,0.977,0.131
				c0.263-0.309,0.54-0.535,0.932-0.421c0.172,0.049,0.277,0.241,0.084,0.35c-0.337,0.197-0.452,0.521-0.54,0.873
				c-0.056,0.217-0.128,0.453,0.043,0.64c0.175,0.199,0.377,0.097,0.565,0.012c0.187-0.083,0.367-0.199,0.559-0.277
				c0.576-0.233,0.897-0.656,0.912-1.383c0.014-0.362,0.084-0.729,0.111-1.089c0.051-0.766,0.277-0.946,0.936-0.8
				c0.87,0.187,1.208-0.083,1.167-1.046c-0.017-0.405,0.126-0.568,0.408-0.688c0.148-0.056,0.297-0.141,0.438-0.141
				c1.191-0.037,1.787-1.089,2.516-1.87c0.36-0.379,0.266-0.807-0.128-1.158c-0.306-0.263-0.61-0.464-1.041-0.42
				c-0.445,0.039-0.559-0.117-0.622-0.628c-0.025-0.17-0.003-0.343-0.029-0.505c-0.091-0.564-0.717-1.014-1.143-0.766
				c-0.844,0.496-1.568,1.158-2.06,2.089c-0.265,0.503-0.095,0.904,0.406,1.121c0.516,0.219,0.576,0.329,0.352,0.856
				C516.955,464.67,516.783,465.024,516.561,465.324z"/><path fill-rule="evenodd" clip-rule="evenodd" fill="#FFFFFF" d="M535.88,466.603c0.142,0.243,0.399,0.277,0.611,0.144
				c0.457-0.28,0.883-0.114,1.318,0.056c0.116,0.048,0.243,0.085,0.356,0.141c0.417,0.211,0.717,0.076,0.99-0.316
				c0.428-0.632,0.895-1.23,1.32-1.862c0.739-1.079,0.817-2.283,0.409-3.528c-0.2-0.612-0.834-0.851-1.303-0.439
				c-0.504,0.438-1.104,0.56-1.668,0.775c-0.202,0.08-0.353,0.102-0.55-0.095c-0.474-0.462-1.147-0.359-1.483,0.231
				c-0.41,0.725-0.664,1.524-0.695,2.359c0.026,0.345,0.112,0.664,0.07,0.96C535.159,465.723,535.594,466.119,535.88,466.603z"/><path fill-rule="evenodd" clip-rule="evenodd" fill="#FFFFFF" d="M528.074,462.786c0.238-0.159,0.516-0.234,0.768-0.363
				c0.645-0.316,0.657-0.382,0.253-1.067c0.2,0.111,0.406,0.216,0.589,0.367c0.167,0.126,0.306,0.294,0.444,0.455
				c0.283,0.325,0.562,0.659,0.839,0.987c0.144,0.172,0.309,0.287,0.532,0.229c0.425-0.095,1.165-0.9,1.114-1.371
				c-0.053-0.45,0.138-0.606,0.394-0.808c0.146-0.104,0.274-0.248,0.391-0.392c0.309-0.389,0.318-0.576-0.002-0.946
				c-0.229-0.262-0.486-0.496-0.713-0.761c-0.611-0.742-1.435-1.041-2.239-1.386c-0.178-0.078-0.395-0.056-0.604-0.066
				c-0.131,0-0.243,0.066-0.306,0.207c-0.068,0.156,0.01,0.277,0.104,0.372c0.306,0.304,0.608,0.594,0.919,0.887
				c0.185,0.188,0.404,0.355,0.438,0.756c-0.384-0.342-0.702-0.624-1.016-0.909c-0.324-0.292-0.673-0.413-1.052-0.141
				c-0.319,0.221-0.565,0.104-0.808-0.159c-0.292-0.313-0.608-0.598-0.912-0.899c-0.148-0.141-0.312-0.207-0.479-0.049
				c-0.52,0.469-0.511,1.558,0.026,2.003c0.353,0.287,0.73,0.546,1.172,0.875c-0.753-0.002-1.362,0.204-1.955,0.452
				c-0.535,0.217-0.674,0.841-0.248,1.184C526.418,462.802,527.133,463.423,528.074,462.786z"/><path fill-rule="evenodd" clip-rule="evenodd" fill="#FFFFFF" d="M542.793,463.372c0.549-0.098,1.114-0.139,1.655-0.272
				c1.136-0.274,2.772-2.072,2.578-3.499c-0.039-1.075-0.177-1.996-0.936-2.662c-0.712-0.62-1.342-0.455-1.678,0.488
				c-0.159,0.445-0.287,0.909-0.436,1.362c-0.107,0.342-0.297,0.588-0.656,0.59c-0.625,0.003-1.023,0.395-1.359,0.946
				c-0.841,1.389-0.885,1.313,0.166,2.757C542.307,463.323,542.514,463.428,542.793,463.372z"/><path fill-rule="evenodd" clip-rule="evenodd" fill="#FFFFFF" d="M531.4,465.762c-0.36,0.141-0.404,0.261-0.209,0.618
				c0.08,0.146,0.187,0.27,0.255,0.416c0.08,0.148,0.114,0.331,0.019,0.479c-0.095,0.146-0.233,0.049-0.353,0.015
				c-0.518-0.144-1.004,0.056-1.495,0.175c-0.307,0.076-0.464,0.333-0.479,0.679c-0.01,0.226-0.039,0.462,0.015,0.676
				c0.114,0.503,0.024,0.921-0.25,1.347c-0.274,0.439-0.166,0.707,0.287,0.9c0.343,0.153,0.709,0.06,1.058,0.121
				c0.688,0.136,1.271,0.037,1.437-0.882c0.207,0.141,0.354,0.248,0.513,0.335c0.684,0.399,0.997,0.233,1.659-0.661
				c0.364-0.499,0.274-0.81-0.29-1.391c0.428-0.601,0.428-0.601,1.279-0.527c0.221,0.02,0.479,0.095,0.618-0.176
				c0.139-0.259-0.008-0.491-0.139-0.702C534.607,466.042,532.589,465.31,531.4,465.762z"/><path fill-rule="evenodd" clip-rule="evenodd" fill="#FFFFFF" d="M442.929,665.143c0.279-0.615,0.398-1.279,0.469-1.989
				c-0.095-0.61-0.199-1.25-0.219-1.906c-0.002-0.109-0.068-0.216-0.173-0.252c-0.109-0.047-0.216,0.01-0.252,0.122
				c-0.153,0.471-0.52,0.684-0.885,0.873c-0.416,0.216-0.521,0.625-0.486,1.055c0.08,0.841,0.158,1.702,0.783,2.319
				c0.122,0.122,0.221,0.299,0.087,0.438c-0.374,0.382-0.618,1.024-1.286,0.875c-0.294-0.066-0.354,0.139-0.375,0.384
				c-0.027,0.29,0.044,0.559,0.229,0.779c0.272,0.311,0.328,0.685,0.312,1.099c-0.01,0.394,0,0.782-0.081,1.172
				c-0.117,0.632-0.034,1.245,0.306,1.789c0.365,0.579,0.657,0.613,1.104,0.127c0.112-0.117,0.163-0.333,0.328-0.333
				c0.833-0.007,0.81-0.703,0.833-1.313c0.044-0.816,0.044-1.638,0.04-2.46c-0.002-0.717-0.144-1.417-0.615-1.947
				C442.808,665.705,442.783,665.467,442.929,665.143z"/><path fill-rule="evenodd" clip-rule="evenodd" fill="#FFFFFF" d="M509.206,464.942c0.309,0.251,0.632,0.477,0.948,0.71
				c0.212,0.156,0.433,0.299,0.533,0.582c0.158,0.427,0.423,0.406,0.744,0.258c0.287-0.132,0.547-0.279,0.746-0.562
				c0.248-0.348,0.526-0.679,0.79-1.019c0.331-0.406,0.579-0.846,0.633-1.41c0.029-0.275,0.073-0.563,0.34-0.689
				c0.131,0.025,0.187,0.126,0.216,0.229c0.175,0.754,0.712,1.063,1.291,1.306c0.448,0.182,0.613,0.065,0.601-0.472
				c-0.015-0.54-0.114-1.073-0.254-1.583c-0.115-0.402-0.392-0.676-0.73-0.815c-0.428-0.17-0.871-0.321-1.32-0.382
				c-0.471-0.056-0.899,0.112-1.113,0.667c-0.146,0.372-0.321,0.717-0.645,0.921c-0.588,0.387-1.148,0.824-1.885,0.802
				c-0.243-0.007-0.505,0.095-0.729,0.205c-0.292,0.131-0.705,0.188-0.727,0.631C508.627,464.672,508.988,464.765,509.206,464.942z"
				/><path fill-rule="evenodd" clip-rule="evenodd" fill="#FFFFFF" d="M518.416,558.918c-0.562-0.059-0.792-0.562-1.126-0.912
				c-0.707-0.729-1.402-0.651-1.942,0.236c-0.462,0.758-0.613,1.605-0.582,2.502c0,0.387-0.131,0.78,0.018,1.167
				c0.043,0.126,0.172,0.343,0.211,0.315c0.396-0.437,0.589,0.261,0.919,0.205c0.138-0.021,0.313,0.073,0.442-0.026
				c0.525-0.414,1.206-0.586,1.548-1.296c0.151-0.309,0.34-0.642,0.762-0.569c0.114,0.019,0.175-0.089,0.209-0.199
				C518.99,560.056,518.671,558.947,518.416,558.918z"/><path fill-rule="evenodd" clip-rule="evenodd" fill="#FFFFFF" d="M445.576,488.013c0.073,0.453,0.202,0.912,0.586,1.138
				c0.668,0.399,0.912,1.09,1.146,1.805c0.068,0.213,0.124,0.442,0.311,0.564c0.114,0.061,0.229,0.146,0.36,0.085
				c0.156-0.066,0.129-0.217,0.129-0.459c0.046-0.438-0.353-0.829-0.375-1.342c-0.007-0.304-0.161-0.527-0.362-0.717
				c-0.617-0.589-0.883-1.401-0.931-2.25c-0.044-0.829-0.535-1.376-0.817-2.057c-0.078-0.189-0.293-0.331-0.513-0.29
				c-0.265,0.054-0.243,0.322-0.257,0.542c-0.02,0.309-0.042,0.646,0.126,0.904C445.363,486.569,445.462,487.287,445.576,488.013z"
				/><path fill-rule="evenodd" clip-rule="evenodd" fill="#FFFFFF" d="M531.04,453.634c0.555,0.267,1.119,0.5,1.692,0.746
				c0.168,0.066,0.34,0.09,0.457,0.125c0.44-0.025,0.771-0.2,0.953-0.555c0.19-0.375-0.029-0.717-0.226-1.011
				c-0.148-0.219-0.338-0.409-0.52-0.608c-0.793-0.89-1.09-0.91-1.992-0.129c-0.183,0.153-0.353,0.329-0.506,0.51
				C530.486,453.201,530.507,453.374,531.04,453.634z"/><path fill-rule="evenodd" clip-rule="evenodd" fill="#FFFFFF" d="M474.216,681.61c-0.537,0.188-1.006-0.121-1.461-0.279
				c-0.822-0.284-1.777,0.141-2.519-0.595c-0.07-0.076-0.243-0.032-0.367-0.042c-0.466-0.027-0.737,0.211-0.776,0.688
				c-0.036,0.411,0.081,0.523,0.659,0.535c0.598,0.005,1.157,0.114,1.617,0.586c0.131,0.146,0.302,0.197,0.486,0.195
				c0.703-0.098,1.398-0.229,2.111-0.248c0.265-0.005,0.364-0.277,0.42-0.533C474.42,681.771,474.34,681.572,474.216,681.61z"/><path fill-rule="evenodd" clip-rule="evenodd" fill="#FFFFFF" d="M484.243,471.125c0.068-0.014,0.144-0.024,0.216-0.041
				c1.174-0.219,2.206-0.831,3.231-1.427c0.056-0.022,0.09-0.063,0.126-0.097c0.188-0.202,0.181-0.401-0.021-0.579
				c-0.292-0.248-0.601-0.277-0.907-0.017c-0.578,0.494-1.261,0.705-1.933,0.96c-0.29,0.104-0.581,0.216-0.861,0.335
				c-0.199,0.093-0.362,0.229-0.314,0.51C483.837,471.032,484.01,471.125,484.243,471.125z"/><path fill-rule="evenodd" clip-rule="evenodd" fill="#FFFFFF" d="M412.694,611.227c-0.243,0.175-0.263,1.576-0.017,1.741
				c0.392,0.272,0.53-0.261,0.788-0.416c0.043-0.032,0.09-0.062,0.134-0.093c0.544-0.345,0.486-1.019,0.717-1.427
				c-0.092-0.36,0.099-0.679-0.197-0.8c-0.238-0.1-0.433,0.097-0.627,0.224C413.186,610.653,412.999,611.003,412.694,611.227z"/><path fill-rule="evenodd" clip-rule="evenodd" fill="#FFFFFF" d="M477.754,485.105c0.233-0.282,0.554-0.391,0.868-0.474
				c0.314-0.092,0.409,0.271,0.618,0.411c0.398,0.285,1.128-0.068,1.192-0.576c-0.008-0.153-0.088-0.346-0.203-0.277
				c-0.505,0.314-0.773-0.172-1.143-0.35c-0.238-0.116-0.542-0.435-0.759-0.165c-0.296,0.374-0.738,0.459-1.043,0.802
				c-0.209,0.236-0.462,0.438-0.228,0.754C477.302,485.565,477.545,485.342,477.754,485.105z"/><path fill-rule="evenodd" clip-rule="evenodd" fill="#FFFFFF" d="M523.072,546.116c-0.277-0.043-0.521,0.073-0.625,0.358
				c-0.104,0.294,0.071,0.515,0.287,0.603c0.442,0.175,0.591,0.581,0.734,1.004c0.117,0.343,0.248,0.681,0.376,1.012
				c0.043,0.104,0.122,0.185,0.246,0.148c0.11-0.041,0.164-0.141,0.151-0.258c-0.041-0.389-0.083-0.783,0.029-1.104
				C524.314,547.014,523.771,546.238,523.072,546.116z"/><path fill-rule="evenodd" clip-rule="evenodd" fill="#FFFFFF" d="M412.123,595.449c0.396,0.046,0.605,0.227,0.683,0.64
				c0.027,0.138,0.071,0.269,0.139,0.386c0.081,0.144,0.209,0.282,0.372,0.185c0.158-0.092,0.212-0.313,0.1-0.433
				c-0.389-0.423-0.133-0.754,0.076-1.111c0.078-0.151,0.141-0.303,0.192-0.462c0.097-0.318-0.034-0.496-0.313-0.525
				c-0.124-0.02-0.25,0.024-0.409,0.041c-0.486-0.121-0.846,0.073-1.089,0.613C411.659,595.248,411.668,595.401,412.123,595.449z"/><path fill-rule="evenodd" clip-rule="evenodd" fill="#FFFFFF" d="M431.414,669.359c-0.411,0.142-0.803,0.348-1.094,0.71
				c-0.255,0.311-0.207,0.586,0.141,0.702c0.192,0.063,0.367,0.126,0.54,0.253c0.54,0.394,1.107,0.054,1.128-0.664
				C432.141,669.957,431.669,669.272,431.414,669.359z"/><path fill-rule="evenodd" clip-rule="evenodd" fill="#FFFFFF" d="M423.057,603.612c0.044,0.024,0,0.267,0,0.398
				c0,0.166-0.068,0.346,0.139,0.479c0.272-0.104,0.445-0.343,0.489-0.659c0.114-0.873,0.156-1.738-0.459-2.482
				c-0.263,0.1-0.54,0.338-0.457,0.637C422.919,602.515,422.27,603.228,423.057,603.612z"/><path fill-rule="evenodd" clip-rule="evenodd" fill="#FFFFFF" d="M463.233,481.685c-0.396-0.061-0.634,0.181-0.678,0.688
				c-0.035,0.457,0.285,0.921,0.673,0.97c0.43,0.061,0.946-0.331,0.968-0.734C464.211,482.253,463.693,481.755,463.233,481.685z"/><path fill-rule="evenodd" clip-rule="evenodd" fill="#FFFFFF" d="M408.788,549.625c0.051-0.012,0.119-0.004,0.144-0.039
				c0.375-0.459,0.921-0.557,1.381-0.844c0.323-0.197,0.521-0.528,0.576-0.943c0.049-0.357-0.141-0.525-0.452-0.44
				c-0.161,0.036-0.285,0.143-0.362,0.284c-0.258,0.469-0.647,0.781-1.029,1.104c-0.182,0.155-0.345,0.34-0.426,0.583
				C408.566,549.489,408.627,549.599,408.788,549.625z"/><path fill-rule="evenodd" clip-rule="evenodd" fill="#FFFFFF" d="M474.384,485.419c-0.043,0.124-0.068,0.265-0.09,0.352
				c0.036,0.455,0.185,0.813,0.367,1.155c0.148,0.263,0.355,0.416,0.632,0.229c0.284-0.192,0.34-0.501,0.185-0.805
				c-0.185-0.362-0.401-0.706-0.635-1.031C474.661,485.066,474.486,485.152,474.384,485.419z"/><path fill-rule="evenodd" clip-rule="evenodd" fill="#FFFFFF" d="M459.82,469.024c0.243-0.043,0.564-0.535,0.547-0.836
				c-0.015-0.338-0.472-0.807-0.781-0.802c-0.263,0.007-0.6,0.52-0.571,0.877C459.037,468.577,459.56,469.066,459.82,469.024z"/><path fill-rule="evenodd" clip-rule="evenodd" fill="#FFFFFF" d="M473.115,547.738c-0.205,0.012-0.749,0.452-0.756,0.608
				c-0.009,0.411,0.299,0.742,0.683,0.732c0.433-0.002,0.769-0.238,0.749-0.52C473.773,548.223,473.365,547.729,473.115,547.738z"/><path fill-rule="evenodd" clip-rule="evenodd" fill="#FFFFFF" d="M474.235,670.794c-0.27,0.063-0.557,0.175-0.739,0.469
				c-0.078,0.119-0.068,0.265,0.029,0.379c0.265,0.317,0.904,0.472,1.247,0.309c0.095-0.042,0.185-0.09,0.2-0.218
				C475.03,671.389,474.581,670.794,474.235,670.794z"/><path fill-rule="evenodd" clip-rule="evenodd" fill="#FFFFFF" d="M419.509,608.88c0.127,0.062,0.305,0.063,0.338-0.056
				c0.127-0.44,0.379-0.44,0.7-0.336c0.1,0.027,0.192-0.077,0.222-0.189c0.041-0.136-0.03-0.216-0.122-0.274
				c-0.148-0.1-0.343-0.081-0.472-0.241c-0.139-0.175-0.252-0.484-0.53-0.329c-0.235,0.126-0.211,0.414-0.224,0.669
				c-0.002,0.112-0.029,0.216-0.045,0.331C419.339,608.627,419.339,608.791,419.509,608.88z"/><path fill-rule="evenodd" clip-rule="evenodd" fill="#FFFFFF" d="M464.08,674.489c0.128-0.333-0.029-0.533-0.146-0.744
				c-0.105-0.189-0.231-0.319-0.426-0.168c-0.194,0.146-0.401,0.379-0.187,0.615c0.248,0.275,0.345,0.564,0.345,0.937
				c0,0.092,0.09,0.197,0.153,0.275c0.126,0.153,0.285,0.248,0.467,0.094c0.182-0.156,0.139-0.345,0.007-0.499
				C464.155,674.834,463.975,674.703,464.08,674.489z"/><path fill-rule="evenodd" clip-rule="evenodd" fill="#FFFFFF" d="M477.797,678.586c-0.34,0.041-0.851,0.549-0.899,0.912
				c-0.029,0.226-0.015,0.449,0.221,0.486c0.474,0,1-0.639,0.973-1.123C478.074,678.654,477.98,678.564,477.797,678.586z"/><path fill-rule="evenodd" clip-rule="evenodd" fill="#FFFFFF" d="M461.089,523.93c-0.192-0.121-0.333-0.009-0.479,0.12
				c-0.19,0.158-0.207,0.364-0.119,0.596c0.034,0.107,0.084,0.202,0.109,0.312c0.044,0.187,0.036,0.425,0.296,0.399
				c0.2-0.022,0.307-0.19,0.37-0.38c0.046-0.129,0.065-0.268,0.055-0.211C461.398,524.288,461.313,524.066,461.089,523.93z"/><path fill-rule="evenodd" clip-rule="evenodd" fill="#FFFFFF" d="M462.01,553.188c-0.07-0.068-0.194-0.061-0.253,0.067
				c-0.163,0.365,0.324,1.284,0.688,1.318c0.277,0.024,0.45-0.27,0.306-0.569C462.584,553.657,462.268,553.445,462.01,553.188z"/><path fill-rule="evenodd" clip-rule="evenodd" fill="#FFFFFF" d="M463.878,553.241c-0.271-0.027-0.496,0.258-0.496,0.617
				c0,0.37,0.202,0.618,0.489,0.649c0.381,0.039,0.284-0.363,0.338-0.579C464.218,553.479,464.104,553.26,463.878,553.241z"/><path fill-rule="evenodd" clip-rule="evenodd" fill="#FFFFFF" d="M491.323,580.791c-0.173,0.284-0.024,0.53,0.116,0.761
				c0.112,0.185,0.217,0.421,0.467,0.304c0.189-0.085,0.209-0.296,0.219-0.527c-0.007-0.255-0.034-0.538-0.321-0.661
				C491.629,580.604,491.439,580.604,491.323,580.791z"/><path fill-rule="evenodd" clip-rule="evenodd" fill="#FFFFFF" d="M417.669,626.331c0.126-0.141,0.177-0.331,0.177-0.533
				c-0.016-0.141-0.036-0.282-0.165-0.35c-0.138-0.073-0.243,0.019-0.331,0.116c-0.087,0.097-0.183,0.197-0.243,0.316
				c-0.115,0.227-0.387,0.508-0.139,0.729C417.231,626.839,417.475,626.549,417.669,626.331z"/><path fill-rule="evenodd" clip-rule="evenodd" fill="#FFFFFF" d="M472.444,677.441c0.192,0.098,0.391,0.185,0.549-0.048
				c0.095-0.141,0.1-0.318,0.046-0.487c-0.078-0.25-0.284-0.175-0.566-0.211c0.015,0-0.085-0.002-0.182,0.01
				c-0.168,0.022-0.287,0.129-0.31,0.314c-0.026,0.197,0.081,0.311,0.251,0.347C472.305,677.38,472.383,677.399,472.444,677.441z"/><path fill-rule="evenodd" clip-rule="evenodd" fill="#FFFFFF" d="M474.1,673.366c0.007-0.299-0.134-0.479-0.343-0.494
				c-0.18-0.005-0.282,0.056-0.306,0.163c-0.075,0.309-0.017,0.613,0.106,0.9c0.022,0.05,0.13,0.102,0.192,0.083
				C474.07,673.939,474.097,673.652,474.1,673.366z"/><path fill-rule="evenodd" clip-rule="evenodd" fill="#FFFFFF" d="M469.698,548.558c-0.026,0.26,0.209,0.564,0.452,0.569
				c0.209-0.018,0.349-0.154,0.368-0.409c0.015-0.27-0.233-0.54-0.479-0.518C469.847,548.215,469.715,548.335,469.698,548.558z"/><path fill-rule="evenodd" clip-rule="evenodd" fill="#FFFFFF" d="M475.938,680.162c-0.124-0.022-0.199,0.075-0.216,0.18
				c-0.081,0.379-0.26,0.695-0.581,1.041c0.394,0.097,0.659,0.071,0.851-0.175c0.214-0.28,0.025-0.635,0.051-0.962
				C476.047,680.222,475.976,680.164,475.938,680.162z"/><path fill-rule="evenodd" clip-rule="evenodd" fill="#FFFFFF" d="M433.191,669.014c-0.158,0.024-0.297,0.099-0.321,0.296
				c-0.029,0.243,0.324,0.542,0.598,0.505c0.175-0.031,0.253-0.163,0.253-0.357C433.711,669.177,433.476,668.972,433.191,669.014z"
				/><path fill-rule="evenodd" clip-rule="evenodd" fill="#FFFFFF" d="M411.834,613.59c-0.029,0.294,0.204,0.399,0.416,0.455
				c0.26,0.002,0.384-0.155,0.408-0.399c0.027-0.238-0.102-0.367-0.301-0.372C412.128,613.267,411.858,613.286,411.834,613.59z"/><path fill-rule="evenodd" clip-rule="evenodd" fill="#FFFFFF" d="M460.394,614.293c0.041-0.056,0.046-0.154,0.044-0.238
				c-0.044-0.457,0-0.873,0.182-1.308c0.156-0.394-0.068-0.625-0.479-0.55c-0.148,0.025-0.299,0.039-0.416,0.168
				c-0.452,0.501-0.84,1.016-0.912,1.787c-0.063,0.627,0.076,1.211,0.243,1.914C459.475,615.44,460.002,614.93,460.394,614.293z"/><path fill-rule="evenodd" clip-rule="evenodd" fill="#FFFFFF" d="M465.91,610.758c0.227,0.423,0.367,0.824,0.192,1.427
				c0.435-0.167,0.53-0.442,0.649-0.673c0.1-0.168,0.185-0.38,0.377-0.38c0.484-0.014,0.758-0.423,1.106-0.683
				c0.423-0.316,0.413-0.542,0.032-0.899c-0.183-0.17-0.392-0.205-0.627-0.226c-0.511-0.04-0.922,0.24-1.347,0.472
				C465.876,610.006,465.684,610.339,465.91,610.758z"/><path fill-rule="evenodd" clip-rule="evenodd" fill="#FFFFFF" d="M467.692,608.863c0.192-0.136,0.424-0.218,0.435-0.537
				c0.015-0.365-0.552-0.897-0.858-0.751c-0.315,0.153-0.603,0.399-0.889,0.625c-0.081,0.066-0.1,0.189-0.044,0.307
				C466.64,609.106,467.153,609.24,467.692,608.863z"/><path fill-rule="evenodd" clip-rule="evenodd" fill="#FFFFFF" d="M462.453,602.252c-0.141-0.08-0.287-0.124-0.427,0
				c-0.178,0.153-0.355,0.839-0.255,1.089c0.146,0.36,0.474,0.477,0.77,0.607c0.129,0.056,0.275-0.106,0.227-0.235
				c-0.112-0.321-0.054-0.593,0.051-0.854C462.828,602.529,462.655,602.374,462.453,602.252z"/><path fill-rule="evenodd" clip-rule="evenodd" fill="#FFFFFF" d="M453.391,622.81c-0.026-0.316-0.323-0.666-0.579-0.656
				c-0.309,0.01-0.333,0.285-0.333,0.538c0.002,0.331,0.312,0.603,0.642,0.581C453.345,623.245,453.416,623.056,453.391,622.81z"/><path fill-rule="evenodd" clip-rule="evenodd" fill="#FFFFFF" d="M471.898,581.454c-0.043-0.226-0.228-0.274-0.41-0.306
				c-0.258,0.02-0.518,0.093-0.545,0.436c-0.019,0.248,0.144,0.403,0.375,0.423C471.542,582.021,471.942,581.646,471.898,581.454z"
				/></svg>