<svg xmlns="http://www.w3.org/2000/svg" viewBox="1017.0 405.4 323.6 323.6"><path fill="#2390CF" d="M1178.664,405.387v323.562c-89.292-0.053-161.677-72.457-161.677-161.781
				C1016.987,477.854,1089.372,405.439,1178.664,405.387z"/><path fill="#227FAF" d="M1340.55,567.168c0,89.355-72.426,161.781-161.781,161.781h-0.104V405.387h0.104
				C1268.124,405.387,1340.55,477.823,1340.55,567.168z"/><path fill-rule="evenodd" clip-rule="evenodd" fill="#FFFFFF" d="M1106.927,508.882c-0.307-2.547-0.272-2.888,1.005-4.664
				c0.577-0.803,1-1.6,1.357-2.575c0.688-1.87,2.371-2.444,4.037-2.771c0.528-0.101,1.108,0.045,1.654,0.045
				c0.568-0.01,1.089-0.189,1.568-0.544c0.517-0.38,0.594-1.146,0.091-1.552c-0.441-0.355-0.945-0.63-1.386-0.993
				c-0.101-0.088-0.128-0.396-0.071-0.559c0.04-0.156,0.222-0.335,0.366-0.377c0.992-0.257,1.844,0.274,2.612,0.775
				c1.872,1.235,3.98,1.57,6.006,2.18c0.98,0.29,1.98,0.519,3.006,0.166c0.539-0.176,1.124-0.176,1.567,0.292
				c0.469,0.511,0.791,0.209,1.187-0.098c0.569-0.429,1.055-0.078,1.497,0.34c0.476,0.45,0.585,1.04,0.36,1.672
				c-0.36,1.051-0.658,2.147-1.584,2.827c-0.469,0.338-0.882,0.771-0.92,1.454c-0.06,1.262-0.521,2.391-0.912,3.547
				c-0.214,0.662-0.05,1.232,0.406,1.66c0.713,0.663,1.461,1.258,2.025,2.099c0.21,0.305,0.56,0.607,0.893,0.675
				c1.703,0.365,3.025,1.464,4.368,2.578c0.288,0.247,0.612,0.488,0.955,0.604c1.442,0.491,2.708,1.212,3.681,2.585
				c0.588,0.824,1.515,1.158,2.487,1.167c1.106,0.022,1.909-0.421,2.394-1.656c0.992-2.464,1.504-5.071,2.097-7.667
				c0.145-0.663,0.045-1.437-0.071-2.134c-0.294-1.645-0.294-3.272,0.063-4.897c0.063-0.303,0.143-0.623,0.108-0.919
				c-0.378-3.127,1.35-5.46,2.441-8.027c0.077-0.181,0.207-0.343,0.332-0.489c0.277-0.308,0.627-0.499,0.99-0.34
				c0.231,0.098,0.529,0.403,0.539,0.627c0.119,2.663,1.477,4.84,2.225,7.251c0.361,1.161,0.566,2.378,0.827,3.578
				c0.316,1.437,0.426,1.545,1.831,1.792c1.788,0.308,3.275,1.756,3.661,3.633c0.206,1.006,0.359,2.021,0.503,3.039
				c0.165,1.134,0.441,2.195,1.103,3.117c0.835,1.171,1.098,2.575,1.214,4.039c0.231,2.744,1.222,4.817,3.747,5.908
				c1.599,0.698,3.041,1.915,4.526,2.931c0.307,0.208,0.658,0.528,0.749,0.873c0.638,2.465,2.683,4.235,2.729,6.987
				c0.005,0.569,0.431,0.917,0.989,0.728c0.704-0.239,1.24,0.248,1.845,0.441c0.703,0.224,1.207,0.74,1.222,1.499
				c0.048,2.663,1.298,4.301,3.225,5.707c1.119,0.814,1.873,2.235,2.803,3.386c0.451,0.553,0.861,0.524,1.431,0.081
				c0.485-0.393,0.942-0.103,0.938,0.448c-0.011,0.509-0.011,1.038-0.119,1.52c-0.423,1.937-0.279,3.893-0.234,5.853
				c0.01,0.406-0.045,0.952,0.165,1.197c1.635,1.953,0.528,4.498,1.204,6.651c0.133,0.438,0,1.041-0.144,1.51
				c-0.686,2.146-0.585,4.495-1.432,6.591c-0.118,0.279-0.188,0.612-0.154,0.904c0.36,2.764-1.014,4.956-1.937,7.289
				c-0.253,0.632-0.729,1.2-1.204,1.65c-1.179,1.106-1.854,2.547-2.432,4.077c-0.432,1.144-0.847,2.29-1.207,3.452
				c-0.54,1.759-1.025,3.512-2.051,5.029c-0.497,0.741-0.66,1.678-0.759,2.62c-0.188,1.733-0.455,3.462-0.61,5.198
				c-0.117,1.307-0.775,2.045-1.801,2.469c-0.783,0.312-1.595,0.599-2.441,0.501c-1.594-0.182-2.88,0.567-4.061,1.618
				c-1.149,1.025-2.285,2.081-3.359,3.205c-0.494,0.506-0.916,0.632-1.456,0.247c-0.692-0.504-1.515-0.905-2.035-1.583
				c-0.62-0.826-1.407-0.824-2.197-1.068c-1.091-0.335-1.999-0.169-2.781,0.748c-1.325,1.542-2.756,1.446-4.243,0.33
				c-0.861-0.648-1.834-1.005-2.843-1.167c-1.396-0.219-2.641-0.902-3.935-1.441c-2.449-1.013-3.648-3.059-3.817-5.857
				c-0.083-1.381-0.431-2.578-1.024-3.785c-0.693-1.403-1.441-2.307-3.047-1.743c-0.627,0.221-1.025-0.375-0.826-1.146
				c0.308-1.197,0.683-2.381,0.189-3.605c-0.09-0.22-0.389-0.394-0.62-0.467c-0.108-0.037-0.371,0.151-0.437,0.307
				c-0.178,0.466-0.267,0.973-0.445,1.449c-0.498,1.3-1.288,1.776-2.658,1.635c-0.358-0.035-0.655-0.594-0.472-0.935
				c0.192-0.333,0.406-0.673,0.668-0.947c0.416-0.454,0.738-0.953,0.769-1.595c0.061-1.706,0.638-3.19,1.41-4.626
				c0.174-0.308,0.109-0.781,0.13-1.185c0-0.068-0.108-0.174-0.183-0.212c-0.08-0.037-0.244-0.042-0.259-0.01
				c-0.99,2.339-3.215,3.336-4.576,5.256c-0.343,0.484-0.657,0.995-0.907,1.529c-0.247,0.521-0.146,1.348-0.892,1.38
				c-0.902,0.036-2.028-1.073-2.064-2.104c-0.025-0.834-0.02-1.658-0.353-2.407c-0.483-1.108-0.98-2.237-1.872-3.03
				c-0.666-0.58-1.288-1.164-1.495-2.139c-0.188-0.892-0.828-1.338-1.486-1.729c-0.486-0.292-1.004-0.499-1.511-0.769
				c-1.882-1.005-4.104-1.038-5.807-2.617c-0.547-0.514-1.414-0.414-2.162-0.34c-1.744,0.169-3.502,0.307-5.238,0.554
				c-0.721,0.106-1.466,0.351-2.096,0.738c-2.081,1.29-4.334,1.716-6.665,1.751c-1.325,0.015-2.546,0.216-3.69,1.051
				c-0.693,0.494-1.497,0.809-2.25,1.184c-1.451,0.73-2.783,1.544-3.466,3.32c-0.479,1.248-1.504,1.764-2.714,1.767
				c-1.942,0.013-3.877-0.003-5.822,0.013c-1.106,0.007-2.215,0.073-3.321,0.095c-0.965,0.025-1.832,0.283-2.451,1.185
				c-0.342,0.489-0.756,0.937-1.303,1.099c-1.118,0.307-1.99,1.015-2.832,1.867c-0.932,0.955-2.051,1.32-3.338,0.995
				c-0.713-0.174-1.457-0.209-2.195-0.312c-2.378-0.333-3.918-2.182-5.52-3.873c-0.557-0.577-0.497-1.829,0.081-2.57
				c0.665-0.866,1.477-1.622,1.439-2.877c-0.061-2.23,0.657-4.515-0.368-6.694c-0.396-0.814-0.647-1.708-1.025-2.532
				c-0.776-1.668-1.351-3.399-1.262-5.307c0.045-1.096-0.386-1.995-0.781-2.919c-0.847-1.945-1.763-3.853-2.142-6.012
				c-0.156-0.909-0.569-1.728-1.171-2.416c-0.318-0.371-0.604-0.776-0.892-1.184c-0.615-0.885-0.962-1.769-0.011-2.689
				c0.189-0.184,0.227-0.546,0.326-0.806c0.72-0.208,0.839,0.761,1.388,0.806c0.144,0.005,0.411-0.161,0.411-0.245
				c0-0.29-0.051-0.599-0.169-0.871c-0.574-1.404-1.153-2.809-1.766-4.19c-0.62-1.378-0.764-2.742-0.045-4.125
				c0.539-1.02,0.642-2.131,0.595-3.277c-0.036-0.932-0.091-1.877,0.236-2.746c0.277-0.748,0.549-1.688,1.565-0.836
				c0.277,0.229,0.521-0.008,0.738-0.207c1.847-1.711,4.106-2.739,5.888-4.563c0.604-0.625,1.431-1.078,2.277-1
				c2.323,0.229,4.306-1.033,6.384-1.781c0.973-0.35,1.907-0.673,2.917-0.874c1.169-0.229,2.313-0.678,3.468-1.063
				c1.005-0.342,1.778-1.093,2.421-1.988c0.864-1.194,1.645-2.464,2.466-3.706c0.413-0.635,0.406-1.359,0.28-2.071
				c-0.27-1.507,0.351-2.578,1.277-3.538c0.965-0.998,1.361-0.967,2.17,0.27c0.161,0.247,0.271,0.544,0.44,0.778
				c0.191,0.249,0.469,0.378,0.73,0.169c0.134-0.113,0.27-0.351,0.26-0.514c-0.025-0.514-0.154-1.016-0.189-1.519
				c-0.088-1.048,0.209-1.695,1.18-1.532c0.181,0.033,0.37,0.048,0.549,0.078c0.668,0.086,1.164-0.342,1.263-0.945
				c0.307-1.872,1.537-3.051,2.546-4.339c1.515-1.952,3.555-3.151,5.791-3.746c1.008-0.27,1.99,0.325,2.739,1.184
				c0.375,0.451,0.708,0.947,1.068,1.414c0.514,0.658,1.101,1.124,1.928,0.955C1104.942,508.259,1105.907,508.667,1106.927,508.882z
				"/><path fill-rule="evenodd" clip-rule="evenodd" fill="#FFFFFF" d="M1180.033,491.008c-0.298,0.394-0.561,0.817-0.883,1.172
				c-0.504,0.546-1.161,0.778-1.791,0.463c-2.054-1.051-4.268-1.25-6.447-1.623c-0.953-0.169-1.756-0.603-2.403-1.378
				c-1.505-1.807-3.397-3.189-4.556-5.351c-0.225-0.418-0.625-0.809-1.021-1c-1.267-0.614-2.565-1.136-3.859-1.683
				c-0.539-0.235-1.135-0.257-1.613,0.053c-1.394,0.907-3.007,1.549-3.12,3.862c-0.067,1.282-1.13,2.058-2.39,2.025
				c-1.108-0.027-2.211-0.139-3.313-0.29c-1.109-0.166-1.622-0.735-1.746-2.015c-0.118-1.227-0.046-2.47-0.154-3.696
				c-0.214-2.454-0.27-4.898-0.091-7.364c0.102-1.42-0.042-2.873-0.206-4.301c-0.234-2.053-0.242-4.101-0.134-6.152
				c0.053-1.071,0.585-1.441,1.501-1.129c0.613,0.212,1.207,0.484,1.82,0.729c2.171,0.867,4.331,1.756,6.51,2.58
				c2.043,0.783,3.636,2.401,5.427,3.631c0.451,0.314,0.883,0.844,1.08,1.38c0.795,2.137,2.496,2.917,4.227,3.668
				c0.602,0.27,1.257,0.368,1.837,0.672c1.356,0.726,1.41,2,0.143,3.019c-0.143,0.123-0.332,0.174-0.476,0.3
				c-0.545,0.454-0.65,1.041-0.308,1.58c0.098,0.164,0.199,0.348,0.343,0.479c1.348,1.25,2.656,2.535,3.365,4.399
				c0.101,0.27,0.323,0.607,0.548,0.673c1.486,0.42,2.308,1.882,3.532,2.706c0.314,0.212,0.766,0.32,0.919,0.627
				c0.718,1.474,2.079,1.557,3.293,1.991L1180.033,491.008z"/><path fill-rule="evenodd" clip-rule="evenodd" fill="#FFFFFF" d="M1253.76,635.314c-0.772,0.615-1.773,0.358-2.631,0.749
				c-1.366,0.624-2.456,1.524-2.66,3.24c-0.2,1.665-0.964,3.114-1.308,4.708c-0.713,3.291-3.099,4.689-5.467,6.112
				c-0.493,0.295-1.07,0.272-1.63,0.146c-0.996-0.232-1.985-0.483-2.888-1.048c-0.975-0.609-1.955-1.146-3.116-1.146
				c-0.351,0-0.73-0.164-1.063-0.322c-0.718-0.353-1.089-1.237-0.781-2.036c0.837-2.152,1.351-4.528,3.232-5.984
				c0.071-0.055,0.144-0.136,0.189-0.221c1.168-2.019,2.491-3.82,4.779-4.304c2.015-1.793,4.062-3.564,6.042-5.404
				c0.728-0.675,1.07-1.668,1.271-2.695c0.222-1.139,0.655-2.14,1.509-2.868c0.687-0.584,1.102-1.363,1.288-2.308
				c0.111-0.496,0.26-0.993,0.448-1.451c0.668-1.603,1.354-1.749,2.479-0.562c0.199,0.219,0.432,0.416,0.566,0.67
				c0.494,0.924,1.09,0.992,1.845,0.416c0.218-0.166,0.514-0.239,0.784-0.285c0.659-0.116,1.367,0.423,1.413,1.144
				c0.133,1.955,0.206,3.88-1.106,5.528c-0.919,1.154-1.595,2.54-2.521,3.668c-0.935,1.129-1.261,2.227-0.623,3.628
				C1253.887,634.835,1253.788,635.08,1253.76,635.314z"/><path fill-rule="evenodd" clip-rule="evenodd" fill="#FFFFFF" d="M1253.551,590.329c0.976,0.822,2.026,1.572,3.199,2.126
				c1.358,0.652,1.996,2.097,2.438,3.583c0.324,1.076,0.514,2.197,0.793,3.283c0.118,0.489,0.252,1.005,0.514,1.396
				c0.272,0.395,0.719,0.768,1.18,0.622c0.45-0.131,0.171-0.692,0.262-1.058c0.036-0.164,0.207-0.371,0.34-0.393
				c0.154-0.025,0.373,0.096,0.497,0.227c0.426,0.451,0.503,1.086,0.584,1.688c0.308,2.3,1.749,3.252,3.565,3.767
				c0.56,0.161,1.091,0.144,1.605-0.177c0.486-0.297,0.952-0.647,1.455-0.89c1.2-0.552,2.063,0.023,2.135,1.421
				c0.056,1.351,0.01,2.676-0.813,3.822c-0.276,0.383-0.466,0.884-0.619,1.355c-0.188,0.562-0.468,0.698-1.015,0.756
				c-1.794,0.177-2.089,0.481-2.189,2.356c-0.054,0.945-0.217,1.839-0.577,2.673c-0.938,2.129-2.052,4.149-3.476,5.92
				c-0.929,1.149-2.861,0.792-3.563-0.567c-0.119-0.231-0.124-0.615-0.046-0.877c0.144-0.483,0.402-0.917,0.605-1.382
				c0.937-2.218,0.728-3.092-1.039-4.385c-0.69-0.513-1.413-0.985-2.051-1.574c-0.856-0.792-0.974-1.993-0.065-2.63
				c1.938-1.346,1.928-3.628,2.504-5.626c0.271-0.907-0.032-1.821-0.438-2.666c-0.856-1.813-1.629-3.676-2.764-5.321
				c-1.37-1.965-2.441-4.125-3.225-6.455C1253.248,591.026,1253.192,590.731,1253.551,590.329z"/><path fill-rule="evenodd" clip-rule="evenodd" fill="#FFFFFF" d="M1171.237,624.276c0.144,2.578-0.991,4.493-2.478,6.239
				c-0.642,0.741-1.308,1.463-1.882,2.26c-0.396,0.562-0.642,1.323-1.413,1.288c-1.035-0.045-2.044-0.194-2.701-1.252
				c-1.055-1.7-2.071-3.399-2.512-5.459c-0.296-1.398-0.739-2.754-1.108-4.14c-0.133-0.481-0.277-0.983-0.322-1.484
				c-0.153-1.809,0.647-2.548,2.148-2.008c0.343,0.128,0.723,0.264,1.001,0.516c1.566,1.418,3.26,1.149,4.979,0.476
				c0.614-0.237,1.189-0.572,1.801-0.781c1.035-0.353,1.873,0.128,2.127,1.302C1171.094,622.225,1171.118,623.263,1171.237,624.276z
				"/><path fill-rule="evenodd" clip-rule="evenodd" fill="#FFFFFF" d="M1176.636,476.516c-1.728-0.231-3.394-0.748-4.788-2.016
				c-0.233-0.204-0.288-0.533-0.145-0.831c0.091-0.162,0.244-0.37,0.388-0.394c0.54-0.098,1.089-0.123,1.638-0.181
				c0.64-0.081,1.379,0.028,1.893-0.292c0.98-0.627,1.816-1.394,2.852-0.116c0.14,0.174,0.773,0.088,1.021-0.123
				c1.07-0.917,2.421-1.557,2.817-3.233c0.062-0.272,0.269-0.532,0.476-0.715c0.379-0.348,0.856-0.401,1.308-0.239
				c0.466,0.159,0.773,0.561,0.818,1.113c0.119,1.401-0.233,2.757-1.098,3.686C1181.852,475.292,1179.538,476.7,1176.636,476.516z"
				/><path fill-rule="evenodd" clip-rule="evenodd" fill="#FFFFFF" d="M1224.022,529.795c0.242,0.048,0.54,0.026,0.773,0.149
				c1.081,0.597,2.124,1.285,2.852,2.366c0.913,1.343,1.948,2.466,3.323,3.169c0.165,0.088,0.325,0.199,0.472,0.32
				c1.204,0.947,1.827,2.049,1.33,2.321c-0.874,0.468-1.583-0.187-2.288-0.6c-2.464-1.451-4.743-3.162-6.318-5.812
				c-0.252-0.428-0.528-0.859-0.468-1.398C1223.716,530.141,1223.89,529.997,1224.022,529.795z"/><path fill-rule="evenodd" clip-rule="evenodd" fill="#FFFFFF" d="M1270.245,522.005c-0.504-0.113-0.955-0.179-1.376-0.342
				c-0.45-0.164-0.783-0.509-0.867-1.062c-0.08-0.551,0.108-1.012,0.479-1.347c0.654-0.598,1.459-0.799,2.285-0.764
				c0.874,0.03,1.631,1.081,1.564,2.114c-0.015,0.441-0.242,0.806-0.563,0.957C1271.271,521.781,1270.73,521.877,1270.245,522.005z"
				/><path fill-rule="evenodd" clip-rule="evenodd" fill="#FFFFFF" d="M1111.788,495.165c0.304-0.05,0.574-0.101,0.854-0.118
				c0.388-0.033,0.72,0.129,0.902,0.519c0.25,0.529,0.061,1.005-0.262,1.386c-0.396,0.466-0.91,0.69-1.483,0.602
				c-0.723-0.108-1.444-0.247-2.162-0.406c-0.405-0.096-0.602-0.438-0.559-0.894c0.035-0.426,0.262-0.746,0.594-0.958
				C1110.374,494.868,1111.112,495.306,1111.788,495.165z"/><path fill-rule="evenodd" clip-rule="evenodd" fill="#FFFFFF" d="M1195.856,478.285c-0.122-0.056-0.574-0.091-0.752-0.368
				c-0.801-1.209-1.54-2.479-2.252-3.759c-0.092-0.159,0.082-0.562,0.227-0.786c0.06-0.104,0.377-0.128,0.503-0.035
				c1.322,0.914,2.403,2.136,3.239,3.597C1197.111,477.438,1196.644,478.247,1195.856,478.285z"/><path fill-rule="evenodd" clip-rule="evenodd" fill="#FFFFFF" d="M1211.561,486.579c0.615,0.844,1.189,1.6,1.739,2.383
				c0.21,0.294-0.063,0.909-0.396,0.917c-1.011,0.026-2.001-0.05-2.928-0.516c-0.44-0.219-0.749-0.587-0.749-1.152
				c-0.006-0.481,0.317-0.69,0.661-0.854C1210.463,487.083,1211.031,486.823,1211.561,486.579z"/><path fill-rule="evenodd" clip-rule="evenodd" fill="#FFFFFF" d="M1273.233,516.961c-0.308-0.297-0.557-0.451-0.684-0.685
				c-0.219-0.431,0.018-0.799,0.315-1.041c0.828-0.685,1.809-0.965,2.789-1.208c0.479-0.124,0.92-0.008,1.072,0.612
				c0.127,0.531,0.046,1.148-0.404,1.338C1275.313,516.395,1274.244,516.646,1273.233,516.961z"/><path fill-rule="evenodd" clip-rule="evenodd" fill="#FFFFFF" d="M1132.988,597.348c-0.206-0.038-0.748-0.088-1.249-0.279
				c-0.202-0.063-0.416-0.428-0.423-0.676c-0.01-0.244,0.162-0.579,0.34-0.738c0.506-0.454,1.119-0.663,1.764-0.652
				c0.841,0.018,1.623,0.24,2.056,1.144c0.252,0.539-0.675,1.131-1.883,1.199C1133.502,597.353,1133.415,597.348,1132.988,597.348z"
				/><path fill-rule="evenodd" clip-rule="evenodd" fill="#FFFFFF" d="M1184.553,465.559c0.909,0.32,1.622,0.98,2.305,1.667
				c0.491,0.492,0.799,1.119,0.738,1.907c-0.037,0.428-0.207,0.804-0.584,0.953c-0.4,0.159-0.733-0.05-0.912-0.451
				c-0.351-0.832-0.647-1.693-1.008-2.527c-0.199-0.458-0.466-0.881-0.701-1.325L1184.553,465.559z"/><path fill-rule="evenodd" clip-rule="evenodd" fill="#FFFFFF" d="M1199.309,481.255c0.088-0.012,0.189-0.075,0.252-0.04
				c1.17,0.58,2.375,1.106,3.395,2c0.737,0.658,1.159,1.595,0.791,1.706c-0.638,0.182-0.97-0.418-1.411-0.728
				c-1.011-0.712-2.021-1.428-3.012-2.169c-0.112-0.085-0.133-0.357-0.157-0.549
				C1199.155,481.419,1199.264,481.329,1199.309,481.255z"/><path fill-rule="evenodd" clip-rule="evenodd" fill="#FFFFFF" d="M1209.56,483.558c-0.143,0.096-0.311,0.298-0.43,0.267
				c-1.179-0.317-2.223-0.938-3.04-1.958c-0.104-0.126-0.146-0.405-0.094-0.567c0.108-0.345,0.436-0.385,0.668-0.242
				c0.962,0.577,2.001,1.041,2.787,1.928C1209.556,483.107,1209.536,483.362,1209.56,483.558z"/><path fill-rule="evenodd" clip-rule="evenodd" fill="#FFFFFF" d="M1305.331,505.309c-0.136,0.121-0.261,0.333-0.397,0.343
				c-1.054,0.08-1.986-0.394-2.87-0.945c-0.189-0.118-0.389-0.516-0.354-0.738c0.094-0.502,0.54-0.564,0.876-0.418
				c0.863,0.362,1.689,0.801,2.521,1.25C1305.233,504.865,1305.261,505.135,1305.331,505.309z"/><path fill-rule="evenodd" clip-rule="evenodd" fill="#FFFFFF" d="M1215.605,487.904c-0.26,0.177-0.406,0.338-0.552,0.338
				c-0.17,0.015-0.368-0.081-0.494-0.204c-0.856-0.847-1.354-1.925-1.547-3.16c-0.028-0.146,0.134-0.348,0.241-0.494
				c0.035-0.043,0.215-0.041,0.26,0.02C1214.395,485.436,1215.049,486.642,1215.605,487.904z"/><path fill-rule="evenodd" clip-rule="evenodd" fill="#FFFFFF" d="M1234.078,510.529c-0.025,0.466-0.234,0.804-0.61,0.902
				c-0.244,0.061-0.584,0.045-0.758-0.098c-0.619-0.552-0.749-1.348-0.676-2.177c0.011-0.116,0.271-0.308,0.389-0.292
				C1233.367,509.002,1234.053,509.731,1234.078,510.529z"/><path fill-rule="evenodd" clip-rule="evenodd" fill="#FFFFFF" d="M1184.391,465.784c-1.703-0.255-2.954-1.472-4.298-2.502
				c-0.089-0.075-0.147-0.405-0.077-0.514c0.072-0.121,0.359-0.224,0.458-0.159c1.388,0.93,2.952,1.577,4.079,2.956
				L1184.391,465.784z"/><path fill-rule="evenodd" clip-rule="evenodd" fill="#FFFFFF" d="M1237.475,651.663c0.098,0.99-0.729,1.957-1.486,1.794
				c-0.124-0.028-0.308-0.239-0.336-0.396c-0.143-0.761,0.154-1.373,0.623-1.89c0.209-0.229,0.506-0.303,0.737-0.106
				C1237.223,651.235,1237.355,651.504,1237.475,651.663z"/><path fill-rule="evenodd" clip-rule="evenodd" fill="#FFFFFF" d="M1216.109,491.162c0.791,0.028,1.411,0.385,1.764,1.207
				c0.062,0.153,0.053,0.423-0.037,0.564c-0.079,0.146-0.306,0.292-0.449,0.275c-0.792-0.086-1.358-0.569-1.683-1.378
				c-0.036-0.086-0.047-0.239,0-0.297C1215.812,491.394,1215.965,491.29,1216.109,491.162z"/><path fill-rule="evenodd" clip-rule="evenodd" fill="#FFFFFF" d="M1169.865,615.098c0.921,0.396,1.505,1.701,1.201,2.733
				c-0.039,0.111-0.369,0.24-0.443,0.174c-0.782-0.647-1.135-1.567-1.188-2.615C1169.436,615.304,1169.713,615.196,1169.865,615.098
				z"/><path fill-rule="evenodd" clip-rule="evenodd" fill="#FFFFFF" d="M1201.633,479.204c-0.18,0.268-0.273,0.524-0.381,0.529
				c-1.081,0.091-2.304-0.95-2.339-1.977c0-0.119,0.257-0.365,0.351-0.335C1200.271,477.673,1200.929,478.477,1201.633,479.204z"/><path fill-rule="evenodd" clip-rule="evenodd" fill="#FFFFFF" d="M1131.082,504.756c0.521-0.07,1.036,0.489,1.015,1.152
				c-0.005,0.441-0.231,0.787-0.637,0.844c-0.512,0.065-0.847-0.285-0.982-0.818C1130.343,505.43,1130.676,504.818,1131.082,504.756
				z"/><path fill-rule="evenodd" clip-rule="evenodd" fill="#FFFFFF" d="M1180.067,491.034c-0.469-0.875-0.955-1.744-1.396-2.633
				c-0.045-0.093,0.108-0.403,0.236-0.486c0.124-0.088,0.368-0.09,0.502-0.012c0.766,0.506,0.975,1.454,1.278,2.272
				c0.152,0.423-0.333,0.65-0.655,0.833L1180.067,491.034z"/><path fill-rule="evenodd" clip-rule="evenodd" fill="#FFFFFF" d="M1237.419,509.559c0.179,0.119,0.423,0.191,0.471,0.333
				c0.07,0.274,0.106,0.61,0.035,0.879c-0.101,0.378-0.282,0.74-0.495,1.035c-0.049,0.056-0.489-0.176-0.679-0.365
				c-0.411-0.434-0.351-0.913,0.035-1.335C1236.987,509.897,1237.223,509.738,1237.419,509.559z"/><path fill-rule="evenodd" clip-rule="evenodd" fill="#FFFFFF" d="M1290.091,635.594c-0.011,0.421-0.128,0.786-0.544,0.895
				c-0.445,0.123-0.836-0.476-0.819-1.25c0.021-0.477,0.263-0.743,0.686-0.71C1289.998,634.576,1290.08,635.064,1290.091,635.594z"
				/><path fill-rule="evenodd" clip-rule="evenodd" fill="#FFFFFF" d="M1235.663,514.462c-0.096,0.116-0.215,0.33-0.348,0.355
				c-0.615,0.106-1.201-0.718-1.021-1.439c0.025-0.138,0.308-0.304,0.432-0.277C1235.306,513.256,1235.681,513.837,1235.663,514.462
				z"/><path fill-rule="evenodd" clip-rule="evenodd" fill="#FFFFFF" d="M1156.667,615.085c0,0.184-0.006,0.672-0.44,0.723
				c-0.456,0.058-0.53-0.431-0.53-0.831c0-0.416,0.079-0.859,0.574-0.796C1156.553,614.218,1156.651,614.556,1156.667,615.085z"/><path fill-rule="evenodd" clip-rule="evenodd" fill="#FFFFFF" d="M1187.279,494.808c0.664,0.05,1.136,0.463,1.471,1.063
				c0.04,0.079-0.118,0.431-0.191,0.434c-0.693,0.068-1.17-0.345-1.451-1.008C1187.063,495.19,1187.216,494.979,1187.279,494.808z"
				/><path fill-rule="evenodd" clip-rule="evenodd" fill="#FFFFFF" d="M1294.392,533.844c-0.08,0.141-0.144,0.386-0.249,0.411
				c-0.363,0.096-0.733,0.008-0.92-0.386c-0.153-0.319,0.018-0.576,0.333-0.606C1293.933,533.232,1294.23,533.434,1294.392,533.844z
				"/><path fill-rule="evenodd" clip-rule="evenodd" fill="#FFFFFF" d="M1140.828,516.001c-0.122-0.133-0.337-0.257-0.346-0.393
				c-0.036-0.499,0.27-0.728,0.664-0.758c0.314-0.023,0.577,0.196,0.52,0.539C1141.596,515.86,1141.23,515.991,1140.828,516.001z"/><path fill-rule="evenodd" clip-rule="evenodd" fill="#FFFFFF" d="M1230.152,673.585c0.091-0.156,0.181-0.476,0.362-0.583
				c0.298-0.163,0.513,0.111,0.491,0.418c-0.015,0.244-0.143,0.592-0.312,0.686C1230.432,674.263,1230.225,674.019,1230.152,673.585
				z"/><path fill-rule="evenodd" clip-rule="evenodd" fill="#FFFFFF" d="M1166.563,460.779c-0.179,0.29-0.431,0.406-0.711,0.29
				c-0.3-0.121-0.395-0.414-0.181-0.688c0.199-0.245,0.486-0.245,0.755-0.104C1166.627,460.387,1166.662,460.578,1166.563,460.779z"
				/><path fill-rule="evenodd" clip-rule="evenodd" fill="#FFFFFF" d="M1177.513,462.605c-0.282-0.085-0.471-0.282-0.397-0.609
				c0.08-0.319,0.333-0.45,0.604-0.325c0.134,0.061,0.287,0.272,0.297,0.421C1178.043,462.448,1177.81,462.586,1177.513,462.605z"/><path fill-rule="evenodd" clip-rule="evenodd" fill="#FFFFFF" d="M1271.855,524.57c0.082,0.131,0.262,0.305,0.233,0.391
				c-0.122,0.413-0.412,0.562-0.788,0.431c-0.065-0.019-0.154-0.146-0.144-0.209C1271.197,524.716,1271.47,524.555,1271.855,524.57z
				"/></svg>