<svg xmlns="http://www.w3.org/2000/svg" viewBox="1017.0 954.3 323.6 323.6"><path fill="#22A84A" d="M1178.664,954.322v323.563c-89.292-0.053-161.677-72.469-161.677-161.782
				S1089.372,954.375,1178.664,954.322z"/><path fill="#1C8E45" d="M1340.55,1116.104c0,89.346-72.426,161.782-161.781,161.782h-0.104V954.322h0.104
				C1268.124,954.322,1340.55,1026.759,1340.55,1116.104z"/><path fill-rule="evenodd" clip-rule="evenodd" fill="#FFFFFF" d="M1200.448,1029.315c0.679-0.179,1.188,0.037,1.5,0.761
				c0.131,0.303,0.428,0.372,0.66,0.535c0.804,0.541,1.637,0.646,2.525,0.719c0.454,0.029,0.711,0.468,0.782,0.976
				c0.075,0.606,0.018,1.194-0.316,1.704c-0.238,0.375-0.476,0.761-0.782,1.239c0.467,0.063,0.698-0.152,0.874-0.479
				c0.181-0.325,0.342-0.664,0.538-0.974c0.798-1.224,1.828-1.681,3.061-1.061c1.258,0.633,2.558,1.076,3.847,1.578
				c0.487,0.191,1.039,0.329,1.333,0.91c0.142,0.282,0.366,0.236,0.605,0.172c0.304-0.084,0.637-0.12,0.857,0.161
				c0.745,0.928,1.448,1.886,1.331,3.267c0.379,0.112,0.679-0.125,0.922-0.345c0.614-0.558,1.236-0.494,1.924-0.237
				c1.084,0.412,2.167,0.81,3.266,1.16c1.564,0.479,3.183,0.304,4.783,0.271c1.148-0.021,2.142,0.272,3.114,0.973
				c1.258,0.912,2.461,1.873,3.482,3.083c0.765,0.905,1.815,1.385,2.648,2.199c0.369,0.366,0.987,0.431,1.524,0.431
				c0.463,0,0.924,0.057,1.375,0.042c1.377-0.061,2.085,0.849,2.504,2.155c0.976,3.021,0.927,6.065,0.131,9.127
				c-0.259,1.015-0.901,1.771-1.449,2.572c-0.618,0.912-1.357,1.722-1.939,2.67c-0.191,0.31-0.467,0.57-0.745,0.772
				c-1.54,1.131-2.743,2.542-3.322,4.537c-0.225,0.77-0.647,1.442-1.111,2.066c-0.337,0.457-0.704,0.964-1.288,0.973
				c-0.703,0.006-0.876,0.491-0.982,1.127c-0.339,2.027-0.418,4.066-0.186,6.092c0.147,1.305-0.011,2.53-0.197,3.783
				c-0.098,0.668-0.26,1.337-0.277,2.004c-0.045,1.185-0.221,2.252-0.955,3.18c-0.445,0.551-0.509,1.324-0.487,2.057
				c0.032,1.385-0.076,2.71-1.067,3.749c-0.199,0.219-0.266,0.604-0.377,0.92c-0.298,0.835-0.68,1.616-1.241,2.273
				c-0.584,0.697-0.996,1.462-1.042,2.476c-0.042,1.055-0.506,1.834-1.461,2.206c-0.585,0.237-1.072,0.634-1.254,1.368
				c-0.14,0.548-0.509,0.802-1.019,0.866c-0.454,0.042-0.899,0.272-1.357,0.172c-1.446-0.278-2.867,0.073-4.285,0.231
				c-0.116,0.011-0.315,0-0.323,0.042c-0.292,1.13-1.471,0.885-2.025,1.646c-0.334,0.447-0.869,0.598-1.408,0.736
				c-0.876,0.225-1.797,0.558-2.476,1.203c-1.477,1.409-3.077,2.65-4.37,4.288c-0.861,1.078-1.307,2.263-1.061,3.724
				c0.115,0.7,0.045,1.445,0.412,2.095c0.063,0.121,0.1,0.375,0.029,0.479c-0.473,0.77-0.302,1.64-0.375,2.473
				c-0.101,1.298-0.521,2.379-1.631,3.004c-0.49,0.278-0.781,0.796-1.087,1.29c-0.847,1.303-1.646,2.636-1.965,4.264
				c-0.19,0.976-0.918,1.646-1.347,2.497c-0.219,0.433-0.524,0.839-0.729,1.288c-0.253,0.552-0.629,0.941-1.086,1.267
				c-0.517,0.369-1.014,0.763-1.499,1.166c-0.695,0.573-1.147,1.297-1.394,2.259c-0.287,1.157-0.914,2.154-1.738,2.918
				c-0.633,0.593-1.109,1.254-1.473,2.066c-0.594,1.324-1.397,2.43-2.631,3.072c-0.57,0.3-1.137,0.479-1.764,0.246
				c-0.513-0.191-1.062-0.234-1.587-0.152c-1.273,0.18-2.422-0.242-3.514-0.863c-0.486-0.281-0.987-0.475-1.516-0.533
				c-0.739-0.104-1.436-0.197-1.854-1.012c-0.072-0.144-0.24-0.231-0.4-0.164c-0.209,0.108-0.227,0.32-0.209,0.536
				c0.055,0.583,0.422,0.888,0.828,1.143c0.744,0.451,1.394,1.037,2.003,1.679c0.529,0.561,0.688,1.154,0.442,1.952
				c-0.434,1.391-0.242,1.866,1.006,2.437c0.475,0.218,0.63,0.545,0.672,1.042c0.064,0.866-0.023,1.693-0.502,2.425
				c-0.343,0.512-0.643,1.058-1.012,1.543c-0.393,0.532-0.737,1.084-0.868,1.769c-0.15,0.83-0.62,1.382-1.299,1.646
				c-1.759,0.682-3.47,1.524-5.35,1.721c-0.878,0.092-1.721,0.388-2.578,0.564c-1.354,0.293-2.643,0.042-4.015-0.309
				c-0.056,0.545,0.117,0.989,0.345,1.43c0.373,0.736,0.367,1.516-0.042,2.179c-0.494,0.772-0.467,1.588-0.37,2.437
				c0.185,1.639,0,1.894-1.334,2.624c-1.418,0.772-2.761,0.736-4.136-0.097c-0.531-0.327-1.125-0.513-1.67-0.815
				c-0.411-0.221-0.57-0.043-0.636,0.369c-0.052,0.425,0.012,0.843,0.108,1.262c0.161,0.656,0.3,1.327,0.261,2.011
				c-0.058,0.91,0.215,1.576,0.988,1.935c0.251,0.114,0.364,0.457,0.657,0.491c0.291-0.122-0.03-0.601,0.327-0.7
				c0.403-0.116,0.788-0.343,1.188-0.413c0.29-0.054,0.46,0.27,0.566,0.543c0.257,0.649,0.278,1.334,0.166,2.004
				c-0.105,0.643-0.602,0.842-1.099,0.965c-0.446,0.113-0.805-0.087-1.082-0.508c-0.651-0.973-0.664-0.963-1.498-0.082
				c0.337,0.487,0.886,0.421,1.316,0.637c0.432,0.197,0.472,0.532,0.103,0.833c-0.216,0.175-0.464,0.29-0.691,0.442
				c-1.061,0.722-1.637,1.682-1.442,3.154c0.143,1.109,0.121,2.225-0.778,3.027c-0.271,0.245-0.228,0.587-0.215,0.943
				c0.018,0.891-0.066,1.029-0.771,1.047c-2.351,0.074-3.745,1.534-4.621,3.802c-0.251,0.639-0.222,1.245,0.07,1.844
				c0.508,1.064,1.284,1.889,2.123,2.613c0.446,0.378,1.03,0.526,1.621,0.548c0.935,0.025,1.317,0.442,1.262,1.477
				c-0.04,0.917-0.434,1.77-0.455,2.715c-0.006,0.324-0.303,0.676-0.594,0.9c-1.37,1.015-2.549,2.273-3.728,3.535
				c-0.515,0.562-0.787,1.152-0.736,2.022c0.066,0.885-0.219,1.761-0.539,2.582c-0.225,0.566-0.625,0.941-1.173,1.139
				c-1.357,0.501-2.273,1.452-2.604,3.073c-0.103,0.515-0.13,0.978,0.058,1.473c0.285,0.709,0.395,1.448,0.425,2.225
				c0.055,1.102,0.63,1.978,1.191,2.836c0.238,0.363,0.735,0.693,0.444,1.189c-0.267,0.44-0.778,0.229-1.178,0.162
				c-0.33-0.064-0.644-0.271-0.967-0.379c-0.234-0.07-0.465-0.009-0.622,0.209c-0.191,0.272,0.027,0.467,0.146,0.672
				c0.244,0.413,0.602,0.546,0.996,0.371c0.497-0.228,0.779,0.018,1.07,0.42c0.454,0.629,0.845,1.307,1.151,2.044
				c0.121,0.312,0.235,0.663-0.315,0.679c-0.306,0.003-0.251,0.285-0.088,0.43c0.494,0.461,0.66,1.118,0.952,1.715
				c0.444,0.906,1.236,1.519,1.938,2.118c0.985,0.846,2.027,1.625,2.966,2.562c0.586,0.585,1.259,0.92,2.08,0.866
				c0.399-0.03,0.885-0.067,0.955,0.608c0.054,0.566-0.347,1.282-0.901,1.267c-0.975-0.023-1.863,0.319-2.794,0.44
				c-0.444,0.058-0.689,0.312-1.021,0.438c-0.539,0.197-0.213,0.28-0.094,0.521c0.239,0.473,0.097,0.879-0.279,0.792
				c-1.202-0.261-2.473-0.334-3.494-1.346c0.07,0.83,0.403,1.512,0.797,2.187c0.28-0.044,0.259-0.56,0.549-0.511
				c0.249,0.054,0.487,0.208,0.716,0.369c0.487,0.352,0.732,0.928,0.996,1.473c0.107,0.225,0.055,0.516-0.163,0.691
				c-0.206,0.153-0.451,0.447-0.703,0.153c-0.246-0.296-0.561-0.172-0.839-0.277c-0.234-0.079-0.595-0.03-0.598-0.446
				c0-0.4,0.485-0.148,0.604-0.594c-0.682,0.23-1.212,0.094-1.549-0.605c-0.043-0.104-0.164-0.176-0.258-0.246
				c-0.367-0.236-0.833,0.119-1.191-0.281c-0.28-0.307-0.394-0.84-0.845-0.927c-0.212,0.19-0.097,0.335-0.037,0.48
				c0.129,0.255,0.395,0.53,0.144,0.788c-0.291,0.318-0.673,0.212-0.939-0.061c-0.5-0.504-0.928-1.105-1.594-1.402
				c-0.279-0.131-0.23-0.507-0.088-0.791c0.166-0.337,0.227-0.777-0.086-0.897c-0.793-0.324-1.597-0.849-2.5-0.455
				c-0.127,0.058-0.197,0.253-0.293,0.385c-0.033,0.034-0.064,0.07-0.102,0.098c-0.223-0.048-0.447-0.14-0.666-0.131
				c-0.575,0-0.715-0.362-0.672-0.912l0.042-0.045c0.334-0.033,0.673-0.069,1.136-0.118c-0.572-0.476-1.136-0.854-0.572-1.706
				c0.206-0.313-0.278-0.933-0.608-0.751c-0.7,0.405-1.14-0.194-1.892-0.479c0.291,0.594,0.674,1.134-0.055,1.368
				c-0.518,0.166-0.973-0.159-1.084-0.91c-0.134-0.912-0.882-0.621-1.322-0.915c-0.16-0.115-0.454,0.052-0.672,0.019
				c-0.416-0.062-0.67-0.298-0.346-0.773c0.172-0.262,0.355-0.547,0.108-0.779c-0.391-0.378-0.269-1.239-0.963-1.279
				c-0.315-0.02-0.521-0.106-0.552-0.479c-0.024-0.396,0.236-0.473,0.506-0.545c0.197-0.051,0.37-0.186,0.303-0.445
				c-0.063-0.255-0.267-0.237-0.463-0.255c-0.4-0.036-0.686,0.466-1.076,0.343c-0.473-0.158-0.027-0.807-0.431-1.085
				c-0.573-0.389-0.915-0.961-0.812-1.981c1.018,0.945,2.146,1.348,3.131,2.045c0.551,0.379,1.036,0.464,1.561-0.1
				c-0.524,0.018-0.867-0.174-1.141-0.691c-0.274-0.519-0.542-1.088-1.203-1.254c-0.463-0.124-0.518-0.677-0.441-1.174
				c0.036-0.203,0.151-0.486-0.158-0.447c-0.587,0.087-0.706-0.503-0.979-0.84c-0.376,0.342-0.215,0.876-0.491,1.185
				c-1.151-0.751-1.611-2.042-1.208-3.291c0.139-0.433,0.348-0.688,0.812-0.751c0.512-0.064,1.136,0.257,1.506-0.491
				c0.097-0.193,0.346,0.002,0.454,0.194c0.216,0.403,0.479,0.797,0.488,1.279c0.012,0.56,0.395,0.902,0.543,1.378
				c0.042,0.163,0.182,0.097,0.278,0.024c0.087-0.061,0.268-0.149,0.173-0.261c-0.476-0.572-0.143-1.549-0.863-1.997
				c-0.262-0.161-0.363-0.537-0.47-0.859c-0.073-0.259-0.203-0.325-0.485-0.377c-0.645-0.115-0.821-0.473-0.46-1.019
				c0.427-0.654,0.266-1.236,0.039-1.872c-0.197,0.788-0.458,1.542-0.643,2.313c-0.106,0.46-0.346,0.77-0.679,0.682
				c-0.567-0.14-0.852,0.146-1.131,0.587c-0.084,0.14-0.251,0.203-0.409,0.14c-0.227-0.097-0.236-0.328-0.209-0.533
				c0.103-0.815,0.334-1.631,0.925-2.121c0.391-0.321,0.582-0.516,0.424-1.075c-0.103-0.389-0.088-0.821,0.321-1.115
				c0.5-0.353-0.052-1.017,0.339-1.516c0.412-0.503,0.084-0.979-0.373-1.357c-0.331-0.258-0.34-0.742-0.316-1.17
				c0.031-0.673-0.072-1.23-0.633-1.649c-0.4-0.287-0.597-0.76-0.131-1.362c-0.584,0.09-0.835,0.857-1.275,0.372
				c-0.382-0.4-0.412-1.015-0.252-1.549c0.188-0.636,0.4-1.26,0.612-1.878c0.158-0.458,0.315-0.767,0.091-1.24
				c-0.17-0.339-0.161-0.745,0.103-1.069c0.154-0.191,0.3-0.386,0.284-0.673c-0.042-0.676,0.307-0.928,0.846-0.884
				c0.479,0.044,0.927,0.629,0.785,1.189c-0.146,0.586,0.112,1.07,0.103,1.604c-0.012,0.279,0.051,0.497,0.215,0.69
				c0.328,0.397,0.502,0.798,0.26,1.358c-0.075,0.19,0.079,0.49,0.367,0.62c0.306-0.605,0.264-1.19-0.012-1.803
				c-0.206-0.451-0.373-0.927-0.385-1.455c-0.01-0.708,0.139-0.856,0.8-0.787c0.403,0.046,0.815,0.161,1.279-0.103
				c-0.219-0.646-0.768-0.494-1.137-0.648c-0.276-0.115-0.612-0.046-0.903-0.134c-0.288-0.075-0.521-0.412-0.342-0.664
				c0.4-0.575,0.333-1.411,0.9-1.874c0.257-0.214,0.388-0.525,0.488-0.853c0.148-0.515-0.297-1.206-0.694-0.99
				c-0.878,0.463-1.442-0.128-2.043-0.525c-0.412,0.134-0.211,0.446-0.242,0.658c-0.048,0.392-0.197,0.675-0.575,0.633
				c-0.358-0.036-0.516-0.36-0.519-0.729c-0.012-0.516,0.076-1.04,0.445-1.395c0.485-0.467,0.833-1.108,1.449-1.372
				c0.075-0.354-0.251-0.416-0.325-0.649c-0.151-0.519,0-0.869,0.473-0.928c0.512-0.06,1.03-0.018,1.785-0.018
				c-0.712-0.34-1.285-0.321-1.706-0.718c-0.251-0.22-0.346-0.545,0.058-0.655c0.519-0.143,0.494-0.646,0.703-1.015
				c0.69-1.222,0.749-2.137-0.618-2.77c-0.306-0.14-0.342-0.612,0.042-0.782c0.53-0.242,0.736-0.674,0.861-1.239
				c0.191-0.877,0.206-0.873,1.066-0.798c0.151,0.016,0.297,0,0.431,0c0.124-0.308-0.085-0.284-0.203-0.345
				c-0.265-0.14-0.673-0.288-0.434-0.68c0.218-0.369,0.673-0.484,1.018-0.156c0.37,0.354,0.725,0.793,0.631,1.415
				c-0.121,0.764-0.13,1.512,0.052,2.26c0.139,0.576-0.118,1.001-0.428,1.374c-0.221,0.274-0.428,0.439-0.035,0.767
				c0.214,0.176,0.214,0.53,0.072,0.827c-0.14,0.275-0.007,0.388,0.209,0.438c0.203,0.058,0.463,0.019,0.467-0.203
				c0.021-0.733,0.506-1.43,0.105-2.193c-0.336-0.648-0.239-1.219,0.353-1.648c0.212-0.158,0.535-0.321,0.257-0.676
				c-0.361-0.473-0.164-0.842,0.072-1.259c0.357-0.623,0.616-1.277,0.301-2.032c-0.049-0.14-0.062-0.375,0.012-0.5
				c0.764-1.357,0.605-2.924,0.828-4.403c0.057-0.425,0.436-0.551,0.678-0.931c-0.584-0.333-1.03-0.706-0.572-1.473
				c0.14-0.244-0.046-0.481-0.249-0.627c-0.197-0.137-0.369-0.061-0.503,0.122c-0.027,0.032-0.063,0.06-0.081,0.094
				c-0.249,0.545-1.053,0.37-1.161,0.854c-0.109,0.476,0.185,1.055,0.285,1.591c0.027,0.121,0.042,0.327-0.013,0.369
				c-0.976,0.742-0.382,1.818-0.47,2.748c-0.03,0.335-0.03,0.646-0.173,0.974c-0.415,0.961-0.722,1.137-1.591,0.77
				c-0.733-0.315-0.939-0.788-0.636-1.733c0.278-0.861,0.36-1.719,0.388-2.621c0.033-1.091,0.076-2.225,1-2.967
				c0.178-0.148,0.236-0.315,0.121-0.534c-0.579-1.148-0.255-2.324-0.098-3.487c0.07-0.542,0.168-1.085,0.168-1.646
				c0-0.869,0.129-1.675,0.715-2.339c0.303-0.349,0.357-0.824,0.375-1.306c0.027-0.818-0.102-1.609-0.33-2.373
				c-0.076-0.249-0.272-0.507-0.23-0.713c0.285-1.425-0.291-2.754-0.297-4.147c-0.002-0.755,0.094-1.44,0.928-1.658
				c0.442-0.122,0.376-0.594,0.342-0.961c-0.051-0.503,0.016-0.915,0.449-1.2c0.357-0.236,0.442-0.66,0.551-1.073
				c0.367-1.433,0.779-2.833,1.439-4.147c0.428-0.852,0.634-1.813,0.825-2.771c0.181-0.906,0.538-1.79,0.681-2.675
				c0.246-1.528,0.758-3.033,0.649-4.604c-0.119-1.772-0.354-3.543-0.526-5.313c-0.119-1.146-0.169-2.236,0.593-3.242
				c0.487-0.654,0.324-1.575,0.067-2.327c-0.34-0.964-0.316-1.8,0.244-2.631c0.303-0.444,0.379-1.015,0.477-1.551
				c0.303-1.664,0.575-3.317,1.13-4.913c0.278-0.849,0.4-1.812,0.185-2.757c-0.158-0.683-0.078-1.366,0.279-1.964
				c0.294-0.487,0.336-1.018,0.326-1.579c-0.002-1.403,0.01-2.806,0.01-4.209c0-0.255,0.021-0.524-0.055-0.751
				c-0.26-0.764-0.143-1.422,0.334-2.006c0.307-0.371,0.412-0.813,0.395-1.298c-0.049-0.812,0.038-1.612,0.224-2.399
				c0.209-0.885,0.176-1.755-0.021-2.64c-0.07-0.317-0.165-0.686-0.109-0.994c0.411-2.287-0.358-4.458-0.494-6.688
				c-0.068-0.991-0.416-1.8-1.303-2.219c-0.325-0.151-0.543-0.461-0.758-0.758c-1.037-1.448-2.327-2.526-3.877-3.248
				c-2.212-1.033-4.275-2.399-6.323-3.771c-1.561-1.026-2.746-2.544-3.942-4.03c-0.358-0.445-0.492-0.975-0.249-1.536
				c0.261-0.614,0.131-1.154-0.152-1.69c-0.839-1.612-1.821-3.134-2.554-4.806c-0.084-0.186-0.23-0.364-0.382-0.473
				c-0.609-0.441-0.767-1.134-0.864-1.858c-0.057-0.421-0.057-0.867-0.272-1.224c-0.875-1.425-1.233-3.094-1.937-4.604
				c-0.142-0.294-0.339-0.605-0.369-0.928c-0.131-1.233-0.758-2.106-1.579-2.842c-0.415-0.354-0.646-0.846-0.803-1.369
				c-0.4-1.308-1.161-2.268-2.155-3.047c-0.466-0.36-0.888-0.8-1.367-1.157c-0.488-0.375-0.833-0.749-0.367-1.436
				c0.176-0.259,0.119-0.561-0.055-0.825c-0.069-0.105-0.151-0.199-0.206-0.314c-0.997-2.053-0.879-2.964,0.618-4.606
				c0.594-0.658,1.236-1.249,1.952-1.764c0.863-0.628,0.981-1.13,0.626-2.353c-0.069,0.007-0.163-0.012-0.211,0.027
				c-0.33,0.242-0.588,0.777-1.076,0.407c-0.524-0.391-1.173-0.592-1.3-1.479c-0.158-1.072,0.033-2.111,0.042-3.169
				c0-0.155,0.055-0.403,0.148-0.46c1.14-0.625,0.93-2.172,1.703-3.059c0.339-0.397,0.161-0.979,0.188-1.476
				c0.042-0.962,0.136-1.2,0.915-1.328c0.77-0.132,1.228-0.848,1.933-1.045c0.146-0.042,0.288-0.218,0.261-0.388
				c-0.103-0.721,0.127-1.219,0.719-1.563c0.266-0.161,0.163-0.537,0.214-0.819c0.23-1.178,0.512-1.521,1.585-1.636
				c0.745-0.076,1.221-0.421,1.394-1.24c0.173-0.827,0.815-1.299,1.2-1.976c-0.973-0.714-0.981-0.714-0.767-1.951
				c0.097-0.506,0.079-1-0.009-1.505c-0.151-0.913-0.151-1.802-0.055-2.75c0.109-1.088,0.127-2.248-0.704-3.318
				c-0.856-1.117-0.732-1.875,0.389-2.761c0.9-0.708,0.933-0.839,0.5-1.972c-0.042-0.122-0.109-0.231-0.143-0.349
				c-0.066-0.255-0.088-0.521,0.143-0.685c0.2-0.137,0.357,0.054,0.506,0.176c0.343,0.257,0.485,0.754,1,1.052
				c-0.261-1.098,0.282-1.637,0.958-2.154c0.676-0.525,1.003-1.499,1.839-1.859c0.225-0.093,0.255-0.405,0.3-0.656
				c0.061-0.418,0.14-0.834,0.179-1.262c0.179-1.794,1.188-2.845,2.776-2.79c0.5,0.015,0.878,0.018,1.126-0.566
				c0.186-0.443,0.63-0.464,1.007-0.425c1.042,0.106,1.949-0.236,2.824-0.832c0.285-0.198,0.615-0.344,0.934-0.468
				c0.521-0.206,0.915-0.497,1.23-1.049c0.568-1.006,1.475-1.297,2.245-0.866c0.806,0.461,0.921,1.117,0.285,1.818
				c-0.222,0.233-0.468,0.476-0.74,0.591c-0.605,0.251-0.636,0.639-0.343,1.182c0.158,0.284,0.313,0.578,0.524,0.973
				c1.225-0.961,2.515-1.646,4.076-1.815c-0.26-0.484-0.909-0.33-0.899-0.93c0.01-0.389,0.15-0.751,0.379-1.049
				c0.402-0.516,0.881-0.473,1.224,0.097c0.042,0.079,0.097,0.154,0.101,0.23c0.169,1.392,1.1,1.673,2.117,1.827
				c0.382,0.061,0.748,0.185,1.113,0.313c0.502,0.176,0.809,0.539,0.989,1.121c0.435,1.38,0.452,1.342,1.698,1.183
				c1.054-0.137,2.117-0.207,3.185-0.288c0.639-0.059,1.142,0.126,1.581,0.748c0.792,1.131,1.916,0.797,2.968,0.605
				c0.603-0.111,1.072-0.67,1.721-0.617c0.112,0.002,0.176-0.076,0.128-0.116c-0.41-0.3-0.288-0.526,0.075-0.721
				c0.285-0.161,0.588-0.161,0.892-0.161c1.257,0,2.523-0.006,3.779,0.006c0.405,0.003,0.845-0.018,1.148,0.488
				c-0.511,0.734-1.289,0.54-2.165,0.71c0.591,0.357,0.931,0.745,1.234,1.163c0.202,0.282,0.476,0.412,0.799,0.434
				c0.737,0.049,1.364,0.461,2.024,0.784c1.431,0.688,2.017,1.831,1.737,3.504c0.117,0.045,0.212,0.121,0.245,0.093
				c0.894-0.66,1.594-0.211,2.491,0.204c1.114,0.524,1.905,1.352,2.751,2.202c0.488,0.497,0.879,1.064,0.9,1.843
				c0.015,0.369,0.098,0.722,0.487,0.739c1.448,0.055,2.134,1.361,3.022,2.303c0.32,0.35,0.584,0.488,1.029,0.585
				c1.222,0.289,2.4,0.167,3.628,0.028c1.544-0.176,3.072-0.131,4.557,0.73c1.406,0.81,3.006,1.188,4.31,2.252
				c0.648,0.52,1.19,1.266,1.895,1.626c1.45,0.737,2.057,1.961,2.297,3.643c0.158,1.108,0.614,2.173,0.906,3.279
				c0.184,0.703,0.512,1.228,1.191,1.378c0.62,0.131,0.695,0.552,0.535,1.131c-0.225,0.76-0.327,1.576-0.945,2.128
				c-0.164,0.14-0.215,0.436-0.312,0.663c-0.673,0.304-1.149,0.852-1.68,1.549c0.939,0.048,1.419-0.318,1.506-1.224
				C1200.3,1029.524,1200.391,1029.428,1200.448,1029.315z M1140.727,1228.469c-0.797-0.647-1.821-1.096-1.649-2.538
				c-0.757,1.293,0.716,1.829,0.64,2.908c0.369-0.207,0.648-0.439,1.02-0.376c0.366,0.804,1.229,0.772,1.775,1.301
				c0.172,0.17,0.42-0.119,0.463-0.392c0.076-0.612,0.598-0.979,0.661-1.6c0.023-0.249,0.196-0.485,0.456-0.512
				c0.313-0.019,0.352,0.288,0.387,0.526c0.096,0.731,0.436,1.452,0.111,2.228c-0.169,0.373,0.143,0.445,0.315,0.503
				c0.288,0.095,0.433-0.092,0.388-0.415c-0.042-0.379-0.124-0.752-0.172-1.133c-0.128-0.928-0.068-1.073,0.672-1.516
				c0.303-0.178,0.631-0.306,0.931-0.472c0.173-0.095,0.324-0.254,0.245-0.501c-0.082-0.245-0.3-0.27-0.485-0.23
				c-0.257,0.049-0.509,0.146-0.769,0.225c-0.668,0.218-1.125,0.029-1.438-0.592c-0.283-0.566-0.176-1.475,0.234-1.86
				c0.127-0.118,0.424-0.055,0.381-0.36c-0.03-0.268-0.225-0.437-0.439-0.546c-0.487-0.254-0.809-0.024-0.896,0.703
				c-0.148,1.215-0.412,2.416-0.494,3.643c-0.076,1.088-0.42,1.35-1.321,1.182
				C1141.408,1228.585,1141.068,1228.529,1140.727,1228.469z M1141.266,998.598c-1.18,1.042-1.245,1.565-0.388,2.826
				c0.161,0.236,0.257,0.519,0.409,0.764c0.3,0.507,0.657,0.533,0.969,0.013c0.404-0.673,0.307-1.38-0.039-2.037
				C1141.927,999.624,1141.587,999.114,1141.266,998.598z M1139.49,1225.454c1.03,0.301,2.438-0.469,2.672-1.31
				c0.033-0.114,0.046-0.254,0.012-0.37c-0.032-0.106-0.117-0.218-0.204-0.278c-0.11-0.079-0.207,0-0.271,0.115
				C1141.196,1224.444,1140.442,1224.926,1139.49,1225.454z M1138.126,1222.246c0.261,0.339,0.41,1.13,0.81,0.805
				c0.66-0.536,1.4-0.448,2.264-0.621C1140.074,1221.718,1139.09,1222.954,1138.126,1222.246z M1134.365,1192.244
				c0.328-0.445,1.315-0.131,1.052-1.163c-0.14-0.552-0.558-0.382-0.984-0.412
				C1134.551,1191.257,1134.547,1191.747,1134.365,1192.244z"/><path fill-rule="evenodd" clip-rule="evenodd" fill="#FFFFFF" d="M1170.166,1217.539c0.533,0.406,1.27,0.31,1.512,1.182
				c0.255-0.212,0.406-0.33,0.552-0.464c0.668-0.585,0.664-0.585,0.062-1.315c-0.098-0.117-0.194-0.272-0.24-0.424
				c-0.084-0.273-0.042-0.598,0.272-0.491c1.092,0.354,2.165,0.122,3.249,0.019c0.403-0.046,0.725-0.094,1.039-0.367
				c0.14-0.118,0.346-0.221,0.518-0.208c0.901,0.057,1.671,0.624,2.501,0.948c0.479,0.191,0.415,1.264-0.031,1.624
				c-0.399,0.317-0.799,0.685-1.302,0.752c-0.4,0.051-0.782,0.078-0.73,0.69c0,0.036-0.037,0.114-0.039,0.111
				c-0.843-0.229-0.916,0.904-1.601,1.063c-0.919,0.22-0.909,0.304-1.415-0.575c-0.51-0.894-0.625-0.912-1.389-0.276
				c-1.072,0.886-1.447,0.838-2.275-0.278c-0.215-0.291-0.442-0.588-0.637-0.885
				C1170.018,1218.348,1170.027,1218.337,1170.166,1217.539z"/></svg>